<?xml version="1.0" encoding="utf-8"?>
<!-- Generator: Adobe Illustrator 20.1.0, SVG Export Plug-In . SVG Version: 6.00 Build 0)  -->
<svg version="1.1" id="Calque_1" xmlns="http://www.w3.org/2000/svg" xmlns:xlink="http://www.w3.org/1999/xlink" x="0px" y="0px"
	 viewBox="0 0 479.7 448.3" style="enable-background:new 0 0 479.7 448.3;" xml:space="preserve">
<style type="text/css">
	.st0{fill:none;stroke:#000000;stroke-width:9;stroke-linecap:round;stroke-linejoin:round;stroke-miterlimit:10;}
	.st1{fill:#EADA49;}
</style>
<path class="st0" d="M688.9-143.9h101.2c22.2,0,40.2,18,40.2,40.2v229.3c0,22.2-18,40.2-40.2,40.2H688.9c-22.2,0-40.2-18-40.2-40.2
	V111v-214.6C648.6-125.9,666.7-143.9,688.9-143.9z"/>
<line class="st0" x1="828.2" y1="108.9" x2="650.3" y2="110.3"/>
<line class="st0" x1="868.2" y1="-61" x2="868.2" y2="84.1"/>
<line class="st0" x1="902.3" y1="-24.4" x2="902.3" y2="48.8"/>
<line class="st0" x1="610.8" y1="-61" x2="610.8" y2="84.1"/>
<line class="st0" x1="575.5" y1="-29.3" x2="575.5" y2="48.8"/>
<circle cx="741.4" cy="138" r="7.7"/>
<polygon class="st1" points="330.6,256.7 352.2,381.5 240,322.7 127.9,381.7 149.2,256.8 58.4,168.5 183.8,150.2 239.7,36.5 
	295.9,150.1 421.3,168.2 "/>
</svg>
