<?xml version="1.0" encoding="utf-8"?>
<!-- Generator: Adobe Illustrator 20.1.0, SVG Export Plug-In . SVG Version: 6.00 Build 0)  -->
<svg version="1.1" xmlns="http://www.w3.org/2000/svg" xmlns:xlink="http://www.w3.org/1999/xlink" x="0px" y="0px"
	 viewBox="0 0 51.6 51.7" style="enable-background:new 0 0 51.6 51.7;" xml:space="preserve">
<style type="text/css">
	.st0{fill:#BAEEF9;}
	.st1{opacity:0.4;}
	.st2{fill:#454C53;}
	.st3{fill:#FFFFFF;}
	.st4{fill:#9EDBDA;}
	.st5{fill:#FFC0AD;}
	.st6{clip-path:url(#XMLID_3_);fill:#6F3030;}
	.st7{fill:#71BB00;}
	.st8{opacity:0.2;fill:#FFD01F;}
	.st9{fill:#438930;}
	.st10{clip-path:url(#XMLID_4_);fill:#FFA100;}
	.st11{opacity:0.3;fill:#FFD01F;}
	.st12{fill:#FFD01F;}
	.st13{fill:#FFB300;}
	.st14{opacity:0.5;clip-path:url(#XMLID_5_);fill:#8F4200;}
	.st15{clip-path:url(#XMLID_5_);fill:#8F4200;}
	.st16{fill:#6F3030;}
	.st17{fill:#6F3030;stroke:#FFFFFF;stroke-width:2;stroke-miterlimit:10;}
	.st18{fill:#69AB1C;}
	.st19{fill:#8F4200;}
	.st20{fill:#2797D2;}
	.st21{fill:#B95300;}
	.st22{fill:#FF8B30;}
	.st23{fill:none;stroke:#2B252C;stroke-miterlimit:10;}
	.st24{fill:#FF5343;}
	.st25{fill:none;stroke:#FFFFFF;stroke-width:4.2356;stroke-linecap:round;stroke-miterlimit:10;}
	.st26{clip-path:url(#XMLID_6_);fill:#FF5343;}
	.st27{fill:none;stroke:#FFFFFF;stroke-width:5.2945;stroke-linecap:round;stroke-miterlimit:10;}
	.st28{fill:none;stroke:#FFFFFF;stroke-width:2.9879;stroke-miterlimit:10;}
	.st29{fill:#6F3030;stroke:#FFFFFF;stroke-width:4;stroke-miterlimit:10;}
	.st30{fill:none;stroke:#FFFFFF;stroke-width:1.8555;stroke-miterlimit:10;}
	.st31{fill:none;stroke:#6F3030;stroke-width:3;stroke-linecap:round;stroke-miterlimit:10;}
	.st32{fill:#2B252C;}
	.st33{clip-path:url(#SVGID_2_);fill:#2B252C;}
	.st34{opacity:0.4;fill:#2B252C;}
	.st35{fill:none;stroke:#6F3030;stroke-width:2;stroke-miterlimit:10;}
	.st36{fill:#99AF3B;}
	.st37{opacity:0.6;fill:#FFD01F;}
	.st38{fill:#8E613F;}
	.st39{fill:url(#SVGID_3_);}
	.st40{opacity:0.53;}
	.st41{fill:#467B8E;}
	.st42{fill:#724747;}
	.st43{fill:#492020;}
</style>
<g id="BACKGROUND">
	<rect x="629.9" y="-56" class="st0" width="800" height="800"/>
</g>
<g id="OBJECTS">
	<g class="st1">
		<g>
			<path class="st2" d="M918.4,723.6v-0.3c-0.3,0.4-0.7,0.7-1,1c-0.3,0.3-0.7,0.4-1.1,0.6c-0.4,0.1-0.8,0.2-1.3,0.2
				c-0.6,0-1.2-0.1-1.7-0.4c-0.5-0.3-1-0.6-1.4-1.1c-0.4-0.5-0.7-1.1-0.9-1.7c-0.2-0.7-0.3-1.4-0.3-2.1c0-1.6,0.4-2.9,1.2-3.8
				c0.8-0.9,1.8-1.4,3.1-1.4c0.7,0,1.4,0.1,1.9,0.4c0.5,0.3,1,0.7,1.5,1.2v-3.8c0-0.5,0.1-0.9,0.3-1.2c0.2-0.3,0.5-0.4,0.9-0.4
				c0.4,0,0.7,0.1,0.9,0.4c0.2,0.3,0.3,0.6,0.3,1.1v11.4c0,0.5-0.1,0.9-0.3,1.1c-0.2,0.2-0.5,0.4-0.9,0.4c-0.4,0-0.6-0.1-0.9-0.4
				C918.5,724.4,918.4,724.1,918.4,723.6z M913.3,719.8c0,0.7,0.1,1.3,0.3,1.8c0.2,0.5,0.5,0.9,0.9,1.1c0.4,0.2,0.8,0.4,1.2,0.4
				c0.5,0,0.9-0.1,1.2-0.4c0.4-0.2,0.7-0.6,0.9-1.1c0.2-0.5,0.3-1.1,0.3-1.8c0-0.7-0.1-1.3-0.3-1.8c-0.2-0.5-0.5-0.9-0.9-1.1
				c-0.4-0.3-0.8-0.4-1.3-0.4c-0.5,0-0.9,0.1-1.3,0.4c-0.4,0.3-0.7,0.7-0.9,1.2C913.4,718.5,913.3,719.1,913.3,719.8z"/>
			<path class="st2" d="M929.8,720.5h-5.1c0,0.6,0.1,1.1,0.4,1.6c0.2,0.4,0.5,0.8,0.9,1c0.4,0.2,0.8,0.3,1.3,0.3
				c0.3,0,0.6,0,0.9-0.1c0.3-0.1,0.5-0.2,0.7-0.3c0.2-0.2,0.5-0.3,0.7-0.5c0.2-0.2,0.5-0.4,0.8-0.7c0.1-0.1,0.3-0.2,0.6-0.2
				c0.3,0,0.5,0.1,0.6,0.2c0.2,0.1,0.2,0.3,0.2,0.6c0,0.2-0.1,0.5-0.3,0.8c-0.2,0.3-0.5,0.6-0.8,0.9c-0.4,0.3-0.8,0.5-1.4,0.7
				c-0.6,0.2-1.2,0.3-1.9,0.3c-1.7,0-3-0.5-3.9-1.4c-0.9-0.9-1.4-2.2-1.4-3.9c0-0.8,0.1-1.5,0.3-2.1c0.2-0.7,0.6-1.2,1-1.7
				c0.4-0.5,1-0.8,1.6-1.1c0.6-0.2,1.3-0.4,2.1-0.4c1,0,1.9,0.2,2.6,0.6c0.7,0.4,1.3,1,1.6,1.7c0.4,0.7,0.5,1.4,0.5,2.1
				c0,0.7-0.2,1.1-0.6,1.3C931,720.4,930.5,720.5,929.8,720.5z M924.7,719h4.7c-0.1-0.9-0.3-1.6-0.7-2c-0.4-0.4-1-0.7-1.6-0.7
				c-0.6,0-1.2,0.2-1.6,0.7C925.1,717.4,924.8,718.1,924.7,719z"/>
			<path class="st2" d="M941.6,721.7c0,0.7-0.2,1.3-0.5,1.8c-0.3,0.5-0.9,0.9-1.5,1.2c-0.7,0.3-1.5,0.4-2.5,0.4
				c-0.9,0-1.7-0.1-2.4-0.4c-0.7-0.3-1.2-0.6-1.5-1.1c-0.3-0.4-0.5-0.9-0.5-1.3c0-0.3,0.1-0.5,0.3-0.7c0.2-0.2,0.5-0.3,0.8-0.3
				c0.3,0,0.5,0.1,0.6,0.2s0.3,0.3,0.4,0.6c0.3,0.5,0.6,0.8,1,1c0.4,0.2,0.9,0.3,1.5,0.3c0.5,0,0.9-0.1,1.3-0.3
				c0.3-0.2,0.5-0.5,0.5-0.8c0-0.5-0.2-0.8-0.5-1c-0.3-0.2-0.9-0.4-1.7-0.6c-0.9-0.2-1.6-0.5-2.2-0.7c-0.6-0.2-1-0.6-1.3-1
				c-0.3-0.4-0.5-0.9-0.5-1.5c0-0.5,0.2-1,0.5-1.5c0.3-0.5,0.8-0.8,1.4-1.1c0.6-0.3,1.3-0.4,2.2-0.4c0.7,0,1.3,0.1,1.8,0.2
				c0.5,0.1,1,0.3,1.3,0.6c0.4,0.2,0.6,0.5,0.8,0.8c0.2,0.3,0.3,0.6,0.3,0.8c0,0.3-0.1,0.5-0.3,0.7c-0.2,0.2-0.5,0.3-0.9,0.3
				c-0.3,0-0.5-0.1-0.7-0.2c-0.2-0.2-0.4-0.4-0.6-0.7c-0.2-0.3-0.4-0.5-0.7-0.6c-0.3-0.2-0.6-0.2-1.1-0.2c-0.5,0-0.9,0.1-1.2,0.3
				c-0.3,0.2-0.5,0.4-0.5,0.7c0,0.3,0.1,0.5,0.3,0.7c0.2,0.2,0.5,0.3,0.9,0.4c0.4,0.1,0.9,0.3,1.6,0.4c0.8,0.2,1.5,0.4,2,0.7
				c0.5,0.3,0.9,0.6,1.2,1C941.5,720.8,941.6,721.2,941.6,721.7z"/>
			<path class="st2" d="M944.3,713.3c-0.4,0-0.7-0.1-0.9-0.3c-0.3-0.2-0.4-0.5-0.4-0.9c0-0.4,0.1-0.7,0.4-0.9
				c0.3-0.2,0.6-0.4,0.9-0.4c0.3,0,0.6,0.1,0.9,0.3c0.3,0.2,0.4,0.5,0.4,0.9c0,0.4-0.1,0.7-0.4,0.9
				C944.9,713.2,944.6,713.3,944.3,713.3z M945.6,716v7.5c0,0.5-0.1,0.9-0.4,1.2c-0.2,0.3-0.6,0.4-0.9,0.4c-0.4,0-0.7-0.1-0.9-0.4
				c-0.2-0.3-0.4-0.7-0.4-1.2v-7.4c0-0.5,0.1-0.9,0.4-1.2c0.2-0.3,0.5-0.4,0.9-0.4c0.4,0,0.7,0.1,0.9,0.4
				C945.4,715.2,945.6,715.6,945.6,716z"/>
			<path class="st2" d="M956.9,716.4v7.5c0,0.9-0.1,1.6-0.3,2.2c-0.2,0.6-0.5,1.1-0.9,1.5c-0.4,0.4-0.9,0.7-1.6,0.9
				c-0.7,0.2-1.5,0.3-2.4,0.3c-0.9,0-1.7-0.1-2.4-0.4c-0.7-0.3-1.2-0.6-1.6-1c-0.4-0.4-0.6-0.8-0.6-1.2c0-0.3,0.1-0.6,0.3-0.8
				c0.2-0.2,0.5-0.3,0.8-0.3c0.4,0,0.7,0.2,1,0.5c0.1,0.2,0.3,0.3,0.4,0.5c0.1,0.2,0.3,0.3,0.5,0.4c0.2,0.1,0.4,0.2,0.7,0.3
				c0.3,0.1,0.5,0.1,0.9,0.1c0.7,0,1.2-0.1,1.6-0.3c0.4-0.2,0.6-0.4,0.8-0.8c0.1-0.3,0.2-0.7,0.3-1.1c0-0.4,0-1,0.1-1.8
				c-0.4,0.6-0.9,1-1.4,1.3c-0.5,0.3-1.1,0.4-1.9,0.4c-0.9,0-1.6-0.2-2.3-0.7c-0.6-0.4-1.1-1.1-1.5-1.9c-0.3-0.8-0.5-1.7-0.5-2.8
				c0-0.8,0.1-1.5,0.3-2.1c0.2-0.6,0.5-1.2,0.9-1.6c0.4-0.4,0.8-0.8,1.4-1s1.1-0.3,1.7-0.3c0.7,0,1.4,0.1,1.9,0.4
				c0.5,0.3,1,0.7,1.5,1.3V716c0-0.4,0.1-0.8,0.3-1c0.2-0.2,0.5-0.4,0.9-0.4c0.5,0,0.8,0.2,1,0.5
				C956.8,715.4,956.9,715.8,956.9,716.4z M949.4,719.7c0,1.1,0.2,1.8,0.7,2.4c0.5,0.5,1.1,0.8,1.8,0.8c0.4,0,0.8-0.1,1.2-0.3
				c0.4-0.2,0.7-0.6,0.9-1c0.2-0.5,0.4-1,0.4-1.7c0-1.1-0.2-1.9-0.7-2.5c-0.5-0.6-1.1-0.9-1.8-0.9c-0.7,0-1.3,0.3-1.8,0.8
				C949.6,717.9,949.4,718.7,949.4,719.7z"/>
			<path class="st2" d="M961,716v0.3c0.5-0.6,1-1,1.5-1.3c0.5-0.3,1.2-0.4,1.9-0.4c0.7,0,1.3,0.2,1.8,0.4c0.5,0.3,0.9,0.7,1.2,1.3
				c0.2,0.3,0.3,0.7,0.3,1c0.1,0.4,0.1,0.8,0.1,1.4v4.8c0,0.5-0.1,0.9-0.4,1.2c-0.2,0.3-0.5,0.4-0.9,0.4c-0.4,0-0.7-0.1-0.9-0.4
				c-0.2-0.3-0.4-0.7-0.4-1.2v-4.3c0-0.9-0.1-1.5-0.4-2c-0.2-0.5-0.7-0.7-1.4-0.7c-0.5,0-0.9,0.1-1.3,0.4s-0.7,0.7-0.8,1.1
				c-0.1,0.4-0.2,1.1-0.2,2.2v3.2c0,0.5-0.1,0.9-0.4,1.2c-0.2,0.3-0.6,0.4-0.9,0.4c-0.4,0-0.7-0.1-0.9-0.4c-0.2-0.3-0.4-0.7-0.4-1.2
				V716c0-0.5,0.1-0.9,0.3-1.1c0.2-0.2,0.5-0.4,0.9-0.4c0.2,0,0.4,0.1,0.6,0.2c0.2,0.1,0.3,0.3,0.4,0.5C961,715.4,961,715.7,961,716
				z"/>
			<path class="st2" d="M976.8,720.5h-5.1c0,0.6,0.1,1.1,0.4,1.6c0.2,0.4,0.5,0.8,0.9,1c0.4,0.2,0.8,0.3,1.3,0.3
				c0.3,0,0.6,0,0.9-0.1c0.3-0.1,0.5-0.2,0.7-0.3c0.2-0.2,0.5-0.3,0.7-0.5c0.2-0.2,0.5-0.4,0.8-0.7c0.1-0.1,0.3-0.2,0.6-0.2
				c0.3,0,0.5,0.1,0.6,0.2c0.2,0.1,0.2,0.3,0.2,0.6c0,0.2-0.1,0.5-0.3,0.8c-0.2,0.3-0.5,0.6-0.8,0.9c-0.4,0.3-0.8,0.5-1.4,0.7
				c-0.6,0.2-1.2,0.3-1.9,0.3c-1.7,0-3-0.5-3.9-1.4c-0.9-0.9-1.4-2.2-1.4-3.9c0-0.8,0.1-1.5,0.3-2.1c0.2-0.7,0.6-1.2,1-1.7
				c0.4-0.5,1-0.8,1.6-1.1c0.6-0.2,1.3-0.4,2.1-0.4c1,0,1.9,0.2,2.6,0.6c0.7,0.4,1.3,1,1.6,1.7c0.4,0.7,0.5,1.4,0.5,2.1
				c0,0.7-0.2,1.1-0.6,1.3C978,720.4,977.5,720.5,976.8,720.5z M971.7,719h4.7c-0.1-0.9-0.3-1.6-0.7-2c-0.4-0.4-1-0.7-1.6-0.7
				c-0.6,0-1.2,0.2-1.6,0.7C972.1,717.4,971.8,718.1,971.7,719z"/>
			<path class="st2" d="M987.4,723.6v-0.3c-0.3,0.4-0.7,0.7-1,1c-0.3,0.3-0.7,0.4-1.1,0.6c-0.4,0.1-0.8,0.2-1.3,0.2
				c-0.6,0-1.2-0.1-1.7-0.4c-0.5-0.3-1-0.6-1.4-1.1c-0.4-0.5-0.7-1.1-0.9-1.7c-0.2-0.7-0.3-1.4-0.3-2.1c0-1.6,0.4-2.9,1.2-3.8
				c0.8-0.9,1.8-1.4,3.1-1.4c0.7,0,1.4,0.1,1.9,0.4c0.5,0.3,1,0.7,1.5,1.2v-3.8c0-0.5,0.1-0.9,0.3-1.2c0.2-0.3,0.5-0.4,0.9-0.4
				c0.4,0,0.7,0.1,0.9,0.4c0.2,0.3,0.3,0.6,0.3,1.1v11.4c0,0.5-0.1,0.9-0.3,1.1c-0.2,0.2-0.5,0.4-0.9,0.4c-0.4,0-0.6-0.1-0.9-0.4
				C987.5,724.4,987.4,724.1,987.4,723.6z M982.3,719.8c0,0.7,0.1,1.3,0.3,1.8c0.2,0.5,0.5,0.9,0.9,1.1c0.4,0.2,0.8,0.4,1.2,0.4
				c0.5,0,0.9-0.1,1.2-0.4c0.4-0.2,0.7-0.6,0.9-1.1c0.2-0.5,0.3-1.1,0.3-1.8c0-0.7-0.1-1.3-0.3-1.8c-0.2-0.5-0.5-0.9-0.9-1.1
				c-0.4-0.3-0.8-0.4-1.3-0.4c-0.5,0-0.9,0.1-1.3,0.4c-0.4,0.3-0.7,0.7-0.9,1.2C982.4,718.5,982.3,719.1,982.3,719.8z"/>
			<path class="st2" d="M998,712.2v4c0.5-0.5,1-0.9,1.5-1.2c0.5-0.3,1.1-0.4,1.9-0.4c0.9,0,1.6,0.2,2.3,0.6c0.6,0.4,1.2,1,1.5,1.8
				c0.4,0.8,0.5,1.7,0.5,2.8c0,0.8-0.1,1.5-0.3,2.2c-0.2,0.7-0.5,1.2-0.9,1.7c-0.4,0.5-0.8,0.9-1.4,1.1c-0.5,0.3-1.1,0.4-1.8,0.4
				c-0.4,0-0.8,0-1.1-0.1c-0.4-0.1-0.7-0.2-0.9-0.4c-0.2-0.2-0.5-0.3-0.6-0.5c-0.2-0.2-0.4-0.4-0.7-0.7v0.3c0,0.5-0.1,0.9-0.4,1.1
				c-0.2,0.2-0.5,0.4-0.9,0.4c-0.4,0-0.7-0.1-0.9-0.4c-0.2-0.3-0.3-0.6-0.3-1.1v-11.3c0-0.5,0.1-0.9,0.3-1.2
				c0.2-0.3,0.5-0.4,0.9-0.4c0.4,0,0.7,0.1,0.9,0.4C997.9,711.3,998,711.7,998,712.2z M998.1,719.9c0,1,0.2,1.8,0.7,2.4
				c0.5,0.6,1.1,0.8,1.9,0.8c0.7,0,1.2-0.3,1.7-0.9c0.5-0.6,0.7-1.4,0.7-2.4c0-0.7-0.1-1.3-0.3-1.8c-0.2-0.5-0.5-0.9-0.8-1.1
				c-0.4-0.3-0.8-0.4-1.3-0.4c-0.5,0-0.9,0.1-1.3,0.4c-0.4,0.3-0.7,0.7-0.9,1.2C998.2,718.6,998.1,719.2,998.1,719.9z"/>
			<path class="st2" d="M1009,725.4l0.2-0.6l-3.2-8c-0.2-0.5-0.3-0.8-0.3-1c0-0.2,0.1-0.4,0.2-0.6c0.1-0.2,0.3-0.3,0.5-0.5
				c0.2-0.1,0.4-0.2,0.6-0.2c0.4,0,0.7,0.1,0.8,0.4c0.2,0.2,0.4,0.6,0.5,1l2.2,6.4l2.1-5.9c0.2-0.5,0.3-0.9,0.4-1.1
				c0.1-0.3,0.3-0.5,0.4-0.5c0.1-0.1,0.4-0.1,0.6-0.1c0.2,0,0.4,0.1,0.6,0.2c0.2,0.1,0.3,0.2,0.4,0.4c0.1,0.2,0.1,0.4,0.1,0.6
				c0,0.1-0.1,0.3-0.1,0.5c-0.1,0.2-0.1,0.4-0.2,0.7l-3.4,8.9c-0.3,0.8-0.6,1.4-0.9,1.8c-0.3,0.4-0.6,0.8-1.1,1
				c-0.5,0.2-1.1,0.4-1.9,0.4c-0.8,0-1.3-0.1-1.7-0.2c-0.4-0.2-0.6-0.5-0.6-0.9c0-0.3,0.1-0.5,0.3-0.7c0.2-0.2,0.4-0.2,0.8-0.2
				c0.1,0,0.3,0,0.4,0.1c0.2,0,0.3,0.1,0.4,0.1c0.3,0,0.5,0,0.7-0.1c0.2-0.1,0.3-0.2,0.5-0.5C1008.7,726.2,1008.8,725.8,1009,725.4z
				"/>
		</g>
		<g>
			<path class="st2" d="M1046.6,714.8h0.6V714c0-0.8,0.1-1.5,0.3-1.9c0.2-0.5,0.6-0.8,1-1c0.5-0.2,1.2-0.3,2-0.3
				c1.5,0,2.3,0.4,2.3,1.1c0,0.2-0.1,0.4-0.2,0.6c-0.2,0.2-0.3,0.3-0.6,0.3c-0.1,0-0.3,0-0.5-0.1c-0.2,0-0.5-0.1-0.6-0.1
				c-0.5,0-0.8,0.1-0.9,0.4c-0.1,0.3-0.2,0.7-0.2,1.2v0.6h0.6c1,0,1.5,0.3,1.5,0.9c0,0.4-0.1,0.7-0.4,0.8c-0.3,0.1-0.6,0.2-1.1,0.2
				h-0.6v6.9c0,0.5-0.1,0.9-0.4,1.2c-0.2,0.3-0.6,0.4-0.9,0.4c-0.4,0-0.7-0.1-0.9-0.4c-0.2-0.3-0.4-0.7-0.4-1.2v-6.9h-0.7
				c-0.4,0-0.7-0.1-0.9-0.3c-0.2-0.2-0.3-0.4-0.3-0.7C1045.3,715.1,1045.7,714.8,1046.6,714.8"/>
			<path class="st2" d="M1055.1,721.3v2.2c0,0.5-0.1,0.9-0.4,1.2c-0.2,0.3-0.6,0.4-0.9,0.4c-0.4,0-0.7-0.1-0.9-0.4
				c-0.2-0.3-0.4-0.7-0.4-1.2v-7.2c0-1.2,0.4-1.7,1.3-1.7c0.4,0,0.7,0.1,0.9,0.4c0.2,0.3,0.3,0.7,0.3,1.2c0.3-0.5,0.6-0.9,0.9-1.2
				c0.3-0.3,0.8-0.4,1.3-0.4c0.5,0,1.1,0.1,1.6,0.4c0.5,0.3,0.8,0.6,0.8,1.1c0,0.3-0.1,0.6-0.3,0.8c-0.2,0.2-0.5,0.3-0.7,0.3
				c-0.1,0-0.3-0.1-0.7-0.2c-0.4-0.1-0.7-0.2-1-0.2c-0.4,0-0.7,0.1-0.9,0.3c-0.2,0.2-0.4,0.5-0.6,0.9c-0.1,0.4-0.2,0.9-0.3,1.4
				C1055.1,719.9,1055.1,720.6,1055.1,721.3"/>
			<path class="st2" d="M1067,720.5h-5.1c0,0.6,0.1,1.1,0.4,1.6c0.2,0.4,0.5,0.8,0.9,1c0.4,0.2,0.8,0.3,1.3,0.3c0.3,0,0.6,0,0.8-0.1
				c0.3-0.1,0.5-0.2,0.7-0.3c0.2-0.2,0.5-0.3,0.7-0.5c0.2-0.2,0.5-0.4,0.8-0.7c0.1-0.1,0.3-0.2,0.6-0.2c0.3,0,0.5,0.1,0.6,0.2
				c0.2,0.1,0.2,0.3,0.2,0.6c0,0.2-0.1,0.5-0.3,0.8c-0.2,0.3-0.5,0.6-0.8,0.9c-0.4,0.3-0.8,0.5-1.4,0.7c-0.6,0.2-1.2,0.3-1.9,0.3
				c-1.7,0-3-0.5-3.9-1.4c-0.9-1-1.4-2.2-1.4-3.9c0-0.8,0.1-1.5,0.3-2.1c0.2-0.7,0.6-1.2,1-1.7c0.4-0.5,1-0.8,1.6-1.1
				c0.6-0.2,1.3-0.4,2.1-0.4c1,0,1.9,0.2,2.6,0.6c0.7,0.4,1.3,1,1.6,1.7c0.4,0.7,0.5,1.4,0.5,2.1c0,0.6-0.2,1.1-0.6,1.3
				C1068.2,720.4,1067.7,720.5,1067,720.5 M1061.9,719h4.7c-0.1-0.9-0.3-1.5-0.7-2c-0.4-0.4-1-0.7-1.6-0.7c-0.6,0-1.2,0.2-1.6,0.7
				C1062.3,717.4,1062,718.1,1061.9,719"/>
			<path class="st2" d="M1077.8,720.5h-5.1c0,0.6,0.1,1.1,0.4,1.6c0.2,0.4,0.5,0.8,0.9,1c0.4,0.2,0.8,0.3,1.3,0.3
				c0.3,0,0.6,0,0.8-0.1c0.3-0.1,0.5-0.2,0.8-0.3c0.2-0.2,0.5-0.3,0.7-0.5c0.2-0.2,0.5-0.4,0.8-0.7c0.1-0.1,0.3-0.2,0.6-0.2
				c0.3,0,0.5,0.1,0.7,0.2c0.2,0.1,0.2,0.3,0.2,0.6c0,0.2-0.1,0.5-0.3,0.8c-0.2,0.3-0.5,0.6-0.8,0.9c-0.4,0.3-0.8,0.5-1.4,0.7
				c-0.6,0.2-1.2,0.3-1.9,0.3c-1.7,0-3-0.5-3.9-1.4c-0.9-1-1.4-2.2-1.4-3.9c0-0.8,0.1-1.5,0.3-2.1c0.2-0.7,0.6-1.2,1-1.7
				c0.4-0.5,1-0.8,1.6-1.1c0.6-0.2,1.4-0.4,2.1-0.4c1,0,1.9,0.2,2.6,0.6c0.7,0.4,1.3,1,1.6,1.7c0.4,0.7,0.5,1.4,0.5,2.1
				c0,0.6-0.2,1.1-0.6,1.3C1079,720.4,1078.5,720.5,1077.8,720.5 M1072.7,719h4.7c-0.1-0.9-0.3-1.5-0.7-2c-0.4-0.4-1-0.7-1.6-0.7
				c-0.6,0-1.2,0.2-1.6,0.7C1073,717.4,1072.8,718.1,1072.7,719"/>
			<path class="st2" d="M1083.5,716v0.3c0.5-0.6,1-1,1.5-1.3c0.5-0.3,1.1-0.4,1.8-0.4c0.8,0,1.5,0.2,2.2,0.6c0.7,0.4,1.2,1,1.6,1.8
				c0.4,0.8,0.6,1.7,0.6,2.8c0,0.8-0.1,1.5-0.3,2.2c-0.2,0.7-0.5,1.2-0.9,1.7c-0.4,0.4-0.9,0.8-1.4,1c-0.5,0.2-1.1,0.4-1.7,0.4
				c-0.7,0-1.4-0.1-1.9-0.4c-0.5-0.3-1-0.7-1.4-1.3v3.9c0,1.1-0.4,1.7-1.2,1.7c-0.5,0-0.8-0.1-1-0.4c-0.2-0.3-0.2-0.7-0.2-1.3V716
				c0-0.5,0.1-0.9,0.3-1.1c0.2-0.2,0.5-0.4,0.9-0.4c0.4,0,0.7,0.1,0.9,0.4C1083.4,715.2,1083.5,715.5,1083.5,716 M1088.5,719.8
				c0-0.7-0.1-1.3-0.3-1.8c-0.2-0.5-0.5-0.9-0.9-1.1c-0.4-0.3-0.8-0.4-1.2-0.4c-0.7,0-1.3,0.3-1.8,0.8c-0.5,0.6-0.7,1.4-0.7,2.5
				c0,1,0.2,1.8,0.7,2.4c0.5,0.6,1.1,0.9,1.8,0.9c0.4,0,0.8-0.1,1.2-0.4c0.4-0.3,0.7-0.6,0.9-1.1
				C1088.4,721.1,1088.5,720.5,1088.5,719.8"/>
			<path class="st2" d="M1093.8,713.3c-0.4,0-0.7-0.1-0.9-0.3c-0.3-0.2-0.4-0.5-0.4-0.9c0-0.4,0.1-0.7,0.4-0.9
				c0.3-0.2,0.6-0.4,0.9-0.4c0.3,0,0.6,0.1,0.9,0.3c0.3,0.2,0.4,0.5,0.4,0.9c0,0.4-0.1,0.7-0.4,0.9
				C1094.4,713.2,1094.1,713.3,1093.8,713.3 M1095,716v7.5c0,0.5-0.1,0.9-0.4,1.2c-0.2,0.3-0.6,0.4-0.9,0.4c-0.4,0-0.7-0.1-0.9-0.4
				c-0.2-0.3-0.4-0.7-0.4-1.2v-7.4c0-0.5,0.1-0.9,0.4-1.2c0.2-0.3,0.5-0.4,0.9-0.4c0.4,0,0.7,0.1,0.9,0.4
				C1094.9,715.2,1095,715.6,1095,716"/>
			<path class="st2" d="M1103.4,723.9l-2.3-3.8l-1.4,1.3v2.1c0,0.5-0.1,0.9-0.4,1.1c-0.3,0.3-0.6,0.4-0.9,0.4
				c-0.4,0-0.7-0.1-0.9-0.4c-0.2-0.3-0.3-0.7-0.3-1.2v-11.1c0-0.6,0.1-1,0.3-1.3c0.2-0.3,0.5-0.5,1-0.5c0.4,0,0.7,0.1,0.9,0.4
				c0.2,0.3,0.4,0.7,0.4,1.2v6.3l2.9-3.1c0.4-0.4,0.6-0.6,0.8-0.8c0.2-0.1,0.4-0.2,0.7-0.2c0.3,0,0.6,0.1,0.8,0.3
				c0.2,0.2,0.3,0.5,0.3,0.8c0,0.4-0.4,0.9-1.1,1.5l-1.4,1.3l2.7,4.2c0.2,0.3,0.3,0.5,0.4,0.7c0.1,0.2,0.1,0.3,0.1,0.5
				c0,0.4-0.1,0.7-0.3,1c-0.2,0.2-0.5,0.4-0.9,0.4c-0.3,0-0.6-0.1-0.7-0.3C1103.9,724.7,1103.7,724.3,1103.4,723.9"/>
			<path class="st2" d="M1109,725.1c-0.4,0-0.7-0.1-1-0.4c-0.3-0.2-0.4-0.6-0.4-1.1c0-0.4,0.1-0.7,0.4-1c0.3-0.3,0.6-0.4,1-0.4
				c0.4,0,0.7,0.1,1,0.4c0.3,0.3,0.4,0.6,0.4,1c0,0.5-0.1,0.8-0.4,1.1C1109.8,725,1109.4,725.1,1109,725.1"/>
			<path class="st2" d="M1121.9,721.9c0,0.3-0.1,0.7-0.3,1c-0.2,0.4-0.5,0.7-0.9,1.1c-0.4,0.3-0.9,0.6-1.5,0.8
				c-0.6,0.2-1.3,0.3-2,0.3c-1.6,0-2.9-0.5-3.8-1.4c-0.9-0.9-1.3-2.2-1.3-3.8c0-1.1,0.2-2,0.6-2.8c0.4-0.8,1-1.4,1.8-1.9
				c0.8-0.4,1.7-0.7,2.8-0.7c0.7,0,1.3,0.1,1.9,0.3c0.6,0.2,1,0.5,1.4,0.8c0.4,0.3,0.7,0.6,0.9,1c0.2,0.4,0.3,0.7,0.3,1
				c0,0.3-0.1,0.6-0.3,0.8c-0.2,0.2-0.5,0.3-0.8,0.3c-0.2,0-0.4-0.1-0.5-0.2c-0.1-0.1-0.3-0.3-0.5-0.5c-0.3-0.5-0.6-0.8-1-1.1
				c-0.3-0.2-0.8-0.4-1.3-0.4c-0.8,0-1.4,0.3-1.9,0.9c-0.5,0.6-0.7,1.4-0.7,2.5c0,0.5,0.1,0.9,0.2,1.3c0.1,0.4,0.3,0.8,0.5,1
				c0.2,0.3,0.5,0.5,0.8,0.7c0.3,0.2,0.7,0.2,1.1,0.2c0.5,0,1-0.1,1.3-0.4c0.4-0.2,0.7-0.6,1-1.1c0.2-0.3,0.3-0.5,0.5-0.7
				c0.2-0.2,0.4-0.2,0.7-0.2c0.3,0,0.6,0.1,0.8,0.4C1121.8,721.3,1121.9,721.6,1121.9,721.9"/>
			<path class="st2" d="M1133.1,719.8c0,0.8-0.1,1.5-0.4,2.1c-0.2,0.7-0.6,1.2-1,1.7c-0.5,0.5-1,0.8-1.6,1.1
				c-0.6,0.2-1.3,0.4-2.1,0.4c-0.8,0-1.5-0.1-2.1-0.4c-0.6-0.2-1.2-0.6-1.6-1.1c-0.5-0.5-0.8-1-1.1-1.7c-0.2-0.6-0.4-1.4-0.4-2.1
				c0-0.8,0.1-1.5,0.4-2.2c0.2-0.7,0.6-1.2,1-1.7c0.5-0.5,1-0.8,1.6-1.1c0.6-0.2,1.3-0.4,2.1-0.4c0.8,0,1.5,0.1,2.1,0.4
				c0.6,0.3,1.2,0.6,1.6,1.1c0.5,0.5,0.8,1,1,1.7C1133,718.3,1133.1,719,1133.1,719.8 M1130.5,719.8c0-1.1-0.2-1.9-0.7-2.5
				c-0.5-0.6-1.1-0.9-1.9-0.9c-0.5,0-1,0.1-1.3,0.4c-0.4,0.3-0.7,0.6-0.9,1.2c-0.2,0.5-0.3,1.1-0.3,1.8c0,0.7,0.1,1.3,0.3,1.8
				c0.2,0.5,0.5,0.9,0.9,1.2c0.4,0.3,0.8,0.4,1.4,0.4c0.8,0,1.4-0.3,1.9-0.9C1130.3,721.7,1130.5,720.9,1130.5,719.8"/>
			<path class="st2" d="M1143,720v3.4c0,0.5-0.1,1-0.4,1.2c-0.2,0.3-0.6,0.4-1,0.4c-0.4,0-0.7-0.1-1-0.4c-0.2-0.3-0.4-0.7-0.4-1.2
				v-4.1c0-0.7,0-1.2-0.1-1.5c0-0.4-0.2-0.7-0.4-0.9c-0.2-0.2-0.5-0.4-0.9-0.4c-0.9,0-1.4,0.3-1.7,0.9c-0.3,0.6-0.4,1.4-0.4,2.5v3.5
				c0,0.5-0.1,0.9-0.4,1.2c-0.2,0.3-0.6,0.4-1,0.4c-0.4,0-0.7-0.1-1-0.4c-0.3-0.3-0.4-0.7-0.4-1.2V716c0-0.5,0.1-0.9,0.3-1.1
				c0.2-0.3,0.5-0.4,0.9-0.4c0.4,0,0.7,0.1,0.9,0.4c0.2,0.2,0.4,0.6,0.4,1v0.2c0.5-0.5,0.9-0.9,1.4-1.2c0.5-0.3,1.1-0.4,1.7-0.4
				c0.7,0,1.2,0.1,1.7,0.4c0.5,0.3,0.9,0.7,1.2,1.2c0.4-0.5,0.9-0.9,1.4-1.2c0.5-0.3,1.1-0.4,1.7-0.4c0.7,0,1.3,0.1,1.8,0.4
				c0.5,0.3,0.9,0.7,1.1,1.2c0.2,0.5,0.3,1.2,0.3,2.2v5.1c0,0.5-0.1,1-0.4,1.2c-0.2,0.3-0.6,0.4-1,0.4c-0.4,0-0.7-0.1-1-0.4
				c-0.2-0.3-0.4-0.7-0.4-1.2v-4.4c0-0.6,0-1-0.1-1.3c0-0.3-0.2-0.6-0.4-0.8c-0.2-0.2-0.5-0.3-1-0.3c-0.3,0-0.7,0.1-1,0.3
				c-0.3,0.2-0.5,0.5-0.7,0.8C1143.1,718.1,1143,718.9,1143,720"/>
		</g>
		<g>
			<path class="st2" d="M1022.3,719.2C1022.3,719.2,1022.3,719.2,1022.3,719.2C1022.3,719.2,1022.3,719.2,1022.3,719.2z"/>
			<path class="st2" d="M1022.4,720C1022.5,720,1022.5,720,1022.4,720c0-0.2-0.1-0.5-0.1-0.7C1022.4,719.5,1022.4,719.8,1022.4,720z
				"/>
			<path class="st2" d="M1023.3,722.4C1023.3,722.4,1023.3,722.4,1023.3,722.4C1023.3,722.4,1023.3,722.4,1023.3,722.4z"/>
			<path class="st2" d="M1023.2,722.3c0,0,0-0.1-0.1-0.1C1023.2,722.2,1023.2,722.2,1023.2,722.3z"/>
			<path class="st2" d="M1022.7,720.9c0.1,0.4,0.3,0.8,0.5,1.2C1023,721.7,1022.8,721.3,1022.7,720.9
				C1022.7,720.9,1022.7,720.9,1022.7,720.9z"/>
			<path class="st2" d="M1032.4,709.3c0.5,0,0.9,0,1.3,0.1l0.1-0.8c0,0-1.2-0.4-2.7-0.2l-0.1-0.4c0.5-0.1,0.8-0.5,0.8-1
				c0-0.6-0.5-1.1-1.1-1.1s-1.1,0.5-1.1,1.1c0,0.5,0.4,0.9,0.8,1l0.1,0.5c-1.6,0.2-2.9,0.9-2.9,0.9l0.2,0.7c1-0.3,1.8-0.5,2.6-0.6
				C1031.3,709.3,1031.9,709.3,1032.4,709.3z"/>
			<path class="st2" d="M1023.3,713.1L1023.3,713.1c0-0.1,0.1-0.1,0.1-0.2l-0.3-0.2l-0.5-0.4c0,0-0.8,0.7-1.4,2c0,0-0.1-0.1-0.1-0.1
				c-0.2-0.2-0.4-0.3-0.8-0.3c0,0,0,0,0,0c-0.2,0-0.3-0.1-0.4-0.1c0.1-0.1,0.1-0.3,0.1-0.4c0-0.4-0.3-0.7-0.7-0.7
				c-0.4,0-0.7,0.3-0.7,0.7c0,0.4,0.3,0.7,0.7,0.7c0.1,0,0.1,0,0.2,0c0.2,0.2,0.4,0.3,0.8,0.3c0.2,0,0.3,0,0.4,0.2
				c0.1,0.1,0.1,0.3,0.2,0.4c0,0,0,0,0,0c-0.4,1.2-0.3,2.7-0.3,2.7l1.1,0c0-0.5,0.1-1.5,0.4-2.2
				C1022.6,714.1,1023.3,713.1,1023.3,713.1z"/>
			<path class="st2" d="M1041.6,710.1c-0.4,0-0.7,0.3-0.7,0.7c0,0.1,0,0.1,0,0.2c-0.2,0.2-0.3,0.4-0.3,0.8c0,0.2,0,0.3-0.2,0.4
				c-0.1,0.1-0.2,0.1-0.3,0.1c-0.8-1.1-1.8-1.8-1.8-1.8l-0.8,0.8c0.6,0.5,1.2,1.2,1.7,2c0.4,0.6,0.8,1.3,1.1,2l1-0.5
				c0,0-0.5-1.2-1.1-2.2c0.1,0,0.2-0.1,0.3-0.2c0.2-0.2,0.3-0.4,0.3-0.8c0-0.2,0.1-0.3,0.1-0.4c0.1,0.1,0.3,0.1,0.4,0.1
				c0.4,0,0.7-0.3,0.7-0.7C1042.2,710.4,1041.9,710.1,1041.6,710.1z"/>
			<path class="st2" d="M1038.9,719.3c-1.4,0.7-3.7,1.6-6.8,2c-1.2,0.2-2.4,0.2-3.4,0.2c-1.4,0-2.6-0.1-3.6-0.2
				c-1.1-0.1-1.9-0.3-2.4-0.4c0.1,0.4,0.3,0.8,0.5,1.2c0,0,0,0,0,0c0,0,0,0.1,0.1,0.1c0,0,0,0.1,0.1,0.1c0,0,0,0,0,0
				c0.3,0.6,0.7,1.1,1.1,1.5c1.4,1.6,2.9,1.8,2.9,1.8l0,0l0,0c0,0,1.3,0.4,3.3,0.4c1.9,0,3.9-0.4,5.7-1.2c1.3-0.7,2.6-1.7,3.3-2.7
				c0.5-0.7,0.8-1.5,1-2.3c0.1-0.4,0.2-1.1,0.1-1.8C1040.4,718.5,1039.7,718.9,1038.9,719.3z"/>
			<path class="st2" d="M1023.7,713.4c0,0.1-0.7,0.9-1.1,2.3c-0.4,1-0.3,2.4-0.3,2.5v0c0,0.3,0,0.7,0.1,1c0,0,0,0,0,0
				c0,0,0,0.1,0,0.1c0,0.2,0.1,0.5,0.1,0.7c0.7,0.2,4.9,1.2,9.5,0.5c2.9-0.4,5.1-1.3,6.5-1.9c1.1-0.5,1.8-1,2.1-1.2
				c-0.3-1-1-2.6-1.7-3.6c-2-2.9-4.2-3.6-5.3-3.8c-0.4-0.1-0.8-0.1-1.2-0.1c-0.4,0-1,0-1.7,0.1c-0.7,0.1-1.6,0.3-2.5,0.6
				c-1.3,0.5-2.6,1.2-3.5,2l0,0C1024.4,712.7,1024.1,713,1023.7,713.4z M1036,712.8c1,0,1.7,0.8,1.7,1.7c0,1-0.8,1.7-1.7,1.7
				c-1,0-1.7-0.8-1.7-1.7C1034.3,713.6,1035,712.8,1036,712.8z M1027.8,712.7c1.6,0,2.8,1.3,2.8,2.8c0,1.6-1.3,2.8-2.8,2.8
				c-1.6,0-2.8-1.3-2.8-2.8C1025,714,1026.2,712.7,1027.8,712.7z"/>
		</g>
	</g>
	<g>
		<path class="st3" d="M1429.9,322h-237c-31.2-14.6-92.5-24.5-163-24.5s-131.8,9.9-163,24.5h-237v44h237
			c31.2,14.6,92.5,24.5,163,24.5c70.5,0,131.8-9.9,163-24.5h237V322z"/>
		
			<text transform="matrix(1 0 0 1 878.7462 356.3086)" class="st4" style="font-family:'Dosis-Bold'; font-size:33px; letter-spacing:2;">FARM LANDSCAPES</text>
	</g>
	<g>
		<polygon class="st4" points="702,595.8 830.9,450 886.3,507.5 939.9,452.5 1030.3,549.2 1098.9,467 1167.2,544.9 1250.4,473 
			1357.8,597.9 		"/>
		<g>
			<polyline class="st5" points="1102.9,580 1102.9,590 1105.9,590 1105.9,581 			"/>
			<polyline class="st5" points="1112.9,580 1112.9,590 1115.9,590 1115.9,581 			"/>
			<path class="st5" d="M1119.8,579.1c0,0,3.1-2.6,6-0.6c2.8,2-0.7,7.6-5.8,4.4C1115,579.7,1119.8,579.1,1119.8,579.1z"/>
			<path class="st3" d="M1115.9,573.6c-0.8,0-1.4,0.1-2,0.4c-0.2-2.4-1.9-4.6-5-4.6c-3.2,0-4.8,2.3-5,4.7c-0.2,0-0.5-0.1-0.7-0.1
				c-2.7,0-5,2.3-5,5s2.3,5,5,5c0.9,0,1.7-0.2,2.4-0.7c0.6,1.8,2.1,3.4,4.6,3.4c2.3,0,3.8-1.3,4.5-3c0.4,0.1,0.8,0.1,1.3,0.1
				C1122.6,583.9,1122.6,573.6,1115.9,573.6z"/>
			<path class="st3" d="M1118.2,578c0,0,10.1,0.5,8.3-3.7C1124.7,570.2,1118.2,578,1118.2,578z"/>
		</g>
		<g>
			<polyline class="st5" points="1136.9,580 1136.9,590 1139.9,590 1139.9,581 			"/>
			<polyline class="st5" points="1146.9,580 1146.9,590 1149.9,590 1149.9,581 			"/>
			<path class="st5" d="M1153.8,579.1c0,0,3.1-2.6,6-0.6c2.8,2-0.7,7.6-5.8,4.4C1149,579.7,1153.8,579.1,1153.8,579.1z"/>
			<path class="st3" d="M1149.9,573.6c-0.8,0-1.4,0.1-2,0.4c-0.2-2.4-1.9-4.6-5-4.6c-3.2,0-4.8,2.3-5,4.7c-0.2,0-0.5-0.1-0.7-0.1
				c-2.7,0-5,2.3-5,5s2.3,5,5,5c0.9,0,1.7-0.2,2.4-0.7c0.6,1.8,2.1,3.4,4.6,3.4c2.3,0,3.8-1.3,4.5-3c0.4,0.1,0.8,0.1,1.3,0.1
				C1156.6,583.9,1156.6,573.6,1149.9,573.6z"/>
			<path class="st3" d="M1152.2,578c0,0,10.1,0.5,8.3-3.7C1158.7,570.2,1152.2,578,1152.2,578z"/>
		</g>
		<g>
			<polyline class="st5" points="1169.9,580 1169.9,590 1172.9,590 1172.9,581 			"/>
			<polyline class="st5" points="1179.9,580 1179.9,590 1182.9,590 1182.9,581 			"/>
			<path class="st5" d="M1186.8,579.1c0,0,3.1-2.6,6-0.6c2.8,2-0.7,7.6-5.8,4.4C1182,579.7,1186.8,579.1,1186.8,579.1z"/>
			<path class="st3" d="M1182.9,573.6c-0.8,0-1.4,0.1-2,0.4c-0.2-2.4-1.9-4.6-5-4.6c-3.2,0-4.8,2.3-5,4.7c-0.2,0-0.5-0.1-0.7-0.1
				c-2.7,0-5,2.3-5,5s2.3,5,5,5c0.9,0,1.7-0.2,2.4-0.7c0.6,1.8,2.1,3.4,4.6,3.4c2.3,0,3.8-1.3,4.5-3c0.4,0.1,0.8,0.1,1.3,0.1
				C1189.6,583.9,1189.6,573.6,1182.9,573.6z"/>
			<path class="st3" d="M1185.2,578c0,0,10.1,0.5,8.3-3.7C1191.7,570.2,1185.2,578,1185.2,578z"/>
		</g>
		<g>
			<defs>
				<path id="XMLID_17_" d="M1346.7,601.4c3.2,5,5.1,11,5.1,17.5c0,17.8-14.5,32.3-32.3,32.3H740.3c-17.8,0-32.3-14.5-32.3-32.3
					c0-6.4,1.9-12.4,5.1-17.5H1346.7z"/>
			</defs>
			<use xlink:href="#XMLID_17_"  style="overflow:visible;fill:#8F4200;"/>
			<clipPath id="XMLID_3_">
				<use xlink:href="#XMLID_17_"  style="overflow:visible;"/>
			</clipPath>
			<ellipse class="st6" cx="1270" cy="637.9" rx="11.4" ry="6.9"/>
			<ellipse class="st6" cx="1246.7" cy="632.8" rx="8.2" ry="5"/>
			<ellipse class="st6" cx="1068.8" cy="650.6" rx="11.4" ry="6.9"/>
			<ellipse class="st6" cx="1046.6" cy="643.4" rx="8.2" ry="5"/>
			<ellipse class="st6" cx="1081.8" cy="636.4" rx="5.8" ry="3.5"/>
			<ellipse class="st6" cx="1152.5" cy="633.7" rx="11.4" ry="6.9"/>
			<ellipse class="st6" cx="1129.2" cy="628.6" rx="8.2" ry="5"/>
			<ellipse class="st6" cx="1172.6" cy="621.2" rx="8.2" ry="5"/>
			<ellipse class="st6" cx="949.9" cy="630.5" rx="5.3" ry="4.7"/>
			<ellipse class="st6" cx="779.7" cy="636.3" rx="15.6" ry="9.5"/>
			<ellipse class="st6" cx="866.5" cy="620.4" rx="15.6" ry="9.5"/>
			<ellipse class="st6" cx="851.2" cy="634.6" rx="7.7" ry="4.7"/>
			<ellipse class="st6" cx="1310.8" cy="617.7" rx="7.7" ry="4.7"/>
		</g>
		<g>
			<path class="st7" d="M972.1,599.3c-9.9-71.9-65.1-127-131.7-127s-121.8,55-131.7,127H972.1z"/>
			<path class="st8" d="M838.6,599.3V472.4c-65.7,1-120,55.7-129.8,126.9H838.6z"/>
		</g>
		<g>
			<path class="st9" d="M1027.1,599.3c-7.1-51.5-46.6-90.9-94.3-90.9c-47.7,0-87.2,39.4-94.3,90.9H1027.1z"/>
			<path class="st8" d="M931.4,599.3v-90.9c-47.1,0.7-86,39.9-93,90.9H931.4z"/>
		</g>
		<g>
			<g>
				<defs>
					<path id="XMLID_16_" d="M942.4,599.3c-7.7-55.7-50.4-98.4-102-98.4s-94.3,42.6-102,98.4H942.4z"/>
				</defs>
				<use xlink:href="#XMLID_16_"  style="overflow:visible;fill:#FFB300;"/>
				<clipPath id="XMLID_4_">
					<use xlink:href="#XMLID_16_"  style="overflow:visible;"/>
				</clipPath>
				<path class="st10" d="M831.4,496.2c0,0,81,16.8,99,113.8h-23.3C907.1,610,909.2,543.8,831.4,496.2z"/>
				<path class="st10" d="M792.2,498.2c0,0,81,16.8,99,113.8h-23.3C867.9,612,870,545.8,792.2,498.2z"/>
				<path class="st10" d="M747.7,498.2c0,0,81,16.8,99,113.8h-23.3C823.4,612,825.5,545.8,747.7,498.2z"/>
				<path class="st10" d="M702.2,498.2c0,0,81,16.8,99,113.8h-23.3C777.9,612,780,545.8,702.2,498.2z"/>
			</g>
			<path class="st11" d="M838.9,599.3v-98.3c-50.9,0.8-93,43.1-100.6,98.3H838.9z"/>
		</g>
		<g>
			<circle class="st12" cx="1144.8" cy="461.1" r="23.8"/>
			<circle class="st13" cx="1144.8" cy="461.1" r="15.4"/>
		</g>
		<g>
			<g>
				<defs>
					<path id="XMLID_14_" d="M696.9,590h50c0,0,0-75.7,0-81s-0.4-27.3-24.4-27.3c-23.9,0-25.6,19-25.6,27.3
						C696.9,517.3,696.9,590,696.9,590z"/>
				</defs>
				<use xlink:href="#XMLID_14_"  style="overflow:visible;fill:#FF5343;"/>
				<clipPath id="XMLID_5_">
					<use xlink:href="#XMLID_14_"  style="overflow:visible;"/>
				</clipPath>
				<rect x="684.9" y="575" class="st14" width="75" height="48"/>
				<rect x="684.9" y="461" class="st14" width="75" height="48"/>
				<rect x="739.9" y="552" class="st15" width="10" height="8"/>
				<rect x="699.9" y="544" class="st15" width="10" height="6"/>
				<rect x="739.9" y="526" class="st15" width="10" height="5"/>
				<rect x="692.9" y="518" class="st15" width="10" height="8"/>
			</g>
			<g>
				<path class="st16" d="M714.2,590.8v-17.1c0-4.4,3.6-7.9,7.9-7.9c4.4,0,7.9,3.6,7.9,7.9v17.1H714.2z"/>
				<path class="st3" d="M729.1,590.8v-17.1c0-3.8-3.1-6.9-6.9-6.9c-3.8,0-6.9,3.1-6.9,6.9v17.1h-2v-17.1c0-4.9,4-8.9,8.9-8.9
					c4.9,0,8.9,4,8.9,8.9v17.1H729.1z"/>
			</g>
			<rect x="716.9" y="541" class="st17" width="11" height="10"/>
			<rect x="716.9" y="519" class="st17" width="11" height="10"/>
		</g>
		<path class="st3" d="M1174.7,481.4c0.3-1.8-0.1-3.7-1-5.2c-1-1.8-2.7-3.1-4.7-3.6c-0.7-0.1-1.4-0.2-2.1-0.3c-0.2,0-0.5,0-0.7,0
			c0-3.5-2.9-6.3-6.3-6.3c-3.5,0-6.3,2.9-6.3,6.3c0,0.8,0.1,1.5,0.4,2.2c-1.4,0-2.8,0.6-3.9,1.7c-1.1,1.1-1.7,2.5-1.7,4
			c0,0.4,0.1,0.8,0.1,1.2H1174.7z"/>
		<path class="st3" d="M1244,478.9c0.5-1,0.8-2,0.8-3.1c0-1.8-0.7-3.5-2-4.8c-1.3-1.3-3-2-4.8-2c-0.5,0-1.1,0.1-1.6,0.2
			c-0.3-0.3-0.6-0.6-0.9-0.9c-1.5-1.2-3.4-1.7-5.1-0.7c-1.4,0.8-2.4,2.8-2.1,4.5c-0.1,0-0.2,0-0.4,0c-1.2,0-2.3,0.6-2.9,1.7
			c-0.3,0.5-0.5,1.1-0.5,1.7c0,0.3,0,0.5,0.1,0.8c-0.1,0-0.1-0.1-0.2-0.1c-1.8,0-2.8,1.4-3,2.7H1244z"/>
		<path class="st3" d="M1018.6,503.8c-0.6-2-1.9-3.8-3.8-4.9c-0.8-0.4-1.6-0.8-2.5-1c-1.4-0.3-2.8-0.3-4.1,0c-0.3,0.1-0.7,0.2-1,0.4
			c-0.4-1.3-1.1-2.5-2.1-3.4c-1.6-1.6-3.7-2.4-5.9-2.4c-2.2,0-4.3,0.9-5.9,2.4c-0.9,0.9-1.6,2.1-2,3.3c-0.4-0.1-0.9-0.1-1.4-0.1
			c-3.7,0-5.6,2.9-5.6,5.9h34.3C1018.6,503.9,1018.6,503.8,1018.6,503.8z"/>
		<path class="st3" d="M1133.5,479.7c0.5-1.1,0.8-2.2,0.8-3.4c0-2.2-0.9-4.2-2.4-5.8c-0.9-0.9-1.9-1.5-3-1.9c0,0,0,0,0-0.1
			c-0.4-1.4-1.1-2.6-2.1-3.7c-2.1-2.1-5.2-2.9-8.1-2.1c-2.4,0.7-4.5,2.5-5.4,4.8c-1.4-0.9-3-1.4-4.6-1.4c-2.2,0-4.3,0.9-5.9,2.4
			c-0.9,0.9-1.6,2-2,3.2c-0.2-0.1-0.5-0.2-0.7-0.3c-1.3-0.3-2.6-0.3-3.9,0c-2.5,0.7-4.4,2.6-5.1,5.1c-0.3,1-0.3,2.1-0.1,3.2H1133.5z
			"/>
		<g>
			<path class="st18" d="M1388.9,605.7c0,8.1-6.6,14.3-14.7,14.3H684.6c-8.1,0-14.7-6.1-14.7-14.3v-0.2c0-8.1,6.6-15.5,14.7-15.5
				h689.6c8.1,0,14.7,7.4,14.7,15.5V605.7z"/>
			<path class="st18" d="M1388.9,605.7c0,8.1-6.6,14.3-14.7,14.3H684.6c-8.1,0-14.7-6.1-14.7-14.3v-0.2c0-8.1,6.6-15.5,14.7-15.5
				h689.6c8.1,0,14.7,7.4,14.7,15.5V605.7z"/>
			<path class="st9" d="M1374.2,608H684.6c-5.9,0-11-3.5-13.3-8.5c-0.9,1.9-1.4,3.8-1.4,6c0,8.1,6.6,14.5,14.7,14.5h689.6
				c8.1,0,14.7-6.4,14.7-14.5c0-2.2-0.5-4.2-1.4-6.1C1385.1,604.4,1380.1,608,1374.2,608z"/>
		</g>
		<g>
			<rect x="1223.7" y="528.8" class="st19" width="3.2" height="26"/>
			<polygon class="st20" points="1226.9,538.9 1203.6,531.5 1226.9,524.1 			"/>
		</g>
		<g>
			<path class="st16" d="M759.3,587.6l-0.9-8.5c0-3.5-2.9-6.4-6.4-6.4s-6.4,2.8-6.4,6.4l-1.1,8.5c-0.7,0-1.6,0.6-1.6,1.3v0.5
				c0,0.7,1.1,0.5,1.9,0.5H759c0.7,0,1.8,0.2,1.8-0.5V589C760.9,588.2,760,587.6,759.3,587.6z"/>
			<rect x="747.9" y="582" class="st21" width="8" height="2"/>
			<path class="st16" d="M754.7,569.6c0-1.1-0.9-2.1-2.1-2.1c-0.9,0-1.6,0.5-1.9,1.3c-1.1-0.9-2.9,0.4-2.3,1.9
				c0.3,0.8,1.1,1,1.7,0.8c0.1,0.2,0.1,0.3,0.2,0.5c-0.1,0.1-0.1,0.3-0.2,0.4c-0.3,0.6-0.2,1.1-0.2,1.8c0.1,1.2,0.4,2.7,2,2.7
				c1.5,0,1.9-1.6,1.6-2.8c0.1-0.8-0.2-1.7-0.6-2.4C753.9,571.5,754.7,570.6,754.7,569.6z"/>
			<path class="st3" d="M753.9,572.5c0,0.3-0.2,0.5-0.5,0.5h-3c-0.3,0-0.5-0.2-0.5-0.5l0,0c0-0.3,0.2-0.5,0.5-0.5h3
				C753.7,572,753.9,572.2,753.9,572.5L753.9,572.5z"/>
		</g>
		<g>
			<path class="st21" d="M772.3,587.6l-0.9-8.5c0-3.5-2.9-6.4-6.4-6.4s-6.4,2.8-6.4,6.4l-1.1,8.5c-0.7,0-1.6,0.6-1.6,1.3v0.5
				c0,0.7,1.1,0.5,1.9,0.5H772c0.7,0,1.8,0.2,1.8-0.5V589C773.9,588.2,773,587.6,772.3,587.6z"/>
			<rect x="760.9" y="582" class="st22" width="8" height="2"/>
			<path class="st21" d="M767.7,569.6c0-1.1-0.9-2.1-2.1-2.1c-0.9,0-1.6,0.5-1.9,1.3c-1.1-0.9-2.9,0.4-2.3,1.9
				c0.3,0.8,1.1,1,1.7,0.8c0.1,0.2,0.1,0.3,0.2,0.5c-0.1,0.1-0.1,0.3-0.2,0.4c-0.3,0.6-0.2,1.1-0.2,1.8c0.1,1.2,0.4,2.7,2,2.7
				c1.5,0,1.9-1.6,1.6-2.8c0.1-0.8-0.2-1.7-0.6-2.4C766.9,571.5,767.7,570.6,767.7,569.6z"/>
			<path class="st3" d="M766.9,572.5c0,0.3-0.2,0.5-0.5,0.5h-3c-0.3,0-0.5-0.2-0.5-0.5l0,0c0-0.3,0.2-0.5,0.5-0.5h3
				C766.7,572,766.9,572.2,766.9,572.5L766.9,572.5z"/>
		</g>
		<g>
			<path class="st23" d="M1054.4,557.6c0,1.6-1.3,2.9-2.9,2.9h-0.2c-1.6,0-2.9-1.3-2.9-2.9v-4.2c0-1.6,1.3-2.9,2.9-2.9h0.2
				c1.6,0,2.9,1.3,2.9,2.9V557.6z"/>
			<polygon class="st20" points="1055.5,564 1047.3,564 1046.1,555 1056.7,555 			"/>
			<path class="st2" d="M1055.9,563.5c0,0.3-0.2,0.5-0.5,0.5h-8c-0.3,0-0.5-0.2-0.5-0.5v0c0-0.3,0.2-0.5,0.5-0.5h8
				C1055.7,563,1055.9,563.2,1055.9,563.5L1055.9,563.5z"/>
			<path class="st2" d="M1056.9,555.5c0,0.3-0.2,0.5-0.5,0.5h-10c-0.3,0-0.5-0.2-0.5-0.5v0c0-0.3,0.2-0.5,0.5-0.5h10
				C1056.7,555,1056.9,555.2,1056.9,555.5L1056.9,555.5z"/>
		</g>
		<g>
			<path class="st24" d="M1076.8,550.2c0.6,0.1,1.1,0.1,1.7-0.1c0.9-0.3,1.4-0.9,1.9-1.7c0.8-1.4,0.2-3.4-1-4.4
				c-0.9-0.7-2.1-0.9-3.1-0.6c-0.5,0.2-1,0.5-1.4,1c-0.4,0.5-0.7,1.2-0.8,1.8c-0.3-0.1-0.6-0.1-0.8-0.2c-0.2-0.1-0.4-0.1-0.6-0.2
				c-0.1,0-0.1,0-0.2-0.1c0.4,0.1,0.4,0.1-0.2-0.1c-0.4-0.1-0.8-0.1-1.2,0.1c-0.7,0.3-1,0.7-1.2,1.4c-0.2,0.6,0.1,1.3,0.5,1.8
				c0.4,0.5,0.8,0.8,1.4,1.2c0.2,0.2,0.5,0.3,0.8,0.4c1,0.5,1.8,0.5,2.7-0.1c0.3-0.2,0.5-0.4,0.6-0.6
				C1076.2,550,1076.5,550.1,1076.8,550.2z"/>
			<path class="st24" d="M1077.2,551.3c0.4-0.5,0.8-0.8,1.4-1c0.9-0.3,1.7-0.2,2.5,0.1c1.5,0.6,2.3,2.5,2,4c-0.2,1.1-1,2.1-2.1,2.4
				c-0.5,0.2-1.1,0.2-1.7,0.1c-0.6-0.1-1.3-0.4-1.8-0.9c-0.2,0.2-0.3,0.5-0.5,0.7c-0.1,0.2-0.2,0.3-0.3,0.5c0,0.1-0.1,0.1-0.1,0.2
				c0.3-0.4,0.2-0.3-0.1,0.2c-0.2,0.3-0.6,0.6-0.9,0.7c-0.7,0.2-1.2,0.1-1.8-0.3c-0.6-0.4-0.8-1.1-0.8-1.7c0-0.7,0.1-1.2,0.3-1.8
				c0.1-0.3,0.2-0.5,0.3-0.8c0.4-1,1.1-1.5,2.2-1.7c0.3,0,0.6,0,0.9,0.1C1076.8,551.8,1077,551.5,1077.2,551.3z"/>
			<path class="st3" d="M1074,552.9c-0.5,0.2-1.1-0.1-1.3-0.6l0,0c-0.2-0.5,0.1-1.1,0.6-1.3l6-2.2c0.5-0.2,1.1,0.1,1.3,0.6l0,0
				c0.2,0.5-0.1,1.1-0.6,1.3L1074,552.9z"/>
		</g>
		<g>
			<g>
				<polygon class="st24" points="1210.3,590.6 1210.3,560.2 1249.4,542.8 1248.4,590.6 				"/>
				<line class="st25" x1="1249.4" y1="540.8" x2="1206.3" y2="562.7"/>
			</g>
			<g>
				<defs>
					<polygon id="XMLID_13_" points="1262.5,491.9 1296.4,468.6 1331.2,491.9 1347.9,525.6 1347.9,590 1296.2,590 1246.9,590 
						1246.9,525.6 					"/>
				</defs>
				<use xlink:href="#XMLID_13_"  style="overflow:visible;fill:#D24028;"/>
				<clipPath id="XMLID_6_">
					<use xlink:href="#XMLID_13_"  style="overflow:visible;"/>
				</clipPath>
				<rect x="1330.9" y="464" class="st26" width="6" height="141"/>
				<rect x="1315.9" y="464" class="st26" width="7" height="141"/>
				<rect x="1299.9" y="464" class="st26" width="10" height="141"/>
				<rect x="1285.9" y="464" class="st26" width="7" height="141"/>
				<rect x="1271.9" y="464" class="st26" width="7" height="141"/>
				<rect x="1254.9" y="464" class="st26" width="7" height="141"/>
			</g>
			<polyline class="st27" points="1353,532.2 1330.3,491.9 1296.2,468.6 1262,491.9 1238.8,532.7 			"/>
			<g>
				<rect x="1267.9" y="539" class="st3" width="55" height="51"/>
				<rect x="1273.9" y="544" class="st16" width="44" height="43"/>
				<rect x="1292.9" y="542" class="st3" width="5" height="47"/>
				<line class="st28" x1="1318.5" y1="558.1" x2="1272.4" y2="558"/>
				<line class="st28" x1="1318.5" y1="573" x2="1272.4" y2="572.8"/>
			</g>
			<rect x="1287.9" y="505" class="st29" width="16" height="15"/>
			<g>
				<rect x="1220.8" y="569.9" class="st3" width="15.9" height="20.6"/>
				<rect x="1223.7" y="573.4" class="st16" width="10.1" height="13.8"/>
			</g>
			<line class="st30" x1="1304.8" y1="513.7" x2="1287" y2="513.5"/>
		</g>
		<g>
			<rect x="1193.9" y="572" class="st19" width="4" height="18"/>
			<rect x="1168.9" y="572" class="st19" width="4" height="18"/>
			<rect x="1143.9" y="572" class="st19" width="4" height="18"/>
			<rect x="1118.9" y="572" class="st19" width="4" height="18"/>
			<rect x="1093.9" y="572" class="st19" width="4" height="18"/>
			<rect x="1091.9" y="579" class="st21" width="119" height="4"/>
		</g>
		<g>
			<g>
				<rect x="790.9" y="573" class="st24" width="47" height="4"/>
				<rect x="790.9" y="566" class="st24" width="47" height="3"/>
				<rect x="790.9" y="580" class="st24" width="47" height="4"/>
				<rect x="789.9" y="563" class="st19" width="4" height="21"/>
				<rect x="811.9" y="563" class="st19" width="4" height="21"/>
				<rect x="833.9" y="563" class="st19" width="4" height="21"/>
			</g>
			<path class="st16" d="M802.4,577.5c-3.6,0-6.5,2.9-6.5,6.5s2.9,6.5,6.5,6.5c3.6,0,6.5-2.9,6.5-6.5S806,577.5,802.4,577.5z
				 M802.4,588c-2.2,0-4-1.8-4-4s1.8-4,4-4s4,1.8,4,4S804.6,588,802.4,588z"/>
			<path class="st16" d="M824.9,577.5c-3.6,0-6.5,2.9-6.5,6.5s2.9,6.5,6.5,6.5c3.6,0,6.5-2.9,6.5-6.5S828.5,577.5,824.9,577.5z
				 M824.9,588c-2.2,0-4-1.8-4-4s1.8-4,4-4s4,1.8,4,4S827.1,588,824.9,588z"/>
			<circle class="st16" cx="802.4" cy="584.2" r="2.5"/>
			<circle class="st16" cx="825.4" cy="584" r="2.5"/>
			<path class="st16" d="M864.9,579.8c0,0.7-0.6,1.2-1.2,1.2h-26.5c-0.7,0-1.2-0.6-1.2-1.2v-0.5c0-0.7,0.6-1.2,1.2-1.2h26.5
				c0.7,0,1.2,0.6,1.2,1.2V579.8z"/>
		</g>
		<g>
			<line class="st31" x1="904.4" y1="567" x2="904.4" y2="553"/>
			<path class="st32" d="M901.9,556.5c0,1.4,1.1,2.5,2.5,2.5l0,0c1.4,0,2.5-1.1,2.5-2.5v-3c0-1.4-1.1-2.5-2.5-2.5l0,0
				c-1.4,0-2.5,1.1-2.5,2.5V556.5z"/>
			<path class="st24" d="M910,564h-12.2c-0.1,0-3.7-17-3.7-17h-21.4l-3.4,14.9c-0.3,1.4-1.7,2.7-3,2.7s-2.4,1.3-2.4,2.7v11.6
				c0,1.5,1.2,3,2.6,3.5l2.3,0.8c1.4,0.4,3.8,0.9,5.3,0.9h22.2c0.5,0,1,0,1.5,0H910c5.5,0,9.9-4.4,9.9-9.9v-0.2
				C919.9,568.4,915.4,564,910,564z"/>
			<g>
				<defs>
					<path id="SVGID_1_" d="M889.7,551.6H877l-2.9,12c5.9,0.2,12.1,2.4,15.6,6.8V551.6z"/>
				</defs>
				<use xlink:href="#SVGID_1_"  style="overflow:visible;fill:#9EDBDA;"/>
				<clipPath id="SVGID_2_">
					<use xlink:href="#SVGID_1_"  style="overflow:visible;"/>
				</clipPath>
				<path class="st33" d="M881.9,565.5c0,2.5-2,4.5-4.5,4.5l0,0c-2.5,0-4.5-2-4.5-4.5v-4c0-2.5,2-4.5,4.5-4.5l0,0
					c2.5,0,4.5,2,4.5,4.5V565.5z"/>
				<path class="st33" d="M895.9,571.2c0,3.7-3,6.8-6.8,6.8h-2.5c-3.7,0-6.8-3-6.8-6.8v-0.5c0-3.7,3-6.8,6.8-6.8h2.5
					c3.7,0,6.8,3,6.8,6.8V571.2z"/>
			</g>
			<g>
				<circle class="st32" cx="875.2" cy="580.5" r="12.5"/>
			</g>
			<circle class="st20" cx="875.2" cy="580.5" r="5.8"/>
			<circle class="st2" cx="875.2" cy="580.5" r="3.8"/>
			<g>
				<g>
					<circle class="st32" cx="910.2" cy="583.2" r="9.8"/>
				</g>
				<circle class="st20" cx="910.2" cy="583.2" r="4.5"/>
				<circle class="st2" cx="910.2" cy="583.2" r="3"/>
			</g>
			<path class="st34" d="M904.9,571.2c0,0.5-0.4,0.8-0.8,0.8h-0.3c-0.5,0-0.8-0.4-0.8-0.8v-4.3c0-0.5,0.4-0.8,0.8-0.8h0.3
				c0.5,0,0.8,0.4,0.8,0.8V571.2z"/>
			<path class="st34" d="M908.9,571.2c0,0.5-0.4,0.8-0.8,0.8h-0.3c-0.5,0-0.8-0.4-0.8-0.8v-4.3c0-0.5,0.4-0.8,0.8-0.8h0.3
				c0.5,0,0.8,0.4,0.8,0.8V571.2z"/>
			<path class="st34" d="M912.9,571.2c0,0.5-0.4,0.8-0.8,0.8h-0.3c-0.5,0-0.8-0.4-0.8-0.8v-4.3c0-0.5,0.4-0.8,0.8-0.8h0.3
				c0.5,0,0.8,0.4,0.8,0.8V571.2z"/>
		</g>
		<g>
			<path class="st16" d="M1096.1,587.6l-1-8.5c0-3.5-3-6.4-6.5-6.4s-6.4,2.8-6.4,6.4l-0.9,8.5c-0.7,0-1.4,0.6-1.4,1.3v0.5
				c0,0.7,0.7,0.5,1.5,0.5h14.3c0.7,0,2.2,0.2,2.2-0.5V589C1097.9,588.2,1096.8,587.6,1096.1,587.6z"/>
			<rect x="1084.9" y="582" class="st21" width="6" height="2"/>
			<path class="st16" d="M1091.3,569.6c0-1.1-0.9-2.1-2.1-2.1c-0.9,0-1.6,0.5-1.9,1.3c-1.1-0.9-2.9,0.4-2.3,1.9
				c0.3,0.8,1.1,1,1.8,0.8c0.1,0.2,0.1,0.3,0.2,0.5c-0.1,0.1-0.1,0.3-0.2,0.4c-0.3,0.6-0.2,1.1-0.2,1.8c0.1,1.2,0.4,2.7,2,2.7
				c1.5,0,1.9-1.6,1.6-2.8c0.1-0.8-0.2-1.7-0.6-2.4C1090.6,571.5,1091.3,570.6,1091.3,569.6z"/>
			<path class="st3" d="M1089.9,572.5c0,0.3-0.2,0.5-0.5,0.5h-3c-0.3,0-0.5-0.2-0.5-0.5l0,0c0-0.3,0.2-0.5,0.5-0.5h3
				C1089.7,572,1089.9,572.2,1089.9,572.5L1089.9,572.5z"/>
		</g>
		<g>
			<path class="st35" d="M1061.9,570.6c0,5.7-4.6,10.4-10.4,10.4h-0.2c-5.7,0-10.4-4.6-10.4-10.4v-16.2c0-5.7,4.6-10.4,10.4-10.4
				h0.2c5.7,0,10.4,4.6,10.4,10.4V570.6z"/>
			<rect x="1039.9" y="565" class="st21" width="24" height="25"/>
			<rect x="1037.9" y="585" class="st16" width="28" height="5"/>
			<rect x="1037.9" y="564" class="st16" width="28" height="5"/>
			<rect x="1039.9" y="576" class="st19" width="7" height="3"/>
			<rect x="1056.9" y="571" class="st19" width="7" height="3"/>
			<rect x="1051.9" y="579" class="st19" width="7" height="3"/>
		</g>
		<path class="st3" d="M924.2,472.3c0-0.1,0-0.2,0-0.3c0-2.8-2-4.8-4.6-5.3c-0.3-2.7-2.6-4.9-5.4-4.9c-0.8,0-1.5,0.2-2.2,0.5
			c-0.3-2.7-2.3-5.2-5.9-5.2c-5,0-6.8,5.5-4.9,9c-0.5-0.2-1-0.3-1.6-0.3c-2.5,0-4.6,2.1-4.6,4.6c0,0.7,0.2,1.4,0.5,2H924.2z"/>
		<path class="st3" d="M810,477.3c-0.8,0-2.5,0.3-3.5,0.9c-0.8-1-1.8-1.9-3-2.6c-0.5-0.3-0.7-0.5-1.5-0.7v0c0-0.3,0.1-0.7,0-1
			c-0.1-1.4-0.4-2.8-1.1-4c-0.8-1.3-1.8-2.4-3.2-3.2c-3.5-2-8-1.4-10.8,1.4c-2.2,2.2-3.1,5.6-2.3,8.7c0,0.2,0.1,0.3,0.2,0.5
			c-3.1,0.7-5.4,3.5-5.4,6.7h37.7C817,480.6,814.6,477.3,810,477.3z"/>
		<g>
			<g>
				<path class="st36" d="M1033.9,565.8c0,9.5-7.7,17.2-17.2,17.2h-0.5c-9.5,0-17.2-7.7-17.2-17.2v-25.5c0-9.5,7.7-17.2,17.2-17.2
					h0.5c9.5,0,17.2,7.7,17.2,17.2V565.8z"/>
				<path class="st37" d="M1015.4,522.9c-9.4,0.1-17.1,7.8-17.1,17.2v25.1c0,9.5,7.6,17.1,17.1,17.2V522.9z"/>
				<path class="st19" d="M1018.8,590.5v-32.7c0-1.8-1.5-3.3-3.3-3.3c-1.8,0-3.3,1.5-3.3,3.3v32.7H1018.8z"/>
			</g>
			<g>
				<path class="st36" d="M1000.9,565.8c0,9.5-7.7,17.2-17.2,17.2h-0.5c-9.5,0-17.2-7.7-17.2-17.2v-25.5c0-9.5,7.7-17.2,17.2-17.2
					h0.5c9.5,0,17.2,7.7,17.2,17.2V565.8z"/>
				<path class="st37" d="M982.4,522.9c-9.4,0.1-17.1,7.8-17.1,17.2v25.1c0,9.5,7.6,17.1,17.1,17.2V522.9z"/>
				<path class="st19" d="M985.8,590.5v-32.7c0-1.8-1.5-3.3-3.3-3.3c-1.8,0-3.3,1.5-3.3,3.3v32.7H985.8z"/>
			</g>
			<g>
				<path class="st36" d="M967.9,565.8c0,9.5-7.7,17.2-17.2,17.2h-0.5c-9.5,0-17.2-7.7-17.2-17.2v-25.5c0-9.5,7.7-17.2,17.2-17.2
					h0.5c9.5,0,17.2,7.7,17.2,17.2V565.8z"/>
				<path class="st37" d="M949.4,522.9c-9.4,0.1-17.1,7.8-17.1,17.2v25.1c0,9.5,7.6,17.1,17.1,17.2V522.9z"/>
				<path class="st19" d="M952.8,590.5v-32.7c0-1.8-1.5-3.3-3.3-3.3c-1.8,0-3.3,1.5-3.3,3.3v32.7H952.8z"/>
			</g>
			<g>
				<g>
					<circle class="st22" cx="942.9" cy="537.4" r="3.2"/>
				</g>
				<g>
					<circle class="st22" cx="959.9" cy="543.8" r="3.2"/>
				</g>
				<g>
					<circle class="st22" cx="939.9" cy="564.1" r="3.2"/>
				</g>
				<g>
					<circle class="st22" cx="973.6" cy="559.6" r="3.2"/>
				</g>
				<g>
					<circle class="st22" cx="977.9" cy="538.5" r="3.2"/>
				</g>
				<g>
					<circle class="st22" cx="992.7" cy="549" r="3.2"/>
				</g>
				<g>
					<circle class="st22" cx="1006.5" cy="540.6" r="3.2"/>
				</g>
				<g>
					<circle class="st22" cx="1023.4" cy="536.3" r="3.2"/>
				</g>
				<g>
					<circle class="st22" cx="1027.6" cy="562.8" r="3.2"/>
				</g>
				<g>
					<circle class="st22" cx="1005.4" cy="562.8" r="3.2"/>
				</g>
			</g>
		</g>
		<g>
			<polyline class="st5" points="1022.9,591 1022.9,601 1019.9,601 1019.9,592 			"/>
			<polyline class="st5" points="1012.9,591 1012.9,601 1009.9,601 1009.9,592 			"/>
			<path class="st5" d="M1006,590.1c0,0-3.1-2.6-6-0.6c-2.8,2,0.7,7.6,5.8,4.4C1010.8,590.7,1006,590.1,1006,590.1z"/>
			<path class="st3" d="M1009.9,584.6c0.8,0,1.4,0.1,2,0.4c0.2-2.4,1.9-4.6,5-4.6c3.2,0,4.8,2.3,5,4.7c0.2,0,0.5-0.1,0.7-0.1
				c2.7,0,5,2.3,5,5s-2.3,5-5,5c-0.9,0-1.7-0.2-2.4-0.7c-0.6,1.8-2.1,3.4-4.6,3.4c-2.3,0-3.8-1.3-4.5-3c-0.4,0.1-0.8,0.1-1.3,0.1
				C1003.2,594.9,1003.2,584.6,1009.9,584.6z"/>
			<path class="st3" d="M1007.5,589c0,0-10.1,0.5-8.3-3.7C1001.1,581.2,1007.5,589,1007.5,589z"/>
		</g>
		<g>
			<polyline class="st5" points="938.9,589 938.9,599 941.9,599 941.9,590 			"/>
			<polyline class="st5" points="948.9,589 948.9,599 951.9,599 951.9,590 			"/>
			<path class="st5" d="M955.8,588.1c0,0,3.1-2.6,6-0.6c2.8,2-0.7,7.6-5.8,4.4C951,588.7,955.8,588.1,955.8,588.1z"/>
			<path class="st3" d="M951.9,582.6c-0.8,0-1.4,0.1-2,0.4c-0.2-2.4-1.9-4.6-5-4.6c-3.2,0-4.8,2.3-5,4.7c-0.2,0-0.5-0.1-0.7-0.1
				c-2.7,0-5,2.3-5,5s2.3,5,5,5c0.9,0,1.7-0.2,2.4-0.7c0.6,1.8,2.1,3.4,4.6,3.4c2.3,0,3.8-1.3,4.5-3c0.4,0.1,0.8,0.1,1.3,0.1
				C958.6,592.9,958.6,582.6,951.9,582.6z"/>
			<path class="st3" d="M954.2,587c0,0,10.1,0.5,8.3-3.7C960.7,579.2,954.2,587,954.2,587z"/>
		</g>
		<g>
			<polyline class="st5" points="775.9,591 775.9,601 778.9,601 778.9,592 			"/>
			<polyline class="st5" points="785.9,591 785.9,601 788.9,601 788.9,592 			"/>
			<path class="st5" d="M792.8,590.1c0,0,3.1-2.6,6-0.6c2.8,2-0.7,7.6-5.8,4.4C788,590.7,792.8,590.1,792.8,590.1z"/>
			<path class="st3" d="M788.9,584.6c-0.8,0-1.4,0.1-2,0.4c-0.2-2.4-1.9-4.6-5-4.6c-3.2,0-4.8,2.3-5,4.7c-0.2,0-0.5-0.1-0.7-0.1
				c-2.7,0-5,2.3-5,5s2.3,5,5,5c0.9,0,1.7-0.2,2.4-0.7c0.6,1.8,2.1,3.4,4.6,3.4c2.3,0,3.8-1.3,4.5-3c0.4,0.1,0.8,0.1,1.3,0.1
				C795.6,594.9,795.6,584.6,788.9,584.6z"/>
			<path class="st3" d="M791.2,589c0,0,10.1,0.5,8.3-3.7C797.7,581.2,791.2,589,791.2,589z"/>
		</g>
	</g>
</g>
<g id="Calque_3">
	<polyline class="st3" points="313.9,115 317.9,115 346.9,115 	"/>
	<path class="st38" d="M33.7,52.6"/>
	<path class="st38" d="M31.1,57.3"/>
	<linearGradient id="SVGID_3_" gradientUnits="userSpaceOnUse" x1="26.2988" y1="2.8915" x2="26.2988" y2="32">
		<stop  offset="0" style="stop-color:#7FD2D6"/>
		<stop  offset="1" style="stop-color:#5A7684"/>
	</linearGradient>
	<path class="st39" d="M44.4,2.9H8.2C5.3,2.9,3,5.2,3,8.2V32h46.7V8.2C49.6,5.2,47.3,2.9,44.4,2.9z"/>
	<g class="st40">
		<path class="st41" d="M31.4,14.8c0,0.2-0.2,0.4-0.2,0.7c0,0.2,0.1,0.3,0.2,0.3c0.2,0.1,0.3,0.2,0.5,0.3c0.3,0.3,0.6,0.5,0.9,0.8
			c0.5,0.4,1,0.6,1.6,0.7c0.2,0,0.3-0.1,0.3-0.3c0,0,0,0,0,0c-0.3-0.8-0.4-1.6-0.3-2.5c0.1-0.9,0.2-1.9,0.5-2.7c0,0,0,0,0-0.1l0,0
			c-0.1-0.1-0.2-0.1-0.3-0.1c-1.2,0.4-2.2,1.2-3.2,2c0,0,0,0-0.1,0.1c0,0,0,0.1,0,0.1C31.4,14.3,31.5,14.6,31.4,14.8z"/>
		<path class="st41" d="M32.4,13.8c0,0.2,0,0.4-0.1,0.6c0,0.2-0.1,0.3-0.1,0.5c-0.1,0.2-0.1,0.4-0.2,0.6c0,0.1-0.1,0.3-0.2,0.4
			c-0.1,0-0.4-0.1-0.5-0.2c-0.1,0-0.3,0-0.4-0.1c-0.5,0-1,0-1.5,0.2c-0.2,0.1-0.4,0.2-0.6,0.3c-1.7,1.1-3.9,1.3-5.9,1.1
			c-1.1-0.1-2.2-0.4-3.2-0.8c-0.5-0.2-1-0.3-1.4-0.6c-0.2-0.1-0.5-0.2-0.6-0.4c-0.2-0.4,0.3-0.3,0.5-0.3c0.1,0,0.1,0,0.1,0
			c-0.1-0.1-0.3-0.1-0.4-0.2c-0.1,0-0.1-0.1-0.1-0.2c0-0.2,0.4-0.4,0.5-0.5c0.7-0.5,1.3-1.1,2-1.6c0.4-0.2,0.8-0.4,1.3-0.6
			c0.3-0.1,0.7-0.2,1-0.3c0.8-0.2,1.6-0.2,2.4,0c1,0.2,1.9,0.4,2.8,0.8c0.6,0.3,1.3,0.6,1.9,1c0.1,0.1,0.2,0.1,0.3,0.1
			c0.3,0.1,0.8,0.1,1.1,0.1c0.3,0,0.6-0.1,0.8-0.2c0.1,0,0.1-0.1,0.2-0.1C32.4,13.5,32.4,13.6,32.4,13.8z"/>
		<path class="st41" d="M32.4,13.8c0,0.2,0,0.4-0.1,0.6c0,0.2-0.1,0.3-0.1,0.5c-0.4,0.2-0.9,0.2-1.3,0.2c-0.9,0.1-1.8,0-2.7-0.2
			c-0.9-0.2-1.8-0.6-2.7-0.7c-0.6-0.1-1.1-0.1-1.7-0.2c-0.3-0.1-0.5-0.1-0.8-0.1c-0.9,0-1.6,0.7-2.4,1c-0.8,0.4-1.6,0.4-2.4,0.2
			c0.1,0,0.1,0,0.1,0c-0.1-0.1-0.3-0.1-0.4-0.2c-0.1,0-0.1-0.1-0.1-0.2c0-0.2,0.4-0.4,0.5-0.5c0.7-0.5,1.3-1.1,2-1.6
			c0.4-0.2,0.8-0.4,1.3-0.6c0.3-0.1,0.7-0.2,1-0.3c0.8-0.2,1.6-0.2,2.4,0c1,0.2,1.9,0.4,2.8,0.8c0.6,0.3,1.3,0.6,1.9,1
			c0.1,0.1,0.2,0.1,0.3,0.1c0.3,0.1,0.8,0.1,1.1,0.1c0.3,0,0.6-0.1,0.8-0.2c0.1,0,0.1-0.1,0.2-0.1C32.4,13.5,32.4,13.6,32.4,13.8z"
			/>
		<path class="st41" d="M32.4,13.8c0,0.2,0,0.4-0.1,0.6c-0.1,0-0.1,0.1-0.2,0.1c-0.5,0.2-1,0-1.5,0c-0.5,0-1-0.1-1.5-0.1
			c-1.1-0.1-2.2-0.3-3.2-0.7c-0.3-0.1-0.6-0.2-0.8-0.3c-0.7-0.2-1.3-0.3-2-0.3c-0.3,0-0.6,0-0.9,0c-0.2,0-0.5,0-0.7,0
			c-0.2,0-0.4,0.1-0.6,0.2c-0.3,0.3-0.3,0.7-0.5,1c-0.1,0.1-0.2,0.2-0.3,0.3c-0.4,0.2-0.8,0.3-1.3,0.3c-0.2,0-0.4,0-0.5-0.1
			c-0.1,0-0.3,0-0.4-0.1c0,0,0,0,0,0c0-0.2,0.4-0.4,0.5-0.5c0.7-0.5,1.3-1.1,2-1.6c0.4-0.2,0.8-0.4,1.3-0.6c0.3-0.1,0.7-0.2,1-0.3
			c0.8-0.2,1.6-0.2,2.4,0c1,0.2,1.9,0.4,2.8,0.8c0.6,0.3,1.3,0.6,1.9,1c0.1,0.1,0.2,0.1,0.3,0.1c0.3,0.1,0.8,0.1,1.1,0.1
			c0.3,0,0.6-0.1,0.8-0.2c0.1,0,0.1-0.1,0.2-0.1C32.4,13.5,32.4,13.6,32.4,13.8z"/>
		<path class="st41" d="M23.7,14.9c0.2,0,0.4-0.1,0.6-0.1c0.2-0.1,0.4-0.1,0.7-0.1c0.7,0,1.5,0,2.2,0.2c-0.6,0.3-1.2,0.6-1.7,1.1
			c-0.2,0.2-0.4,0.3-0.6,0.5c-0.5,0.3-1.1,0.2-1.7,0c0.2-0.1,0.3-0.4,0.2-0.6c-0.1-0.1-0.2-0.2-0.4-0.3c-0.1,0-0.3,0-0.2-0.2
			c0.1-0.2,0.4-0.3,0.6-0.3C23.4,15,23.6,15,23.7,14.9z"/>
		<circle class="st41" cx="19.9" cy="13.9" r="0.2"/>
	</g>
	<g class="st40">
		<path class="st41" d="M30,21c0,0.1,0.1,0.3,0.1,0.4c0,0.1-0.1,0.1-0.1,0.2c-0.1,0-0.2,0.1-0.3,0.2c-0.2,0.1-0.3,0.3-0.5,0.5
			c-0.3,0.2-0.6,0.4-1,0.4c-0.1,0-0.2-0.1-0.2-0.2c0,0,0,0,0,0c0.2-0.5,0.2-1,0.2-1.5c0-0.6-0.1-1.1-0.3-1.6c0,0,0,0,0,0l0,0
			c0,0,0.1-0.1,0.2,0c0.7,0.3,1.3,0.7,1.9,1.2c0,0,0,0,0,0c0,0,0,0.1,0,0.1C30,20.7,30,20.8,30,21z"/>
		<path class="st41" d="M29.4,20.4c0,0.1,0,0.2,0,0.4c0,0.1,0,0.2,0.1,0.3c0,0.1,0.1,0.2,0.1,0.3c0,0.1,0.1,0.2,0.1,0.2
			c0.1,0,0.2-0.1,0.3-0.1c0.1,0,0.2,0,0.3,0c0.3,0,0.6,0,0.9,0.1c0.1,0.1,0.2,0.1,0.3,0.2c1,0.6,2.3,0.8,3.5,0.6
			c0.6-0.1,1.3-0.2,1.9-0.5c0.3-0.1,0.6-0.2,0.8-0.3c0.1-0.1,0.3-0.1,0.4-0.2c0.1-0.2-0.2-0.2-0.3-0.2c0,0-0.1,0-0.1,0
			c0.1,0,0.2-0.1,0.2-0.1c0.1,0,0.1-0.1,0.1-0.1c0-0.1-0.2-0.2-0.3-0.3c-0.4-0.3-0.8-0.7-1.2-0.9c-0.2-0.1-0.5-0.2-0.8-0.3
			c-0.2-0.1-0.4-0.1-0.6-0.2c-0.5-0.1-0.9-0.1-1.4,0c-0.6,0.1-1.1,0.2-1.7,0.5c-0.4,0.2-0.7,0.4-1.1,0.6c-0.1,0-0.1,0.1-0.2,0.1
			c-0.2,0.1-0.5,0.1-0.7,0.1c-0.2,0-0.4-0.1-0.5-0.1c0,0-0.1-0.1-0.1-0.1C29.5,20.2,29.4,20.3,29.4,20.4z"/>
		<path class="st41" d="M29.4,20.4c0,0.1,0,0.2,0,0.4c0,0.1,0,0.2,0.1,0.3c0.2,0.1,0.5,0.1,0.8,0.1c0.5,0,1.1,0,1.6-0.1
			c0.5-0.1,1.1-0.4,1.6-0.4c0.3,0,0.7,0,1-0.1c0.2,0,0.3-0.1,0.5-0.1c0.5,0,0.9,0.4,1.4,0.6c0.4,0.2,1,0.3,1.4,0.1c0,0-0.1,0-0.1,0
			c0.1,0,0.2-0.1,0.2-0.1c0.1,0,0.1-0.1,0.1-0.1c0-0.1-0.2-0.2-0.3-0.3c-0.4-0.3-0.8-0.7-1.2-0.9c-0.2-0.1-0.5-0.2-0.8-0.3
			c-0.2-0.1-0.4-0.1-0.6-0.2c-0.5-0.1-0.9-0.1-1.4,0c-0.6,0.1-1.1,0.2-1.7,0.5c-0.4,0.2-0.7,0.4-1.1,0.6c-0.1,0-0.1,0.1-0.2,0.1
			c-0.2,0.1-0.5,0.1-0.7,0.1c-0.2,0-0.4-0.1-0.5-0.1c0,0-0.1-0.1-0.1-0.1C29.5,20.2,29.4,20.3,29.4,20.4z"/>
		<path class="st41" d="M29.4,20.4c0,0.1,0,0.2,0,0.4c0,0,0.1,0,0.1,0.1c0.3,0.1,0.6,0,0.9,0c0.3,0,0.6,0,0.9-0.1
			c0.6-0.1,1.3-0.2,1.9-0.4c0.2-0.1,0.3-0.1,0.5-0.2c0.4-0.1,0.8-0.2,1.2-0.2c0.2,0,0.4,0,0.5,0c0.1,0,0.3,0,0.4,0
			c0.1,0,0.3,0.1,0.4,0.1c0.2,0.2,0.2,0.4,0.3,0.6c0.1,0.1,0.1,0.1,0.2,0.1c0.2,0.1,0.5,0.2,0.8,0.2c0.1,0,0.2,0,0.3,0
			c0.1,0,0.2,0,0.2-0.1c0,0,0,0,0,0c0-0.1-0.2-0.2-0.3-0.3c-0.4-0.3-0.8-0.7-1.2-0.9c-0.2-0.1-0.5-0.2-0.8-0.3
			c-0.2-0.1-0.4-0.1-0.6-0.2c-0.5-0.1-0.9-0.1-1.4,0c-0.6,0.1-1.1,0.2-1.7,0.5c-0.4,0.2-0.7,0.4-1.1,0.6c-0.1,0-0.1,0.1-0.2,0.1
			c-0.2,0.1-0.5,0.1-0.7,0.1c-0.2,0-0.4-0.1-0.5-0.1c0,0-0.1-0.1-0.1-0.1C29.5,20.2,29.4,20.3,29.4,20.4z"/>
		<path class="st41" d="M34.6,21.1c-0.1,0-0.2,0-0.3-0.1c-0.1,0-0.3-0.1-0.4-0.1c-0.4,0-0.9,0-1.3,0.1c0.4,0.2,0.7,0.4,1,0.6
			c0.1,0.1,0.2,0.2,0.4,0.3c0.3,0.2,0.7,0.1,1,0c-0.1-0.1-0.2-0.2-0.1-0.4c0-0.1,0.1-0.1,0.2-0.2c0.1,0,0.2,0,0.1-0.1
			c0-0.1-0.2-0.1-0.3-0.2C34.8,21.1,34.7,21.1,34.6,21.1z"/>
		<circle class="st41" cx="36.9" cy="20.5" r="0.1"/>
	</g>
	<path class="st38" d="M44.3,49.3H8.3c-3,0-5.4-2.4-5.4-5.4V32h46.7v11.9C49.6,46.9,47.2,49.3,44.3,49.3z"/>
	<g>
		<ellipse class="st42" cx="23.5" cy="44.6" rx="1.1" ry="1.1"/>
		<ellipse class="st42" cx="19" cy="43.1" rx="0.7" ry="0.8"/>
		<ellipse class="st42" cx="9.9" cy="42.5" rx="1.5" ry="1.5"/>
		<ellipse class="st42" cx="12.9" cy="41.4" rx="1.1" ry="1.1"/>
		<ellipse class="st42" cx="35.9" cy="41.8" rx="0.7" ry="1"/>
		<ellipse class="st42" cx="40.2" cy="38.6" rx="2" ry="2"/>
	</g>
	<polygon class="st43" points="19.8,32 29.3,32 26.9,36.2 29,39.5 28.3,44 28.9,49.4 25.8,43.9 24,39.3 19.9,36 	"/>
</g>
</svg>
