<?xml version="1.0" encoding="utf-8"?>
<!-- Generator: Adobe Illustrator 20.1.0, SVG Export Plug-In . SVG Version: 6.00 Build 0)  -->
<svg version="1.1" xmlns="http://www.w3.org/2000/svg" xmlns:xlink="http://www.w3.org/1999/xlink" x="0px" y="0px"
	 viewBox="0 0 211.5 269.9" style="enable-background:new 0 0 211.5 269.9;" xml:space="preserve">
<style type="text/css">
	.st0{fill:#A95E26;}
	.st1{fill:url(#SVGID_1_);}
	.st2{fill:url(#SVGID_2_);}
	.st3{fill:url(#SVGID_3_);}
	.st4{fill:#403622;}
	.st5{fill:#F27549;}
	.st6{fill:#194275;}
	.st7{fill:#F7F8F8;}
	.st8{fill:#FEE92C;}
	.st9{fill:#1B569D;}
	.st10{fill:#EF3D23;}
</style>
<g id="Layer_2">
</g>
<g id="Layer_1">
	<g>
		<g>
			<path class="st0" d="M169.5,128.7c1.6,1.1,3.4-1,2.2-2.5c-4.7-5.8-4.5-13.7-12.5-23.4c-7.5-9.1-18.2-15-23.8-17.7
				c-1.1-0.6-2.3-1.2-3.5-1.8c1.8-1.8,1.1-4.1,1.1-4.1c-2.6,4.3-10.1-1.8-16.6-2.4c-7.3-0.7-10-0.1-10.8,0.1
				c-0.1-0.1-0.1-0.1-0.2-0.1c-0.4-2.4,2.1-5.1,2.1-5.1c-3.7,1.1-4.9,3.4-5.2,4.5c-0.4-1.1-1.5-3.4-5.2-4.5c0,0,2.5,2.7,2,5.2
				c-0.1,0-0.2,0-0.4,0c-0.9-0.2-3.8-0.7-10.6-0.1c-6.5,0.6-14,6.7-16.6,2.4c0,0-0.8,2.4,1.2,4.2c-0.3,0.1-0.6,0.3-0.9,0.4
				c-3.7,1.6-17.4,7.9-26.5,18.9c-10.5,12.8-18.7,15-18.7,28.2c0,2.2,2.8,1.4,8.5-2.4l0.5-0.4c-1.3,5.2-2,10.6-2,16.2
				c0,9,1.8,17.6,5.1,25.5l-0.1-0.1c0,0,3.4,7.1,3.9,13.2c0,0,1.1-0.9,1.9-2.3c12.2,18.8,33.6,31.3,58,31.3
				c24.2,0,45.5-12.3,57.7-30.9c0.7,1.2,1.6,1.8,1.6,1.8c0.2-2.3,0.7-4.7,1.4-6.9c5.1-9.4,8-20.2,8-31.6c0-5.5-0.7-10.8-1.9-15.9
				l0.1,0.1C169.4,128.6,169.5,128.7,169.5,128.7z"/>
			<linearGradient id="SVGID_1_" gradientUnits="userSpaceOnUse" x1="28.6131" y1="160.8304" x2="53.7491" y2="160.8304">
				<stop  offset="0" style="stop-color:#FFE3BA"/>
				<stop  offset="1" style="stop-color:#E6BD7E"/>
			</linearGradient>
			<ellipse class="st1" cx="41.2" cy="160.8" rx="12.6" ry="13.6"/>
			<linearGradient id="SVGID_2_" gradientUnits="userSpaceOnUse" x1="154.8608" y1="160.8304" x2="179.9948" y2="160.8304">
				<stop  offset="0" style="stop-color:#FFE3BA"/>
				<stop  offset="1" style="stop-color:#E6BD7E"/>
			</linearGradient>
			<ellipse class="st2" cx="167.4" cy="160.8" rx="12.6" ry="13.6"/>
			<linearGradient id="SVGID_3_" gradientUnits="userSpaceOnUse" x1="72.2446" y1="101.415" x2="133.897" y2="208.2001">
				<stop  offset="0" style="stop-color:#FFE3BA"/>
				<stop  offset="1" style="stop-color:#E6BD7E"/>
			</linearGradient>
			<circle class="st3" cx="103.1" cy="154.8" r="61.6"/>
			<path class="st0" d="M102.3,137.3c0,0,9.8-9.6,11-13.1c0.4-1.1,2-0.9,2.2,0.3c0.1,0.7,0.1,1.4,0.1,2.1c0,1.1,1.5,1.5,2.1,0.6
				c2.7-4.5,2.5-8.3,1.9-10.6c-0.2-0.9,0.7-1.7,1.6-1.3c3.1,1.4,8.1,4.1,10.3,7c0.6,0.7,1.7,0.5,2-0.4c0.1-0.3,0.2-0.7,0.2-1
				c0.2-1,1.5-1.3,2-0.4c2.7,4.2,7.3,10.1,12.6,11.8c0.9,0.3,1.7-0.6,1.4-1.4c0-0.1,0-0.1-0.1-0.2c-0.4-1.3,1.4-2.1,2-0.9l9.3,16.8
				c0.1,0.1,0.1,0.3,0.1,0.4l0.7,7.1c0.1,1.3,2,1.4,2.2,0.1l2.9-16.6c0-0.1,0-0.2,0-0.4c-0.6-3.3-9.3-48.4-61.8-48.4h-3.9
				c-52.6,0-61.3,45.1-61.8,48.4c0,0.1,0,0.2,0,0.4l2.9,16.8c0.2,1.3,2.1,1.2,2.2-0.1l0.7-7.2c0-0.2,0.1-0.3,0.1-0.4l9.3-16.7
				c0.7-1.2,2.5-0.4,2,0.9c0,0,0,0.1,0,0.1c-0.3,0.9,0.5,1.7,1.4,1.4c5.2-1.7,9.8-7.5,12.6-11.8c0.6-0.9,1.9-0.6,2,0.4
				c0.1,0.4,0.1,0.7,0.2,1c0.2,0.9,1.4,1.1,2,0.4c2.2-2.9,7.2-5.5,10.3-7c0.9-0.4,1.8,0.4,1.6,1.3c-0.6,2.3-0.9,6,1.7,10.4
				c0.6,1,2.1,0.6,2.1-0.6c0-0.8,0-1.7,0.2-2.6c0.1-1.2,1.7-1.4,2.2-0.3C94.1,126.5,96.7,131.5,102.3,137.3L102.3,137.3z"/>
			<g>
				<g>
					<circle class="st4" cx="72.8" cy="158.3" r="7.3"/>
					<circle class="st4" cx="133.4" cy="158.3" r="7.3"/>
				</g>
				<path class="st5" d="M84.3,183.7c0,0.1,0,0.1,0,0.2c0,9.2,8.1,16.7,18.1,16.7c10,0,18.1-7.5,18.1-16.7c0-0.1,0-0.1,0-0.2H84.3z"
					/>
			</g>
			<path class="st0" d="M121.6,141.5c0,0,4.6-4.9,11.6-4.9c7,0,12.2,6.4,12.2,6.4S133.4,137.5,121.6,141.5z"/>
			<path class="st0" d="M85.7,141.5c0,0-4.6-4.9-11.6-4.9c-7,0-12.2,6.4-12.2,6.4S73.8,137.5,85.7,141.5z"/>
			<g>
				<path class="st6" d="M153.2,95c0,0,11.1,15-52.5,15h4.3c-63.6,0-52.5-15-52.5-15s2-13.2,50.5-13.2C151.5,81.8,153.2,95,153.2,95
					z"/>
				<path class="st7" d="M162.1,82.5c0,0,14.9-17.6-5.4-24.1c-20.2-6.5-29.6-16.7-53.8-16.7h-0.3c-24.2,0-33.5,10.2-53.8,16.7
					c-20.2,6.5-5.4,24.8-5.4,24.8L162.1,82.5z"/>
				<path class="st8" d="M106.1,68.4c-1,0-2,0-3.1,0.1c-1.5-0.1-2.2-0.1-3.2-0.1c-26.4,0-44.7,3.4-59.2,11.4l11.5,16.6
					c9.2-4.6,27.2-7.8,47.7-7.8c1,0,1.7,0,3.2,0c1,0,2,0,3.1,0c20.5,0,38.4,3.1,47.6,7.8l11.5-16.6
					C150.7,71.8,132.5,68.4,106.1,68.4z"/>
				<path class="st9" d="M106.9,82.8c-1.3,0-2.6,0-3.9,0c-1.9,0-2.7,0-4,0c-20.6,0-39.2,2.5-51.9,6.5l5,7.2
					c9.2-4.6,27.2-7.8,47.7-7.8c1,0,1.7,0,3.2,0c1,0,2,0,3.1,0c20.5,0,38.4,3.1,47.6,7.8l5-7.2C146.1,85.3,127.6,82.8,106.9,82.8z"
					/>
				<path class="st10" d="M110.6,57.2c-0.4-0.9-1.7-0.9-2.2,0c-0.5,0.9-1,1.5-1,1.5l1.1,0.1c0,0-0.8,2-2.5,2.1
					c-1.7,0.1-2-1.5-2.2-2.4c-0.1-0.5-0.1-3.3-0.2-6.2c0-0.7,0.5-1.2,1.2-1.2h1.6c0.4,0,0.8-0.2,1-0.5l0.4-0.6H105
					c-0.7,0-1.3-0.6-1.3-1.3c0,0,0,0,0,0c0-0.4,0.2-0.7,0.4-1c0.4-0.4,0.7-1.1,0.7-1.8c0-1.2-0.9-2.2-2.1-2.2s-2.1,0.9-2.1,2.1
					c0,0.6,0.3,1.5,0.7,1.9c0.2,0.3,0.4,0.6,0.4,0.9c0,0,0,0,0,0c0,0.7-0.6,1.3-1.3,1.3h-2.7l0.4,0.6c0.2,0.3,0.6,0.5,1,0.5h1.4
					c0.7,0,1.2,0.6,1.2,1.2c0,2.9-0.1,5.7-0.2,6.2c-0.1,0.8-0.5,2.5-2.2,2.5c-1.7-0.1-2.5-2.2-2.5-2.2l1.1-0.1c0,0-0.4-0.3-0.8-1
					c-0.5-0.9-1.9-0.7-2.2,0.3c-0.3,0.8-0.5,1.7-0.5,2.7l1.4-1.5c-0.1,0.2,0.4,1.1,0.4,1.3c0.3,0.7,1.3,1.8,1.2,1.8
					c0.3,0.3,0.8,0.5,1.1,0.7c0.9,0.5,1.8,0.9,2.6,1.5c0.6,0.4,1.4,0.9,1.4,1.6c0,0,0-0.1,0-0.1c0.3,0.1,0.7,0.1,0.9-0.1
					c0.1-0.1,0.2-0.4,0.3-0.6c0.1-0.1,0.2-0.3,0.3-0.4c0.3-0.3,0.6-0.5,1-0.7c0.7-0.5,1.5-0.9,2.3-1.4c0.4-0.2,0.7-0.4,1-0.7
					c1.4-1.1,1.7-3,1.7-3l1,0.7C111.2,58.8,111,58,110.6,57.2z M102.7,44.6c0.6,0,1.1,0.5,1.1,1.1c0,0.6-0.5,1.1-1.1,1.1
					s-1.1-0.5-1.1-1.1C101.6,45.1,102.1,44.6,102.7,44.6z"/>
			</g>
		</g>
	</g>
</g>
</svg>
