<?xml version="1.0" encoding="utf-8"?>
<!-- Generator: Adobe Illustrator 20.1.0, SVG Export Plug-In . SVG Version: 6.00 Build 0)  -->
<svg version="1.1" id="Layer_1" xmlns="http://www.w3.org/2000/svg" xmlns:xlink="http://www.w3.org/1999/xlink" x="0px" y="0px"
	 viewBox="0 0 315.7 398.6" style="enable-background:new 0 0 315.7 398.6;" xml:space="preserve">
<style type="text/css">
	.st0{opacity:0.6;}
	.st1{fill:#BEE4FB;}
	.st2{fill:#9FCFFF;}
</style>
<g>
	<g class="st0">
		<polygon class="st1" points="82.5,76.2 77.4,159.9 112.6,159.9 105.2,76.2 		"/>
		<polygon class="st2" points="105.2,76.2 112.6,159.9 131.6,159.9 129.1,36.4 		"/>
		<polygon class="st1" points="129.1,36.4 131.6,159.9 174.5,159.9 195.9,90 		"/>
		<polygon class="st1" points="23.5,159.9 48.7,159.9 38.4,114.2 		"/>
		<polygon class="st2" points="38.4,114.2 48.7,159.9 77.4,159.9 82.5,76.2 		"/>
		<polygon class="st2" points="266.4,68.5 266.8,159.9 293.3,159.9 299.2,126.8 		"/>
		<polygon class="st2" points="195.9,90 174.5,159.9 221.9,159.9 223.6,64.8 		"/>
		<polygon class="st1" points="223.6,64.8 221.9,159.9 266.8,159.9 266.4,68.5 		"/>
	</g>
</g>
<g class="st0">
	<g class="st0">
		<polygon class="st1" points="82.5,351.4 77.4,159.9 112.6,159.9 105.2,351.4 		"/>
		<polygon class="st2" points="105.2,351.4 112.6,159.9 131.6,159.9 166.4,378.4 		"/>
		<polygon class="st1" points="166.4,378.4 131.6,160.1 174.5,160.1 181.8,309.7 		"/>
		<polygon class="st1" points="23.5,159.9 48.7,159.9 38.4,264.3 		"/>
		<polygon class="st2" points="38.4,264.3 48.7,159.9 77.4,159.9 82.5,351.4 		"/>
		<polygon class="st2" points="244.4,293.3 266.8,159.9 293.3,159.9 299.2,235.4 		"/>
		<polygon class="st2" points="174.5,290.1 174.5,159.9 221.9,159.9 166.4,378.4 		"/>
		<polygon class="st1" points="166.4,378.4 221.9,159.9 266.8,159.9 244.4,293.3 		"/>
	</g>
</g>
</svg>
