<?xml version="1.0" encoding="utf-8"?>
<!-- Generator: Adobe Illustrator 20.1.0, SVG Export Plug-In . SVG Version: 6.00 Build 0)  -->
<svg version="1.1" xmlns="http://www.w3.org/2000/svg" xmlns:xlink="http://www.w3.org/1999/xlink" x="0px" y="0px"
	 viewBox="0 0 247.7 246.7" style="enable-background:new 0 0 247.7 246.7;" xml:space="preserve">
<style type="text/css">
	.st0{fill:#4F8DCB;}
	.st1{fill:#325E89;}
	.st2{fill:#BFA266;}
	.st3{fill:#2C2C2C;}
	.st4{fill:#DFD8BE;}
	.st5{fill:#201F27;}
	.st6{fill:#FFFFFF;}
	.st7{opacity:0.56;fill:#E1D7A9;}
	.st8{fill:#CCA330;}
	.st9{fill:#DDCFA2;}
	.st10{fill:#60624D;}
	.st11{fill:#231F20;}
	.st12{fill:#BFC1C3;}
	.st13{fill:#13478B;}
	.st14{fill:#101810;}
	.st15{fill:#093064;}
	.st16{fill:#233855;}
	.st17{fill:#D7D5C8;}
	.st18{fill:#ECCF71;}
	.st19{fill:#17488A;}
	.st20{fill:#E47F70;}
	.st21{fill:#F3BBBE;}
	.st22{fill:#D76474;}
	.st23{fill:#BA262E;}
	.st24{fill:#2E2D28;}
	.st25{fill:#63635E;}
	.st26{fill:none;stroke:#D2CBC1;stroke-miterlimit:10;}
	.st27{fill:#94ABB3;}
	.st28{fill:#B1B3B6;}
	.st29{fill:#212121;}
	.st30{fill:#1C1C1C;}
	.st31{fill:#372C18;}
	.st32{fill:#BAB08C;}
	.st33{fill:#9C8829;}
	.st34{fill:#4C412B;}
	.st35{fill:#9A8729;}
	.st36{fill:#7ABAE6;}
</style>
<g id="Background">
	<rect x="345.5" y="-357" class="st0" width="800" height="800"/>
</g>
<g id="Objects">
	<g>
		<g>
			<g>
				
					<text transform="matrix(1 0 0 1 461.1221 -209.8824)" class="st1" style="font-family:'GreatVibes-Regular'; font-size:136.2059px;">Sea</text>
			</g>
			<g>
				<text transform="matrix(1 0 0 1 468.0655 -151.8965)" class="st1" style="font-family:'Asap-Bold'; font-size:46.624px;">Creatures</text>
			</g>
		</g>
	</g>
	<g>
		<g>
			<path class="st2" d="M-413.9-231.3c-1.5-1.5-3-3-4.4-4.6c-1-1.1-3.1-3.1-3-4.7c0-0.4,0.2-0.7,0.3-1c0.1-0.3,0.3-0.6,0.4-0.8
				c0.6-1.1,1.4-1.5,2.3-2.2c1.2-1,2.4-1.9,3.6-2.8c2.5-1.8,5.1-3.3,7.8-4.8c2.7-1.4,5.5-2.7,8.4-3.9c1.4-0.6,2.9-1.2,4.3-1.8
				c0.7-0.3,1.5-0.6,2.2-0.9c0.5-0.2,1.6-0.4,1.9-0.7c-1.5,1.6-0.9,4.2,0.7,5.4c-1,0.7-1.6,1.7-1.1,3c0.4,0.8,1.1,1.5,1.8,2.1
				c-0.5,0.8-1.7,1.3-1.8,2.3c0,1.1,1.5,1.7,2,2.7c-0.8,0.5-1.4,1.3-1.5,2.3c-0.1,1.7,1.2,3,2.8,3.2c-0.7,0.4-1.2,1.3-1.1,2.1
				c0.1,0.8,0.7,1.6,1.5,1.8c-0.6-0.2-0.9,2.1-0.8,2.4c0.3,1,1.7,1.8,2.7,1.9c-1.3,1.1-1.1,2.6-0.6,4c0.2,0.4,3.2,4.9,3.7,4.2
				c-1.4,2.1-0.9,5.3,1.1,6.9c0.5,0.3,1,0.7,1.2,1.2c0.2,0.5,0,1.2,0,1.7c0,2.5,2.8,4.8,3.7,7.1c0.6,1.5,1,3.1,1.2,4.7
				c0.1,0.5,0,4.9,0.1,5c-0.7-0.4-1.4-0.8-2.1-1.2c-10.2-6.2-18.5-15.1-26.9-23.7C-406.8-224.1-410.3-227.7-413.9-231.3z"/>
			<path class="st2" d="M-357.8-174.7c0.8,0.4,1.7,0.9,2.5,0.7c0.2,0,0.3-0.1,0.5,0c0.1,0.1,0.1,0.1,0.1,0.2
				c0.2,0.5,0.3,0.9,0.4,1.4c0,0.2,0.1,0.4-0.1,0.6c-0.1,0.1-0.2,0.1-0.3,0.1c-1.4,0.4-2.8,0.2-4.2-0.2c-1.3-0.5-2.5-1.3-3.6-2.2
				c-0.3-0.3-0.7-0.6-0.8-1C-363.7-177.6-358.5-175.1-357.8-174.7z"/>
			<path class="st2" d="M-354.5-167.7c1,0.8,2,1.8,3.3,1.7c0.1,0.7,0.1,1.5,0,2.2c-2.2-0.4-4.4-1.1-6.4-2.2
				c-0.4-0.2-0.8-0.5-1.2-0.9c-0.8-0.8-1.1-2.5,0.4-2.5C-357.1-169.4-355.5-168.5-354.5-167.7z"/>
			<path class="st2" d="M-347.3-158.5c0.3,0,0.6,0.1,0.7,0.3c0.1,0.1,0.1,0.3,0.1,0.4c0.1,0.9,0.3,1.9,0.4,2.8c-1-0.4-2.1-0.8-3.2-1
				c-0.7-0.2-1.5-0.3-2.2-0.5c-1.6-0.5-4.5-2.8-2.4-4.6c0.9-0.8,1.8,0.1,2.5,0.7C-350.1-159.4-348.8-158.7-347.3-158.5z"/>
			<path class="st2" d="M-342.8-149.7c0.2,0,0.5,0,0.7,0.1c0.2,0.1,0.2,0.3,0.3,0.5c0.4,1.2,0.9,2.3,1.3,3.5c-0.9,0.3-1.8,0-2.6-0.3
				c-0.8-0.4-1.5-0.9-2.3-1.4c-1.2-0.7-6.7-3.5-3.7-5.3c1-0.7,2,0.5,2.7,1.1C-345.3-150.7-344.2-149.7-342.8-149.7z"/>
			<path class="st2" d="M-341.7-143.2c1,0.7,2,1.3,3.1,1.8c0.2,0.1,0.5,0.2,0.7,0.4c0.2,0.2,0.3,0.5,0.3,0.8
				c0.2,0.8,0.4,1.5,0.6,2.3c-0.2,0.1-0.4,0-0.5,0c-1.5-0.4-3.1-0.8-4.5-1.5c-1.4-0.7-2.8-1.7-3.7-3c-0.6-0.8-0.8-2.2,0.5-2.4
				C-344-145-342.6-143.8-341.7-143.2z"/>
			<path class="st2" d="M-333.7-132c0.2,0.1,0.5,0.1,0.6,0.3c0.2,0.2,0.2,0.4,0.2,0.7c0.1,0.5,0.2,0.9,0.2,1.4
				c-1.4-0.2-2.8-0.4-4.2-0.8c-1.3-0.4-5.1-2-2.8-3.7C-337.7-135.5-335.4-132.6-333.7-132z"/>
			<path class="st2" d="M-332.5-127c1.1,0.6,2.2,1.4,3.5,1.3c0,1.1,0.1,2.2,0.2,3.3c-2-0.4-4-1.1-5.9-2c-0.6-0.3-1-0.8-1.6-1.1
				c-0.5-0.3-0.8-0.8-0.9-1.3C-337.2-129.1-333.4-127.6-332.5-127z"/>
			<path class="st2" d="M-330.2-120.3c0.5,0.2,1,0.5,1.4,0.8c1,0.6,2.2,1,3.4,1.1c0.4,0.1,0.8,0.1,1.1,0.4c0.1,0.2,0.2,0.4,0.3,0.5
				c0.3,0.9,0.6,1.8,0.9,2.7c-1,0.3-2.1,0.3-3.2-0.1s-2-0.8-2.9-1.4c-0.8-0.5-1.5-1-2.1-1.7C-332.3-119.2-332.2-121.1-330.2-120.3z"
				/>
			<path class="st2" d="M-324.6-112.2c0.5-0.2,1.1-0.4,1.6-0.6c0.5-0.1,1-0.2,1.5-0.3c0.2,0,0.3,0,0.5,0c0.1,0.1,0.2,0.2,0.2,0.3
				c0.5,1.2,0.4,2,0.1,3.2c0,0.1-0.1,0.2-0.2,0.3c-0.1,0.1-0.2,0.1-0.3,0.1c-0.8,0.1-1.6,0.3-2.4,0.4c-1.1,0.2-2.3,0.4-3.2-0.2
				c-0.3-0.2-0.6-0.4-0.8-0.7c-0.2-0.2-0.3-0.3-0.4-0.5c-0.8-1.8,1.8-1.6,2.8-2C-325-112-324.8-112.1-324.6-112.2z"/>
			<path class="st2" d="M-350.7-193.1c-3.4,1.3-6.4,4-7.2,7.5c-0.4,1.7-0.2,3.5-0.4,5.2c-0.1,0.9-0.4,1.8-1.1,2.3
				c-0.7,0.5-1.7,0.4-2.6,0.2c-0.8-0.2-1.7-0.3-2.5-0.5c-0.8-0.2-1.7-0.4-2.5-0.7c-1-0.3-2-0.6-2.8-1.3c-0.6-0.5-1-1-1.5-1.6
				c-2.2-3.1-4-6.5-5.1-10.1c-0.5-1.6-1.4-3.8-1.2-5.5c0.2-2.2,2.3-1.3,3.8-1.1c2,0.2,4.1,0,6.1-0.2c5.6-0.6,11.2-0.9,16.8-0.5
				c2.2,0.1,4.4,0.4,6.6,0.7c5.4,0.8,10.7,2.2,15.9,3.6l-11.6,0.4C-343.6-194.5-347.3-194.4-350.7-193.1z"/>
			<path class="st3" d="M-364.5-178.4c-0.8-0.2-1.7-0.4-2.5-0.7c-1-0.3-2-0.6-2.8-1.3c-0.6-0.5-1-1-1.5-1.6c-2.2-3.1-4-6.5-5.1-10.1
				c-0.5-1.6-1.4-3.8-1.2-5.5c0.2-2.2,2.3-1.3,3.8-1.1c2,0.2,4.1,0,6.1-0.2c5.6-0.6,11.2-0.9,16.8-0.5c2.2,0.1,4.4,0.4,6.6,0.7
				c-6.8,0.2-13.6,1.6-19.9,4.2c2,0.6,3.9,1.2,5.8,1.8c-3.3,0.2-6.5,1.3-9.3,3.1c1.7,0.9,3.3,1.8,5,2.6c-1.3,1.4-2.9,2.6-4.6,3.4
				c1.3,1.3,2.9,2.3,4.6,2.9C-363.1-179.8-363.7-179-364.5-178.4z"/>
			<path class="st3" d="M-314.8-107.8c4.7-0.9,9-2.4,13.8-3c3.2-0.4,6.2-0.3,9.4-0.4c3.5-0.1,7,0.4,10.5,0.8
				c3.8,0.5,7.7,2.8,11.1,4.4c-11.7,1.9-23.2,5.1-33.7,10.5c-2.5,1.3-4.9,2.7-7,4.4c-6.4,5.1-10.4,12.8-12.6,20.7
				c-1.2,4.1-1.9,8.3-2.6,12.5c-0.3,2.2-0.6,4.3-1,6.5c-0.2,1.4-0.1,4.1-0.9,5.2c-1.3-1.1-1.5-4.2-1.8-5.7c-0.6-2.7-1.1-5.4-1.5-8.1
				c-0.9-6.2-1-12.2,0.1-18.5c1-5.9,2.5-11.7,2.9-17.7c0.3-3.5,0.4-6.2,2.5-9c1.6-2.1,4.2-2.2,6.6-2.3
				C-317.6-107.4-316.2-107.5-314.8-107.8z"/>
			<path class="st2" d="M-387.6-129.4c0,0.1,0,0.1,0.1,0.1c0.1,0.1,0.1,0.1,0.2,0.1c1.1,0.1,2.3,0.1,3.4,0.2
				c-0.4-0.7-0.7-1.4-1.1-2.1c-0.4-0.8-0.9-1.6-1.3-2.5c-0.4-0.7-2.4-4.5-3.1-2.1c-0.2,0.8,0.4,1.9,0.6,2.7
				C-388.5-131.8-388.1-130.6-387.6-129.4z"/>
			<path class="st2" d="M-378.6-124.6c0,0.2,0.1,0.4,0.2,0.5c0.1,0.1,0.3,0.1,0.4,0.1c0.9-0.1,1.9-0.1,2.8-0.2
				c-0.5-0.9-1.2-1.6-1.8-2.5c-0.5-0.7-3.6-8-5-5.3c-0.5,1,1,2.8,1.5,3.6C-379.6-127.2-378.9-126-378.6-124.6z"/>
			<path class="st2" d="M-373.8-127.9c0,0.3,0.2,0.6,0.3,0.9c1.2,2.3,2.9,4.4,3.9,6.8c0,0.1,0.1,0.2,0.2,0.3
				c0.1,0.1,0.3,0.1,0.4,0.1c0.7,0,1.4-0.1,2-0.3c-1.6-1.7-3-3.7-4-5.9c-0.4-0.8-0.7-1.6-1.4-2.2
				C-372.9-128.6-373.8-129-373.8-127.9z"/>
			<path class="st2" d="M-365.2-122.7c0.1,0.5,0.4,1,0.7,1.5c1.2,1.9,2.4,3.8,3.6,5.8c0,0.1,0.1,0.2,0.2,0.2c0.1,0.1,0.2,0,0.3,0
				c0.9-0.1,1.8-0.4,2.6-0.7c-1.4-1.4-3.4-2.3-4.1-4.2c-0.2-0.6-0.3-1.3-0.5-2C-362.9-123.3-365.6-125.2-365.2-122.7z"/>
			<path class="st2" d="M-355.2-118.4c0,0.8,0.2,1.6,0.5,2.3c0.7,1.7,1.5,3.3,2.4,4.9c0,0.1,0.1,0.2,0.2,0.2c0.1,0.1,0.2,0,0.3,0
				c0.5-0.2,1.1-0.2,1.7-0.1c0.1-0.1,0-0.3-0.1-0.4c-0.6-0.9-1.4-1.6-1.8-2.6c-0.4-0.9-0.4-1.8-0.6-2.8
				C-352.8-117.7-355.1-120.7-355.2-118.4z"/>
			<path class="st2" d="M-348.9-114.7c0,2.1,0.7,4,1.5,6c0,0.1,0.1,0.2,0.1,0.2c0.1,0.1,0.3,0.1,0.5,0.1c0.6,0.1,1.1,0.4,1.6,0.7
				c0.5,0.2,1.2,0.4,1.7,0.1c-1.3-1.9-2.6-3.8-3.1-6.1c-0.1-0.5-0.2-1-0.4-1.5C-347.7-116.2-348.9-116-348.9-114.7z"/>
			<path class="st2" d="M-340.1-109.2c0.3,0.6,0.7,1.1,1.1,1.6c0.9,1.1,1.8,2.2,2.7,3.3c0.8-0.1,1.6-0.1,2.4,0.1
				c-0.2-0.8-0.9-1.3-1.4-1.9c-1.1-1.2-1.9-2.6-2.9-3.9c-0.3-0.4-1-1.5-1.7-1.1C-340.7-110.8-340.3-109.7-340.1-109.2z"/>
			<path class="st2" d="M-333.2-105.5c1.1,1.4,2.3,2.8,3,4.5c0.6-0.2,1.2-0.4,1.8-0.5c-1.3-2.2-2.7-4.3-4.3-6.3
				c-0.3-0.3-0.7-0.7-1.1-0.4C-334.7-107.7-333.6-105.9-333.2-105.5z"/>
			<path class="st2" d="M-399-108.2c-3.7-2.7-6.4-7.3-8.8-11.2c-2.7-4.2-5.4-8.5-6.9-13.2c-1.6-4.7-2-10-0.1-14.7
				c0.4-1.1,1-2.1,1.9-2.9c0.1-0.1,0.2-0.2,0.3-0.3c1.6-1.2,4-1.2,5.9-0.4c4,1.6,7.2,6.2,10.7,8.8c1.5,1.1,3,2.3,3.7,3.9
				c0,0,0,0,0,0.1c0.8,1.9-0.2,6.5-2.6,6.7c-1.3,0.1-2.5-1-3.8-1.2c-1.5-0.3-2.9,0.6-3.8,1.9c-0.8,1.2-1.1,2.8-1.1,4.3
				c-0.1,2.6,0.2,5.1,1,7.6c0.6,1.9,1.5,3.8,2.2,5.7c0.5,1.5,0.8,3.2,1.4,4.7C-399.1-108.3-399.1-108.2-399-108.2z"/>
			<path class="st3" d="M-406.4-119.2c-1.5-4.5-4.2-8.3-5.3-13c-1-4.1-1.3-8.2-1-12.4c0.2-1.9,0.3-3.5-0.4-5.4c0,0,0-0.1-0.1-0.1
				c0.1-0.1,0.2-0.2,0.3-0.3c1.6-1.2,4-1.2,5.9-0.4c4,1.6,7.2,6.2,10.7,8.8c1.5,1.1,3,2.3,3.7,3.9c-0.2,0.5-0.5,0.9-0.8,1.3
				c-1.1,1.4-3.2,2-4.8,1.1c-0.7-0.4-1.2-0.9-1.9-1.3c-0.7-0.3-1.7-0.2-2,0.4c0.1-1.3-1.4-2.4-2.7-2.2c-1.3,0.2-2.4,1.2-3,2.4
				c-0.3-1.4-0.7-2.7-1.3-4c-0.4,2.7-0.3,5.4,0.2,8c-0.9-2.1-1.6-4.3-2.1-6.5C-410-132.1-408.5-125.5-406.4-119.2z"/>
			<path class="st2" d="M-476.7-175c-0.9,3.5-2.6,8.1-1.5,11.7c0,0.2,0.1,0.3,0.2,0.4c0.2,0.2,0.5,0.1,0.7,0.1
				c4.9-1.1,9.7-2.8,13.9-5.7c1.7-1.2,4.7-3.1,5.5-5.1c0.7-1.7-1.1-3.4-1.9-4.9c-0.9-1.5-1.5-3.3-1.8-5c-0.4-2.5-0.3-5.6-2.3-7.5
				c-1.1-1-3.8-2.5-5.5-2c-1.8,0.5-2.9,3.6-3.6,5.2C-473.4-186.9-475.2-180.8-476.7-175z"/>
			<path class="st4" d="M-314.7-93.8c-1,1.2-3,1.1-4.3,0.3c-1.3-0.8-2.3-2.1-3.2-3.3c-5.3-6.6-13.1-10.5-20.6-14.3
				c-24.1-12-48.1-24-72.2-36c-6.3-3.1-13.1-5.9-18.9-9.9c-5.9-4-11.1-9.1-16.5-13.7c-7.7-6.5-15.4-13-21.5-21.1
				c-6.1-8-12.6-15.6-18-24c-2.8-4.4-5.4-8.9-7.9-13.5c-4.7-9-8.7-18.3-11.6-28.1c-0.5-1.7-1-3.5-1.2-5.3c-0.1-1,0.1-2.3,1-2.8
				c1.2-0.6,2.5,0.6,3.3,1.6c3.7,4.5,7.3,9,11,13.5c-1.5-5.6-3-11.3-4.5-16.9c-0.3-0.9-0.5-1.9-0.8-2.9c-0.3-1-0.5-2-0.1-2.9
				c1.8-4.7,11.8-0.1,14.8,0.6c10.9,2.9,21.6,4.9,32,9.3c9.5,4,18.3,9.2,27.2,14.3c4.1,2.3,8.7,4.3,12.5,7
				c9.5,6.6,16.9,15,24.4,23.8c14.1,16.7,24.8,35.9,35.5,54.9c6.2,11.1,12.4,22.2,18.4,33.5c3,5.7,6,11.5,9.4,17
				c1.7,2.8,3.7,5.4,5.5,8.2c0.5,0.8,1.1,1.4,1.7,2.1c1.2,1.3,2.5,2.3,3.9,3.8c1.2,1.3,1.9,3.4,0.9,4.7
				C-314.6-94-314.6-93.9-314.7-93.8z"/>
			<path class="st5" d="M-314.5-94c-1-0.3-1.9-1-2.7-1.6c-8.9-7.2-17.8-14.7-24.6-23.9c-1.6-2.2-3.1-4.5-4.8-6.6
				c-2-2.4-4.2-4.6-6.4-6.8c-4.5-4.6-9-9.2-13.4-13.8c-7-7.3-14-14.6-21-21.9c-5-5.3-10.1-10.5-14.7-16.1c-3.8-4.6-7.5-9.5-12-13.5
				c-3.3-2.8-7-5.2-10.6-7.7c-7.4-5.3-14.1-11.7-19.6-18.9c-3-3.9-5.7-8-9-11.7c-5.6-6.2-12.7-10.7-19.7-15.2c-4-2.6-8-5.1-12-7.7
				c-3.5-2.2-6.9-4.4-10.7-6.1c-1.4-0.6-2.8-1.2-4.1-1.9c-0.3-0.9-0.5-1.9-0.8-2.9c-0.3-1-0.5-2-0.1-2.9c1.8-4.7,11.8-0.1,14.8,0.6
				c10.9,2.9,21.6,4.9,32,9.3c9.5,4,18.3,9.2,27.2,14.3c4.1,2.3,8.7,4.3,12.5,7c9.5,6.6,16.9,15,24.4,23.8
				c14.1,16.7,24.8,35.9,35.5,54.9c6.2,11.1,12.4,22.2,18.4,33.5c3,5.7,6,11.5,9.4,17c1.7,2.8,3.7,5.4,5.5,8.2
				c0.5,0.8,1.1,1.4,1.7,2.1c1.2,1.3,2.5,2.3,3.9,3.8C-314.2-97.5-313.5-95.4-314.5-94z"/>
			<path class="st3" d="M-428-215C-428-215-427.9-215-428-215c3.9,2.3,7.1,5.6,10.1,8.8c1.9,2,3.6,4.3,5.3,6.6
				c1.8,2.4,3.6,4.8,5.2,7.3c1.2,1.8,2.6,3.9,3.3,6c0.1,0.2-3.2-0.3-3.5-0.3c-1.5-0.3-2.9-0.6-4.4-1c-2.9-0.8-5.7-1.8-8.5-2.8
				c-5.6-1.8-11-4.2-15.9-7.5c-0.2-0.1-0.4-0.3-0.6-0.4c-0.6-0.4-1.2-0.9-1.9-1.3c-0.7-0.5-1.3-1-1.8-1.7c0.5-0.6,1.5,0.1,2.2-0.2
				c0.7-0.3,0.5-1.4,0.1-2s-1.1-1.2-1-2c0-1.4,2.1-2.3,1.7-3.6c-0.2-0.6-0.9-1.1-0.6-1.7c0.1-0.2,0.3-0.3,0.4-0.4
				c0.3-0.4,0-1-0.3-1.3c-0.4-0.3-0.8-0.6-1.1-1c-0.3-0.5-0.2-1.1-0.4-1.7c-0.3-0.8-1-1.2-1.7-1.7c-0.9-0.5-1.7-1.1-2.6-1.6
				c-0.7-0.4-2-0.9-2.5-1.5c-0.3-0.4-0.3-0.8,0.2-1.2c0.6-0.5,1.3-0.1,1.9,0c3.6,0.9,7.3,2,10.7,3.4C-431.7-216.8-429.8-216-428-215
				z"/>
			
				<ellipse transform="matrix(0.7071 -0.7071 0.7071 0.7071 39.7247 -412.2725)" class="st6" cx="-477.8" cy="-254.1" rx="4.5" ry="4.5"/>
			
				<ellipse transform="matrix(0.7071 -0.7071 0.7071 0.7071 39.724 -412.2748)" class="st3" cx="-477.8" cy="-254.1" rx="2.9" ry="2.9"/>
			<path class="st7" d="M-463.9-233.8c-3.3,4.7-7.8,8.7-13.4,10.3c-3.6,1-7.4,0.8-11.1,0.6c1,1.3,2.9,1.5,4.6,1.5
				c2,0.1,4.1,0.2,6.1-0.1c4.9-0.6,9.5-3.1,12.9-6.8c3.4-3.6,5.6-8.3,6.6-13.1c0.6-2.5,0.8-5.1,1.7-7.5
				C-458.6-243.6-460.7-238.4-463.9-233.8z"/>
			<path class="st7" d="M-469-209.8c-2.9,0.4-5.6,0.5-8.5-0.1c-1.3-0.3-2.6-0.7-3.9-1.2c-0.6-0.2-1.1-0.5-1.6-0.9
				c-0.3-0.2-0.5-0.3-0.8-0.5c-0.2-0.1-0.4-0.6-0.6-0.7c0.6,0.2,1.4,0.3,2,0.5c4.7,1.4,8.9,2.2,13.7,0.7c6.6-1.9,12.6-5.9,17-11.2
				c4.4-5.3,7.2-11.9,7.9-18.8c0.4,3.3-0.7,6.5-1.6,9.7c-0.5,1.7-0.8,3.4-1.4,5C-450.1-217.2-459.1-211.4-469-209.8z"/>
		</g>
		<g>
			<path class="st8" d="M-120.8-195.7c1.4,1,2.7,2,3.8,3.3c0.8,0.9,1.5,2,2.2,3c1.6,2.6,3.2,5.3,4.3,8.1c0.3,0.6,0.5,1.4,0.1,2
				c-0.3,0.6-1.1,0.7-1.8,0.8c-1.8,0.1-3.6-0.4-5.1-1.4c0.1,0.6-0.6,1.1-1.2,1.1c-0.6,0-1.2-0.4-1.7-0.7c-0.8-0.5-1.6-1-2.4-1.6
				c-0.6,1.2-1.6,2.2-2.8,2.7c-0.4,0.2-0.9,0.3-1.3,0c-0.3-0.2-0.4-0.5-0.7-0.7c-0.9-0.4-1.4,1.6-2.5,1.5c-0.2,0-0.4-0.1-0.6-0.2
				c-3.8-2.2-7.6-4.6-10.1-8.2c-1.1-1.6-1.8-3.4-2.5-5.1c-1.6-4.2-3.1-8.9-1.6-13.2c0.5-1.6,2.3-5.1,4.2-5.5
				c1.4-0.3,4.9,3.2,6.1,4.1C-129.8-202.4-125.3-199.1-120.8-195.7z"/>
			<path class="st8" d="M-139.8-104.5c0.1,1.8,0.3,3.6,0.5,5.3c1.1,8.3,2.3,16.6,3.4,24.9c1.1,7.9,1.7,16.2,4.7,23.8
				c0.5,1.2,1.1,2.5,2.1,3.4c2.8,2.4,5.1,0.2,6.4-2.4c1.7-3.4,3.4-6.9,4-10.7c0.5-3.7,0-7.4-0.4-11.1c-0.5-5.1-0.6-10.3-0.2-15.4
				c0.2-2.7,0.8-5.9,3.2-7.1c1.6-0.8,3.4-0.5,5.2-0.3c9.9,1.5,19.7,3.1,29.6,4.6c2.7,0.4,5.5,0.8,8.2,0.1c2.6-0.8,5.1-3,5-5.8
				c0-1.9-1.2-3.7-2.7-4.8c-1.5-1.2-3.3-1.9-5.1-2.6c-9.3-3.6-18.7-7.1-28.2-10.1c-5-1.5-10-2.9-14.6-5.3c-1.8-1-3.7-2.2-5.7-2.5
				c-3.1-0.5-6.2,1-9.1,2.5c-1.6,0.8-3.2,1.7-4.3,3c-1.3,1.5-1.1,2.9-1.3,4.7C-139.4-108.3-139.9-106.5-139.8-104.5z"/>
			<path class="st8" d="M-215.4-105.2c5.1,8.9,11.1,17.6,19.7,23.2c1.5,1,3.8,1.8,5,0.5c0.6-0.7,0.8-1.6,0.7-2.5
				c-0.2-2.6-1.6-4.9-2.5-7.4c-1.9-4.9,0.5-9.8,5.4-11.7c2.5-1,5.2-1.2,7.9-1.4c6.5-0.5,13-1,19.5-1.5c2.9-0.2,5.5-0.6,8.3-1.1
				c2.7-0.5,5.4-0.8,8.1-0.2c0.7,0.1,1.4,0.4,2,0.3c0.8-0.1,1.6-0.5,2.1-1.1c0.8-0.8,1.3-2,1.2-3.1c0-1.1-0.5-2.1-1-3.1
				c-4.3-7.9-13.4-12.2-22.3-13.4c-8.9-1.1-18,0.3-27,1.1c-9,0.8-18.4,0.7-26.5-3.2c-2.9-1.4-12.2-8-14.2-2.6
				c-1,2.7,1.1,5.2,2.5,7.3c1.9,3,3.6,6.1,5.3,9.2C-219.3-112.2-217.4-108.7-215.4-105.2z"/>
			<path class="st8" d="M-262.1-163.5c0.2,3,0.5,5.9,0.8,8.9c0,0.4,0.1,1,0.5,1.2c0.6,0.3,1.2-0.4,1.5-1c0.2,0.6,1.2,0.3,1.6-0.2
				c0.4-0.5,0.7-1.3,1.4-1.3c0.2,0,0.4,0.1,0.6,0c0.5-0.1,0.7-0.8,0.6-1.3c-0.1-1.1-0.5-2.2-0.7-3.4c-0.4-2.9,0.6-5.7,1.2-8.5
				c0.7-3.2,0.5-8.7-3.7-9.4c-3.6-0.6-3.9,5.9-4,8.3C-262.4-168-262.3-165.7-262.1-163.5z"/>
			<path class="st9" d="M-123.2-105.5c-2,1.7-5.8,4.5-8.6,4.4c-3.7-0.1-6-4.6-7.9-7.1c-2.3-3.2-5.5-6-9.3-6.8
				c-2-0.4-4.2-0.3-6.3-0.2c-17.5,1-36.2,3.1-53-3c-9.9-3.6-18.8-9.4-27-16c-8.9-7.1-15.7-16.7-20.7-26.7
				c-4.6-9.3-7.7-19.5-10.5-29.3c-1.3-4.3-1.9-8.4-2.4-12.9c-0.9-7.6-1.4-15.3-2.6-22.8c-0.6-3.4-1.4-6.6-1.3-10.1
				c0-1.8,0-4.5,0.9-6c0.5-0.8,3.5-3,3.6-0.8c2.2-2.4,4.7-5,7.4-7.1c3.7-2.8,7.8-4.9,12.6-4.7c9.1,0.4,18.2,0.3,27.2,1.6
				c5,0.7,10.1,1.5,15.1,2.5c11.2,2.2,22.6,5.2,32.4,11.4c9.2,5.8,18,12.3,25.9,19.7c7,6.5,13.4,13.8,15.6,23.4
				c1.4,6.1,1.6,12.3,1.7,18.6c0.2,7.6,0.3,15.2,0.7,22.8c0.4,6.8-1.3,13.5-1.3,20.3c0,1.6,0.1,3.2,0.4,4.7c0.6,3.2,1.7,6.4,3.7,8.9
				c0.8,1.1,1.8,2,2.9,2.8c1.1,0.7,2.2,1.3,3.2,2.2C-117.1-112.3-120.3-108.1-123.2-105.5z"/>
			<path class="st10" d="M-126.9-120.7c-0.8,0.2-1.6,0.3-2.4,0.1c-1.6-0.4-2.9-1.7-4-2.9c-2.6-2.9-5.3-6-6.3-9.8
				c-0.3-1.3-0.5-2.6-1.2-3.7c-0.8-1.2-2.1-1.9-2.9-3c-1.7-2.3-1-5.6-2.3-8.1c-1.4-2.7-4.8-4-5.7-6.9c-1-3.6,2.4-8.1-0.1-10.9
				c-2.3-2.6-8-1.3-8.6-4.7c-0.2-1.4,0.7-2.7,1.5-3.8c2.4-3.4,4-7.8,2.6-11.7c-1.1-2.8-3.6-4.9-5.1-7.5c-1.8-3.1-2.1-6.9-4-9.9
				c-3.1-4.9-9.3-6.7-13.4-10.8c-4.1-4.2-5.8-10.8-11-13.6c-3.7-2-8.3-1.6-12-3.7c-1.9-1.1-3.4-2.8-5.1-4.2c-3.9-3.2-9-5-14.1-5
				c-2.3,0-4.5,0.4-6.7-0.1c-2-0.5-3.7-1.6-5.5-2.6c-4.8-2.5-10.3-3.4-15.7-2.6c-1.4,0.2-2.8,0.5-4.1,0.1c-2.2-0.6-3.1-3.1-5-3.8
				c-0.9-0.3-2-0.2-3,0c3.7-2.8,7.8-4.9,12.6-4.7c9.1,0.4,18.2,0.3,27.2,1.6c5,0.7,10.1,1.5,15.1,2.5c11.2,2.2,22.6,5.2,32.4,11.4
				c9.2,5.8,18,12.3,25.9,19.7c7,6.5,13.4,13.8,15.6,23.4c1.4,6.1,1.6,12.3,1.7,18.6c0.2,7.6,0.3,15.2,0.7,22.8
				c0.4,6.8-1.3,13.5-1.3,20.3c0,1.6,0.1,3.2,0.4,4.7C-130.1-126.4-128.9-123.2-126.9-120.7z"/>
			<path class="st8" d="M-226.9-205.3c-0.6-1.6-2-2.8-3.4-3.7c-0.9-0.5-3.1-0.8-3.4-1.9c1.3-0.9,3.3,0.8,4.6,1.3
				c1.7,0.8,3.5,1.6,5.2,2.5c8.1,4.4,14.6,11.3,20.5,18.5c0.7,0.9,1.5,2.1,1.1,3.2c-0.4,0.9-1.5,1.3-2.4,1.3c-1,0-2-0.1-2.9,0.1
				c-0.9,0.2-1.7,0.8-2.6,0.9c-0.7,0.1-1.5-0.1-2.2-0.3c-8.8-2.3-17.9-5.7-23.8-12.7c1.2-1.1,2.6-1.9,4.1-2.4
				c1.6-0.5,3.4-0.7,4.6-1.8C-226.4-201.4-226.2-203.6-226.9-205.3z"/>
			
				<ellipse transform="matrix(0.7071 -0.7071 0.7071 0.7071 95.0062 -249.1544)" class="st6" cx="-253.2" cy="-239.3" rx="4.8" ry="4.8"/>
			
				<ellipse transform="matrix(0.7071 -0.7071 0.7071 0.7071 95.0064 -249.1484)" class="st11" cx="-253.2" cy="-239.3" rx="3.6" ry="3.6"/>
			<path class="st9" d="M-221.5-227.8c-0.5,1.8-1.3,3.5-2.3,5.1c-3.8,5.9-9.6,10.2-16.2,12.3c-6,1.9-14.1,2.5-19.9-0.5
				c2,1,4.3,0.9,6.5,0.8c2.3-0.1,4.6-0.2,6.9-0.4c7.4-0.7,13.7-4.4,18.8-9.7c2.6-2.7,4.4-5.9,6.6-8.9
				C-221.2-228.7-221.3-228.3-221.5-227.8z"/>
		</g>
		<g>
			<path class="st12" d="M-3.4-212.9c-0.3,0.1-0.6,0.1-0.9,0.1c-2.7-0.1-5.3-0.3-8-0.4c-1.4-0.1-2.8-0.2-4.2-0.1
				c-1.9,0.1-3.7,0.4-5.6,0.8c-2,0.4-4,1-5.9,1.1c-0.7,0-1.3,0-2-0.1c0,0-0.1,0-0.1,0c-0.8-0.1-1.6-0.4-2.4-0.2
				c-0.6,0.1-1.2,0.5-1.7,0.9c-6,4.5-11.4,9.9-15.8,15.9c-1.1-3.1-0.9-6.5-0.6-9.7c0.7-8.4,1.3-16.9,3.6-25c0.7-2.4,1.5-4.7,2.2-7.1
				c0.4-1.2,0.8-2.4,1.1-3.6c0.5-1.5,0.9-3,1.2-4.5c0.3-1.3,0.2-3.1,1.1-4.1c0.6-0.8,1.3-1,2.1-1c1.7,0.1,3.7,1.8,4.9,2.8
				c5.6,4.3,10.8,9.2,16,14c5.7,5.3,11.5,10.7,15.3,17.6C-2.8-214.7-2.5-213.3-3.4-212.9z"/>
			<path class="st13" d="M-28.1-211.5c-0.7,0-1.4,0-2.1-0.1c-0.8-0.1-1.6-0.4-2.4-0.2c-0.6,0.1-1.2,0.5-1.7,0.9
				c-6,4.5-11.4,9.9-15.8,15.9c-1.1-3.1-0.9-6.5-0.6-9.7c0.7-8.4,1.3-16.9,3.6-25c0.7-2.4,1.5-4.7,2.2-7.1c1.1,1.3,1.2,3.9,2.2,5.4
				c1.1,1.5,3.5,1.7,4.6,3.3c1.1,1.6,0.5,4.1,1.8,5.5c2,2.1,6.5,0.2,8,2.8c0.3,0.5,0.4,1.1,0.5,1.7
				C-27.6-215.8-27.7-213.6-28.1-211.5z"/>
			<path class="st14" d="M-30.1-211.6c0,0-0.1,0-0.1,0c-0.8-0.1-1.6-0.4-2.4-0.2c-0.6,0.1-1.2,0.5-1.7,0.9
				c-6,4.5-11.4,9.9-15.8,15.9c-1.1-3.1-0.9-6.5-0.6-9.7c0.7-8.4,1.3-16.9,3.6-25c0.7-2.4,1.5-4.7,2.2-7.1c0.4-1.2,0.8-2.4,1.1-3.6
				c0.5-1.5,0.9-3,1.2-4.5c0.3-1.3,0.2-3.1,1.1-4.1c0.6-0.8,1.3-1,2.1-1c0.6,2.1-0.4,4.7-1.2,6.6c-3.1,7.7-5.3,15.5-6.4,23.7
				c-0.6,4.6-0.9,9.2-0.9,13.8c0,0.3,0,0.6,0.2,0.8c0.5,0.6,1.4,0.1,2-0.4c3.1-2.8,6.5-5.3,10.2-7.3c1.5-0.8,3.5-1.4,4.7-0.3
				C-30.4-212.6-30.1-212.1-30.1-211.6z"/>
			<path class="st15" d="M-111.9-294.4c4.4,13.8,7.5,28.1,9.3,42.5c0.9-13.4-1.7-26.8-5.3-39.7c-0.8-3-1.7-5.9-2.4-8.9
				c-0.7-3-0.5-6.1-1.2-9c-0.4-1.8-1.7-3.6-3.1-1.5c-1.2,1.9-0.8,4.5-0.3,6.5C-114.1-301.1-112.9-297.8-111.9-294.4z"/>
			<path class="st15" d="M-108-293.7c8.1,12,15,24.8,20.7,38.2c-2.9-13.1-9.1-25.3-16.1-36.6c-1.6-2.6-3.3-5.2-4.8-7.9
				c-1.4-2.7-2.2-5.7-3.7-8.3c-0.9-1.6-2.7-3-3.3-0.6c-0.6,2.1,0.5,4.5,1.5,6.3C-111.9-299.5-109.9-296.6-108-293.7z"/>
			<path class="st14" d="M34.6-232.3c-10.3-11.4-19.4-23.9-28.2-36.6c-14.3-20.5-28-41.4-45.8-58.7c-17.7-17.3-38.8-30.5-57.6-46.6
				c-1-0.8-1.9-1.7-2.9-2.5c14-16,28.8-32.5,48.6-40.2c-0.5,2.7-0.4,5.4-1,8.1c-0.7,2.8-1.3,5.7-1.8,8.6c-0.6,2.9-1.1,5.8-0.6,8.8
				c0.4,2.9,1.7,5.5,3.1,8.1c4.7,8.5,10.8,16,17,23.5C-17-338.8,1-318,19-297.2c4.1,4.8,8.8,9.7,12.3,14.9
				c4.2,6.2,7.8,13.3,10.8,20.2c1.2,2.7,2.4,5.7,3.4,8.8c2.1,6.5,3.4,13.6,1.6,19.6C45.5-228.4,37.6-228.9,34.6-232.3z"/>
			<path class="st13" d="M6.4-268.8c-14.3-20.5-28-41.4-45.8-58.7c-17.7-17.3-38.8-30.5-57.6-46.6c7.1-3.8,14.3-7.3,21.7-10.6
				c4.4-2,8.8-3.8,13.3-5.6c0,3.1,0,6.3,1,9.3c0.8,2.5,2.3,4.8,3.8,7c4.7,6.8,9.8,13.4,15.3,19.5c6.1,6.8,12.7,13.2,17.2,21.1
				c1.7,3,3.2,6.3,5.5,8.9c1.9,2.1,4.2,3.7,6,5.8c2.5,3,3.6,6.9,5.6,10.3c3.9,6.6,11.2,11.1,13.8,18.4c1.5,4.3,1.1,9,0.7,13.6
				C6.8-273.9,6.6-271.4,6.4-268.8z"/>
			<path class="st14" d="M72.6-205.2c-1.1,2-4,2.8-4.6,5c-0.2,0.8-0.1,1.7,0.1,2.6c1.5,8.4,4.5,16.5,8.7,23.9
				c-3.6-3-7.6-5.4-11.9-7.3c-0.7-0.3-1.5-0.6-2-1.2c-0.4-0.5-0.7-1-0.9-1.6c-1.6-3.7-3.1-7.5-4.7-11.2c-1.2-3-6.2-13.2-2.9-15.9
				c1.8-1.5,6.5,1,8.4,1.7C66.2-208,69.4-206.7,72.6-205.2z"/>
			<path class="st14" d="M59.8-138.5c-1.7,5-4.6,9.5-7.3,14c-7.4,12-14.2,24.4-20.3,37.1c-3.2,6.6-6.3,13.5-7.1,20.8
				s0.8,15.3,6,20.5c-2.1-7-0.9-14.7,2-21.4c2.9-6.7,7.4-12.6,12-18.3c4-4.9,8.6-9.3,12.4-14.3c3.9-5.2,8.1-10.3,14-13.3
				c5.3-2.7,11.3-3.3,16.9-5.3c3.1-1.1,6-2.7,9.2-3.7c2.8-0.9,5.7-1.2,8.6-1.5c17.9-1.7,36,0.3,53.2,5.6c3.1,1,6,2.2,9.1,3.2
				c2,0.6,3.9,1.6,5.7,2.4c0.9,0.4,5.1,1.6,5.4,2.4c-2.3-5.8-8-9.5-13.6-12.5c-7.9-4.2-16.2-7.7-24.5-11.2
				c-12.2-5.1-24.6-10.1-37.6-12.4c-9.1-1.7-19.4-2.5-25.6-9.4c-2.2-2.4-3.8-5.6-6.7-7.2c-2.8-1.5-6.4-1.1-8.8,0.9
				c-3.2,2.7-3,6.8-2.1,10.5C61.5-147.2,61.2-142.8,59.8-138.5z"/>
			<path class="st13" d="M67.4-144.5c-1.8-0.2-2.9,1.8-3.5,3.5c-1.7,4.8-3.4,9.6-5.1,14.5c-1.8,5-3.5,10.2-3.7,15.5
				c0,0.4,0,0.8,0.2,1.2c0.6,1.1,2.3,0.6,3.4-0.1c3.4-2.2,6.2-5.3,8.2-8.8c1.7-2.9,2.9-6.4,5.7-8.2c3.1-2,7.4-1.6,10-4.2
				c1.1-1.2,1.7-2.8,3-3.7c2.6-1.8,6.1,0,9.3,0c2-0.1,4-1,5.8-1.8c0.5-0.2,0.9-0.5,1.2-0.9c0.2-0.3,0.1-0.8,0.1-1.1
				c-0.6-2.6-3.2-4-5.6-5.2c-5-2.4-10-4.8-15.5-5.9c-0.6-0.1-1.3-0.2-1.9,0c-0.5,0.2-0.8,0.6-1.1,1c-1.4,1.9-2.5,7-5,7.8
				C70.3-140,69.9-144.2,67.4-144.5z"/>
			<path class="st13" d="M22.6-172.8c1.3-1.3,3.2-1.9,5-1.6c1.3,0.2,2.4,0.9,3.5,1.5c5.4,3.1,10.9,6.2,16.3,9.3
				c0.6,0.4,1.4,0.7,2,0.3c0.8-0.6,0.2-1.9-0.6-2.7c-2.4-2.5-4.9-5-7.3-7.5c-4.6-4.6-9.4-9.4-15.3-12.3c-1.1-0.5-2.8-1.8-3.8-0.7
				c-0.8,0.8-0.6,3.1-0.6,4.1C21.6-179.1,21.9-175.9,22.6-172.8z"/>
			<path class="st16" d="M-222.9-424.9c23,21.4,47.5,41.4,72,61c1.1-0.9,1.4-2.5,1.9-3.9c0.5-1.4,1.1-2.7,2-3.9
				c0.8-1.2,3.4-2.5,3.9-3.8c1.2-3.2-4-3.7-6.3-4.7c-26.7-10.5-47.6-32.1-72.7-45.8C-222.9-426.3-223.5-425.4-222.9-424.9z"/>
			<path class="st17" d="M74.7-138.4c-1,0.8-2.5,1.1-3.6,0.5c-0.7-0.3-1.3-1-1.8-1.6c-3.9-4.8-7.5-9.5-11.9-13.9
				c-5.5-5.6-11.6-10.6-17.6-15.7c-50.2-43.2-90.3-98.8-147.3-132.5c-8.9-5.3-18.3-10-26.3-16.7c-7.5-6.2-12.6-14.9-19-22.3
				c-10.4-12.1-23.9-21.6-38.8-27.5c0.4-1.6,2.7-1.6,4.3-1.2c12.4,3.1,24.6,6.8,36.6,11.1c-3.2-7.2-7.6-13.8-13-19.5c0,0,0,0,0-0.1
				c-0.6-0.7-0.8-1.5-0.7-2.3c0.3-1.5,1.9-2.8,3.7-2.1c3.6,1.4,7.3,2.4,11.1,3c5.3,0.9,10.8,1.2,16.2,1c11.9-0.3,23.7-2.4,35.7-3
				c2.4-0.1,4.8,0,7.1,0.5c15.5,3.3,26.5,14.4,38.1,25.1c11.7,10.8,22.2,22.8,33.5,34c11.6,11.5,23,23.2,34,35.3
				c7.4,8.2,13.6,17.3,18.8,27c2.3,4.2,5.2,7.6,7.4,11.9c8.8,17.4,16.8,35.3,23.3,53.8c2,5.7,3.9,11.5,5.6,17.3
				c1.5,5,4.1,10.8,5.9,16.8c0.9,2.9,1.5,5.8,1.8,8.6c0.3,3.2,0,6.2-1,9.1C76.4-140.3,75.7-139.1,74.7-138.4z"/>
			<path class="st18" d="M77.9-150.6c-0.3,0.1-0.6,0.2-0.9,0.2c-2.4,0.3-4.7-1.2-6.6-2.7c-7-5.1-11.3-11.8-15-19.3
				c-4-8.1-9.2-15.6-15.4-22.3c-3.7-4-7-7.4-9.9-12c-2.9-4.7-5.1-9.7-8-14.3c-4.3-7-8.3-14.2-13.6-20.5
				c-6.3-7.5-13.6-14.1-20.3-21.2c-21.9-22.8-43.7-45.7-65.6-68.5c-3.9-4-8.1-8.3-13.6-9.3c-3.6-0.7-7.5,0.1-11.1-0.7
				c-6.2-1.5-10.2-7.4-14.5-12.2c-6.5-7.2-14.9-12.2-22.7-17.7c-3.5-2.4-6.9-4.9-10-7.7c5.3,0.9,10.8,1.2,16.2,1
				c11.9-0.3,23.7-2.4,35.7-3c2.4-0.1,4.8,0,7.1,0.5c15.5,3.3,26.5,14.4,38.1,25.1c11.7,10.8,22.2,22.8,33.5,34
				c11.6,11.5,23,23.2,34,35.3c7.4,8.2,13.6,17.3,18.8,27c2.3,4.2,5.2,7.6,7.4,11.9c8.8,17.4,16.8,35.3,23.3,53.8
				c2,5.7,3.9,11.5,5.6,17.3c1.5,5,4.1,10.8,5.9,16.8C76.9-156.3,77.6-153.4,77.9-150.6z"/>
			<path class="st16" d="M76.1-159.2c-0.7-0.3-1.3-0.7-1.8-1.2c-2.8-2.4-6.2-5.6-7.8-9.1c-1.3-3-2.3-6.1-4-9.1
				c-3.7-6.8-7.9-13.2-11.8-19.8c-9.4-16-16.9-33.1-26.8-48.7C12.5-265-1.9-280.5-16.3-296c-10.2-11-20.4-22-30.5-32.9
				c-5.1-5.5-10.2-11-15.3-16.5c-4.4-4.7-12-6.9-17.9-9.4c-3.3-1.5-6.8-2.9-10.4-3.3c-3.6-0.4-7.6,0.4-10.2,2.9
				c-1.9,1.8-3.1,4.4-5.5,5.3c-2.8,1.1-5.8-0.8-8.3-2.5c-9.5-6.8-18.8-14-29.1-19.6c-5.1-2.8-10.4-5.2-16-6.9
				c-1.4-0.4-3.2-0.7-5.1-1c0.3-1.5,1.9-2.8,3.7-2.1c8.6,3.4,18.1,4.3,27.3,4c11.9-0.3,23.7-2.4,35.7-3c2.4-0.1,4.8,0,7.1,0.5
				c15.5,3.3,26.5,14.4,38.1,25.1c11.7,10.8,22.2,22.8,33.5,34c11.6,11.5,23,23.2,34,35.3c7.4,8.2,13.6,17.3,18.8,27
				c2.3,4.2,5.2,7.6,7.4,11.9c8.8,17.4,16.8,35.3,23.3,53.8c2,5.7,3.9,11.5,5.6,17.3C71.6-171,74.3-165.1,76.1-159.2z"/>
			
				<ellipse transform="matrix(0.7071 -0.7071 0.7071 0.7071 218.7332 -212.1738)" class="st6" cx="-146.7" cy="-370.1" rx="4" ry="4"/>
			
				<ellipse transform="matrix(0.7071 -0.7071 0.7071 0.7071 218.7334 -212.1743)" class="st11" cx="-146.7" cy="-370.1" rx="2.9" ry="2.9"/>
			<path class="st14" d="M-51.1-288.8c-0.3-1.2-5.6-3.5-6.7-4.2c-2.3-1.3-4.6-2.5-7-3.7c-4.7-2.3-9.6-4.3-14.6-6.1
				c-5-1.8-10-3.4-15.1-4.9c-3.4-1-8.7-0.9-11.1-3.8c-0.2-0.2-0.3-0.4-0.4-0.6c-2.3-4.1-3.5-10.4-2.1-14.9c0.1-0.3,0.2-0.5,0.4-0.7
				c1.1-1.4,3.7,0.7,5,1.6c5,3.4,10.3,6.2,15.9,8.5c1.9,0.7,3.7,1.4,5.5,2.3c2.1,1.1,4,2.4,5.8,3.8c4.4,3.2,8.7,6.4,13.1,9.6
				C-57.5-298.6-52.4-294.6-51.1-288.8z"/>
			<path class="st17" d="M-90-355.7c-3.5,5-5.7,10.8-7.4,16.7c-0.3,1-0.4,2.3,0.5,2.8c0.9,0.5,12.6-18.2,13.8-19.9
				c1.2-1.6,2.4-3.2,3.7-4.7c0.6-0.7,3.8-3.3,3.8-4.1c0-1.8-3.9-0.5-5,0C-84.4-363-87.6-359.1-90-355.7z"/>
			<path class="st17" d="M-75.9-330.2c-1.5,2.3-2.8,4.9-2.4,7.6c2.9-1.5,4.6-4.5,6.3-7.3c4.4-7,10.2-13.1,16.8-17.9
				c2.4-1.8,1-3.3-1.4-1.8c-2.6,1.6-5,3.4-7.4,5.4C-68.5-340.1-72.6-335.4-75.9-330.2z"/>
			<path class="st17" d="M-38.1-326.7c-8,5.5-14.3,13.4-18,22.4c-0.5,1.2-0.8,2.9,0.3,3.5c4-3.5,6.4-8,9.6-12.2
				c2.4-3.1,5.2-5.8,8.1-8.4c2.2-1.9,5.8-3.5,7-6.2c1-2.2-1-2.8-2.8-1.9C-35.3-328.9-36.8-327.6-38.1-326.7z"/>
			<path class="st17" d="M-35.3-289.7c-2.5,2.6-5.1,5.3-6,8.7c0.9,0.5,2-0.1,2.8-0.7c7.7-5.9,13.4-14.1,21.3-19.7
				c1.4-1,10.7-5.1,6.2-6.7c-3.6-1.3-9.1,4.3-11.6,6.3C-27-298.1-31.2-293.9-35.3-289.7z"/>
			<path class="st17" d="M-19.5-264.9c-0.6,0.9-3.1,4.9-1,5.1c1.3,0.2,3.8-2.4,4.7-3.2c1.9-1.9,3.8-3.8,5.8-5.7
				c3.7-3.5,7.4-7,11.2-10.3c1.4-1.2,2.7-2.6,4.4-3.4c1-0.5,2-0.5,2.8-1.3c2.1-2,1.3-5.4-1.8-3.7c-3.4,1.8-6.8,3.7-9.9,6
				C-9.7-276.9-15.2-271.3-19.5-264.9z"/>
			<path class="st17" d="M7.9-256c-2.1,1.8-4.2,3.8-5.8,6.1c-1.6,2.3-2.8,4.8-3.4,7.5c-0.1,0.4-0.2,0.9,0.1,1.3
				c0.5,0.8,1.7,0.2,2.4-0.5c3.5-3.2,7-6.5,10.5-9.7c1.6-1.5,3.2-3,4.9-4.5c1.3-1.2,4.4-3.1,5-4.7c0.8-2-1.5-3.6-3.5-3.1
				C14.6-262.9,10.5-258.2,7.9-256z"/>
			<path class="st17" d="M14.6-226.5c-1.5,1.9-2.9,4.4-2,6.7c3.2-1.5,5.1-4.7,7.4-7.4c3-3.6,6.6-6.6,10.8-8.9
				c1.7-0.9,8.9-2.3,5.3-4.6c-3.1-1.9-8.2,2.2-10.6,3.9C21.2-233.9,17.6-230.4,14.6-226.5z"/>
			<path class="st17" d="M34.9-208.3c-1.7,1.8-3.3,3.7-4,6.1c-0.2,0.6-0.1,1.4,0.5,1.5c0.3,0,0.5-0.2,0.7-0.3c3-2.5,5.9-5.7,9.2-7.7
				c2.8-1.7,5.1-3.5,7.4-5.9c0.5-0.5,1-1.1,1.2-1.8c0.2-0.7,0.2-1.5-0.4-2c-0.8-0.7-2-0.3-2.9,0.1C42-216.1,38.5-211.9,34.9-208.3z"
				/>
			<path class="st17" d="M46-194.3c-1.8,1.5-3.6,3.2-4.5,5.5c-0.2,0.5-0.3,1.1-0.2,1.7c0.1,0.6,0.5,1.1,1.1,1.2
				c0.5,0.1,1.1-0.2,1.5-0.5c2.2-1.5,4.3-3.1,6.2-4.8c1.4-1.2,4.9-3.5,5.1-5.6C55.7-202.6,47-195.2,46-194.3z"/>
			<path class="st17" d="M53.4-170.9c-0.2,0.5-0.3,1.1,0.1,1.4c0.4,0.5,1.2,0.2,1.8-0.1c2-1,12.6-7.3,9.7-9.6
				C61-182.3,54.4-173.8,53.4-170.9z"/>
			<path class="st19" d="M-86-309.1c-0.4,0.5-1.1,0.7-1.7,0.8c-2.2,0.5-4.6,0.3-6.7-0.3c-1.7-0.5-3.3-1.4-5-1.9
				c-2-0.6-4.1-0.6-6.1-1c-0.2-0.2-0.3-0.4-0.4-0.6c-2.3-4.1-3.5-10.4-2.1-14.9c0.1-0.3,0.2-0.5,0.4-0.7c1.7,1.4,3.3,3.2,4.9,4.4
				c3.1,2.4,6.4,4.4,9.8,6.1c2.6,1.3,5.5,2.5,6.9,5.1C-85.5-311.2-85.3-309.9-86-309.1z"/>
		</g>
		<g>
			<path class="st20" d="M124.7,49.4c2.6-1,5.2-2.1,7.8-3.3c1.2-0.5,2.6-0.2,3.3,0.9c0.3,0.4,0.6,0.7,1.1,0.8c1.3,0.5,2.8,0,4.1-0.5
				c0,0,0,0,0,0c1.6-0.6,3.3,0.6,3.5,2.3c0.1,1.2,0.8,2.4,1.8,3.1c0.1,0.1,0.3,0.2,0.4,0.3c2.1,1.2,3.8,2.9,4.9,5c0,0,0,0.1,0.1,0.1
				c0.2,0.4,0.5,0.7,0.8,1c1.6,1.5,2.5,3.6,2.9,5.7c0.1,0.4,0.2,0.8,0.4,1.1c0.4,1,1.2,1.8,2,2.4c0.9,0.6,1.5,1.7,1.2,2.8
				c-0.2,0.8-0.1,1.6,0.3,2.3c0.4,0.6,0.9,1.1,1.5,1.6c1,0.7,1.4,2,1,3.2c-0.4,1.2-0.2,2.7,0.5,3.7c0.5,0.7,0.7,1.6,0.5,2.4
				c-0.3,0.9-0.1,2.1,0.4,3c0.4,0.6,0.9,1.1,1.4,1.5c0.9,0.7,1.3,1.8,1,2.9c-0.2,0.9-0.1,1.9,0.3,2.7c0.3,0.6,0.8,1.1,1.3,1.6
				c0.8,0.7,1,1.9,0.7,2.9c-0.1,0.5-0.2,1-0.1,1.4c0.3,1.2,1.1,2.1,1.9,3c8.6,9.6,13.3,22,17.9,34c1.1,3,2.3,6,1.6,9.2
				c-0.3,1.3-0.8,2.5-1.8,3.4c-3.5,3.4-8.6,1-12.5-1.4c-4.7-2.9-9.3-5.7-14-8.6c-1.8-1.1-3.6-2.2-4.9-3.8c-1.8-2.1-2.7-4.7-3.6-7.3
				c-2-5.9-4.1-11.8-7-17.3c-8.5-16.1-23-28.1-32.6-43.5c-0.4-0.7-0.9-1.4-1-2.2c-0.5-3,1.4-9.2,3.4-11.6c1.5-1.9,4-3.5,6.3-4.9
				C122.6,48.7,123.6,49.2,124.7,49.4C124.7,49.5,124.7,49.5,124.7,49.4z"/>
			<path class="st20" d="M175.8,172.9c-2.7,2.2-6.2,2.9-8.8,5.2c-2.3,2.1-1.7,3.6-0.8,6c0.9,2.7,1.2,5.7,1.5,8.5
				c0.5,5.8,0.4,11.6,1.2,17.3c1.2,8.7,4.3,17.1,9.1,24.4c1.5,2.3,5,1.9,5.9-0.6c0,0,0,0,0-0.1c4.4-11.6,12.9-21.1,22.2-29.4
				c10.3-9.1,21.7-17,33.9-23.2c0.3-0.2,0.6-0.4,0.7-0.7l0,0c0.3-1.5-0.5-2.9-1.9-3.6c-16.9-7.9-35.4-11-53.9-13
				c-0.4,0-0.9-0.1-1.3,0.1c-0.7,0.2-1,0.9-1.4,1.5C180.6,168.1,178.4,170.7,175.8,172.9z"/>
			<path class="st20" d="M107.1,158.3c0,1.1,1.5,1.5,2.1,0.6c0,0,0,0,0,0c-0.1,3.3,0.5,6.7,1.7,9.8c0.5,1.3,2.3,1.1,2.6-0.2l0,0
				c2,2.7,4.1,5.5,6.1,8.2c0.6,0.8,1.8,1.6,2.4,0.8c6.2,8,13.1,15.4,20.6,22.2c-2-7.9-0.5-16.6,4-23.4c0.8-1.3,1.8-2.6,1.7-4.1
				c0-0.8-0.4-1.6-0.9-2.4c-1.9-2.9-5.3-5.2-5.4-8.7c-0.1-1.4,0.5-2.9,0.3-4.3c-0.2-1.2-0.9-2.2-1.6-3.1c-3.5-4.6-8.2-8.5-13.7-10.2
				c-4.7-1.5-11.5-1.4-15.6,1.8C108,147.9,106.9,153.9,107.1,158.3z"/>
			<path class="st20" d="M54.5,116.2c-0.7,2.1-1.2,4.3-1.6,6.4c-0.3,1.7,0.3,3.5,1.5,4.8c0,0.1,0.1,0.1,0.1,0.2
				c0.5,0.7,0.6,1.6,0.7,2.4c0.5,5-0.4,10.3,0.8,15.2c0.2,1,1.5,1.3,2.2,0.5c1.1-1.1,2.2-2.1,3.7-2.7c0.5-0.2,1.1-0.3,1.5-0.7
				c0.8-0.6,1-1.7,1.5-2.5c1.2-2.1,3.8-2.9,5.8-4.3c6.4-4.5,2.2-13.3,1.7-19.5c-0.2-2.6-0.9-5.2-2.1-7.6c-3.1-6-6.5-5.3-10.6-1.1
				C57.3,109.7,55.7,112.8,54.5,116.2z"/>
			<path class="st21" d="M196.6,172.9c-2.2,2.1-4.6,4-7.1,5.7c-2.1,1.5-4.4,2.8-6.7,4c-2.6,1.3-5.3,2.5-8,3.5
				c-1.6,0.5-4.6,2.4-6.2,1.6c-1.7-0.8-2.4-5.1-3.3-6.7c-1.1-1.8-2.6-3.5-4-5.1c-4.7-5.7-10.7-10.4-17.8-12.8
				c-3.1-1-6.3-1.7-9.4-2.4c-29.1-7.1-54.7-27.2-72.8-50.6C51.4,97.2,42.9,83.2,36,68.5c-3.2-6.8-6.6-13.8-9.1-20.8
				c-1.1-3-2.8-7.2-2.1-10.5c1.3-6.1,6.2-0.8,9.1,2.3c0.5,0.6,1,1.1,1.3,1.4c-0.8-2.1-1.6-4.2-2.3-6.4c-0.6-1.6-0.3-2.6,0.5-3.1
				c2.1-1.4,8,0.3,10.1,0.6c12.4,1.9,25.3,1.8,37.5,4.5c6.7,1.5,13,4.4,19.1,7.4c4.8,2.3,9.5,4.6,14,7.4c10,6.3,18.3,15.1,25.3,24.6
				c8.5,11.7,16.1,24,20.6,37.9c3.2,9.9,6.4,19.8,9.6,29.7c0.5,1.6,1.1,3.3,1.8,4.9c2.1,4.4,7,9.1,10.6,12.4
				c3.2,2.9,7.1,5.3,11.3,6.2c1.2,0.3,2.5,0.4,3.6,1C199.7,169.4,198.4,171.2,196.6,172.9z"/>
			<path class="st22" d="M196.6,172.9c-2.2,2.1-4.6,4-7.1,5.7c-2.1,1.5-4.4,2.8-6.7,4c-5.9-2.8-11.3-7.1-16.2-11.5
				c-9.8-8.8-18.9-18.4-25.8-29.6c-7.3-11.7-12.2-24.8-20.5-35.8c-5.1-6.7-11.3-12.5-16.1-19.4c-2.3-3.4-4.3-7-7.2-10
				c-8.9-9.3-23.3-9.5-35.4-13.8c-11.6-4.1-21.6-12.4-27.8-23c0.5,0.6,1,1.1,1.3,1.4c-0.8-2.1-1.6-4.2-2.3-6.4
				c-0.6-1.6-0.3-2.6,0.5-3.1c2.1-1.4,8,0.3,10.1,0.6c12.4,1.9,25.3,1.8,37.5,4.5c6.7,1.5,13,4.4,19.1,7.4c4.8,2.3,9.5,4.6,14,7.4
				c10,6.3,18.3,15.1,25.3,24.6c8.5,11.7,16.1,24,20.6,37.9c3.2,9.9,6.4,19.8,9.6,29.7c0.5,1.6,1.1,3.3,1.8,4.9
				c2.1,4.4,7,9.1,10.6,12.4c3.2,2.9,7.1,5.3,11.3,6.2c1.2,0.3,2.5,0.4,3.6,1C199.7,169.4,198.4,171.2,196.6,172.9z"/>
			<path class="st23" d="M196.6,172.9c-2.2,2.1-4.6,4-7.1,5.7c-1-0.2-1.9-0.5-2.8-0.9c-7.2-3-11-10.3-16-15.8
				c-4.9-5.5-9.8-11-14.4-16.8c-10.1-12.6-18.8-26.1-26.2-40.4c-2-3.8-3.8-7.7-5.9-11.5c-4.9-8.7-11-16.7-18.2-23.6
				c-3.2-3-6.5-5.9-9.7-8.9c-2.6-2.5-4.7-5.5-7.6-7.5c-2.7-1.9-5.6-3.7-8.8-3.8c-5.7-0.2-10.5,4.9-16.2,5.4c-2,0.2-4.1-0.3-6.1-0.9
				c-6.3-1.9-12-5.5-16.5-10.3c-1.8-1.9-3.4-4.1-4.9-6.2c-1.1-1.6-2.2-3.2-2.7-5.1c-0.1-0.3-0.1-0.5-0.2-0.8c2.1-1.4,8,0.3,10.1,0.6
				c12.4,1.9,25.3,1.8,37.5,4.5c6.7,1.5,13,4.4,19.1,7.4c4.8,2.3,9.5,4.6,14,7.4c10,6.3,18.3,15.1,25.3,24.6
				c8.5,11.7,16.1,24,20.6,37.9c3.2,9.9,6.4,19.8,9.6,29.7c0.5,1.6,1.1,3.3,1.8,4.9c2.1,4.4,7,9.1,10.6,12.4
				c3.2,2.9,7.1,5.3,11.3,6.2c1.2,0.3,2.5,0.4,3.6,1C199.7,169.4,198.4,171.2,196.6,172.9z"/>
			<path class="st20" d="M94.4,94.2c2.5,1.6,5,3.3,7.6,4.7c3,1.6,5.6,3.7,8.1,5.9c8.1,7.2,15,15.5,20.7,24.7
				c-9.3-3.5-19-5.7-28.9-6.7c-3.7-0.4-7.5-0.6-11.1-1.7c-8.1-2.6-14-9.7-17.8-17.2c3.4,1,7.5-1.2,8.5-4.6c0.7-2.3,0.1-4.8-1-6.9
				c-0.8-1.6-2.9-3.2-0.9-4.2c2.6-1.4,6.7,1.5,9,2.6C90.5,91.8,92.5,93,94.4,94.2z"/>
			<ellipse transform="matrix(0.7071 -0.7071 0.7071 0.7071 -11.57 58.1568)" class="st11" cx="64.4" cy="43" rx="3.6" ry="3.6"/>
		</g>
		<g>
			<path class="st24" d="M-246.1,169.3c4.9,1.5,10.2,3.4,13,7.7c-1,0.6-2.1,1.3-2.2,2.5c0,0.4,0.1,0.8,0,1.1c-0.1,2.6-4.6,3-4.9,5.6
				c-0.2,1.1,0.6,2.4-0.1,3.4c-0.5,0.8-1.7,0.8-2.5,1.4c-1.1,0.8-1.3,2.3-2.1,3.4c-1.3,1.7-4.1,2.3-4.2,4.4c0,0.6,0.2,1.2-0.1,1.8
				c-0.4,0.7-1.4,0.6-2,1c-1.3,0.8-1,2.6-0.6,4.1c-1.8,0.1-3.5,1.5-4,3.3c-0.2,0.7-0.3,1.5-0.9,1.8c-0.6,0.3-1.3-0.1-2,0
				c-1.4,0.3-1.2,2.9-2.6,3.4c-0.4,0.1-0.8,0-1.3,0.1c-1.5,0.2-2,2-2.3,3.4c-0.4-0.1-0.8-0.3-1.2-0.4c-0.4,0.4-0.9,0.8-1.3,1.3
				c-2.4-2.2-4.7-4.6-6.8-7.1c1.1,3.8,2,7.7,2.7,11.6c-1,0.5-2.2-0.5-3.2-0.1c-1.5,0.6-0.7,3.2-1.8,4.3c-0.6-0.1-1.1-0.4-1.5-0.9
				c-0.5,0.5-1.1,1-1.6,1.5c-1.2-1.7-4.5-1.2-5,0.9c-3-4.7-5.9-9.5-7.9-14.7c-1.1-3.1-1.9-6.4-3-9.5c-1-2.8-2.3-5.5-3-8.4
				c-0.7-2.6-0.9-5.3-1.2-7.9c-0.3-3.4-0.6-6.7-0.9-10.1c-0.1-0.9-0.2-1.8,0-2.6c0.2-1.1,0.7-2.2,1.2-3.1c2.1-3.8,5.1-7,8.5-9.7
				c1.9-1.5,4.1-3.6,6.6-3.9c3.3-0.4,7.2,2,10.3,3c4.3,1.4,8.6,2.5,12.9,3.6C-256.1,166.6-251.1,167.9-246.1,169.3z"/>
			<path class="st24" d="M-336.4,44.9c-0.3-0.3-0.8,0.1-0.8,0.5c0,0.4,0.3,0.7,0.6,1c1.1,1,2.1,2,3.2,2.9c0.1,2.5,1.9,4.9,4.2,5.8
				c-0.4,0.4-0.7,0.8-1.1,1.2c1.5,1.9,3.2,3.6,5,5.1c-1.7,0.2-2.6,2.5-1.9,4.1c0.7,1.6,2.2,2.7,3.7,3.6c-1.9,0.6-2.5,3.3-1.5,5.1
				c1,1.8,2.8,2.8,4.6,3.8c-1.4,0.7-2.2,2.4-1.9,3.9c0.2,1.5,1.5,2.8,3.1,3.1c0,2.6,2.2,5.1,4.8,5.4c-1.3,1-1.2,3.1-0.3,4.5
				c0.9,1.4,2.4,2.2,3.9,3c-1,0.9-0.8,2.6,0,3.7c0.8,1.1,2.1,1.7,3.3,2.3c-0.5,0.4-0.9,0.8-1.4,1.2c1.1,1.6,2.5,3,4.1,4.2
				c-0.7,0.4-1.4,0.9-1.9,1.5c1.3,1.8,2.8,3.4,4.5,4.9c-0.6,0.4-1.1,0.9-1.7,1.3c1.2,1.5,2.4,3,3.6,4.5c-1.2,2.5,0.1,5.9,2.7,6.9
				c-0.2,2,0.7,4.1,2.4,5.2c-1.4-0.2-2.4,1.5-2.2,2.9c0.2,1.4,1.3,2.5,2.3,3.4c-0.5,0.1-1,0.2-1.5,0.3c1.2,1.4,1.5,3.4,0.9,5.1
				c-8.8-5.7-16.6-12.8-23.2-21c-7.2-8.9-12.9-18.9-19.1-28.5c-3.8-5.9-7.9-11.6-12-17.3c-2.9-3.9-5.7-7.9-8-12.2
				c-1.9-3.6-3.2-7.5-4.6-11.3c-2.1-5.9-7.5-16.9,3.2-16.8c4,0.1,8.2,1.2,12.1,2.4C-344.5,41.6-338.6,42.7-336.4,44.9z"/>
			<path class="st25" d="M-397.9-6.2c9.2-2.4,18.4-4.8,27.6-7.2c-2,1.6-4,3.2-6,4.9c0.1,1.5,2.2,2.1,3.7,1.8c1.5-0.3,3-1.2,4.5-0.7
				c-1.3,1-1,3.2,0.2,4.3s2.9,1.5,4.5,1.8c-2.4,2.5-6.9,1.9-9.2,4.6c-0.3,0.4-0.6,0.8-0.6,1.2c0,1.1,1.1,1.7,2.1,2.1
				c2.5,1,4.9,1.9,7.4,2.9c-1.5,0.1-2.9,1.6-2.9,3.1c0,1.5,1.5,3,3,2.8c-2,0.8-2.5,3.5-1.7,5.4s2.7,3.3,4.4,4.5
				c-1.6,0-2.8,1.8-2.8,3.4c0.1,1.6,1,3.1,2.2,4.2c-0.8-0.5-1.9-0.2-2.4,0.6c-0.5,0.8-0.3,1.9,0.4,2.4c-5.9-0.5-11.3-3.7-15.8-7.5
				c-4.5-3.9-8.2-8.6-12.3-12.9c-2.2-2.4-4.6-4.7-7-6.9c-2.3-2-5.3-3.8-7.2-6.2C-410.1-3.5-402.1-5.1-397.9-6.2z"/>
			<path class="st25" d="M-458,53c-0.8,5.9-1.6,11.9-1,17.9s2.4,12,6.4,16.4c0.4-1,0.9-2,1.7-2.7c0.8-0.7,2-1.1,2.9-0.6
				c-0.8-2.1-1.2-4.4-1-6.6c1.6,0.8,3,2,4.2,3.4c0-0.8,0-1.5-0.1-2.3c0.8-0.1,1.7,0.2,2.3,0.8c0.7-1.7,0-3.6-0.6-5.3
				c-0.5-1.7-0.5-4,1-4.9c1.7,1.1,3.3,2.1,5,3.2c-0.1-0.6-0.1-1.2-0.2-1.7c0.6-0.3,1.4-0.3,2,0.1c-0.6-2.3-2-4.3-3-6.4
				c-1.1-2.1-1.9-4.5-1.3-6.8c0.6-2.3,3.1-4.2,5.4-3.3c1.4-1.8-0.3-4.4-1.9-6c-1.7-1.7-3.4-3.5-5.1-5.2c-2.9-2.9-7.7-5.8-11.7-3.1
				C-456.9,42.2-457.4,48.9-458,53z"/>
			<path class="st25" d="M-366.5,147c1.4,7.3,3.9,14.9,9.3,20c-0.7-0.9,0-2.3,1.1-2.7c1.1-0.4,2.3-0.1,3.3,0.4
				c0-2.5,2.3-4.8,4.9-4.7c0-2.8,2.5-5.4,5.4-5.4c-0.4-1.7,0.7-3.7,2.4-4.2c-0.6-0.9-0.2-2.1,0.5-2.8c0.8-0.7,1.9-1,2.9-1.1
				c-3.2-1.3-5.9-3.7-7.6-6.6c-2-3.3-2.8-7.2-5.1-10.2c-3.2-4.1-14.6-10.1-18.7-4.4c-2,2.8-1,6.5-0.4,9.6
				C-367.9,138.8-367.3,142.9-366.5,147z"/>
			<path class="st17" d="M-502.5-30.2c0.6,3.4,1.7,6.6,2.8,9.8c0.3,0.9,0.6,1.9,0.9,2.9c1.7,5.3,3.6,10.9,6.6,15.3
				c4.2,6.1,7.9,12.4,12.5,18.3c10.2,13.2,22.6,24.8,34.5,36.5c13.1,12.9,26.4,25.6,39.4,38.6c6.5,6.5,12.9,13,19.2,19.7
				c5.7,6,11,12.6,17,18.4c1.6,1.5,3.6,2.6,5.6,3.6c6.7,3.3,13.6,4.7,20.8,6.3c2.4,0.5,3.7,1.6,5.7,3c3,2.1,6.3,3.9,9.2,6.2
				c2.7,2.2,5.1,4.8,7.5,7.4c7.2,8,13.6,16.7,19.2,25.9c1.7,2.8,3.4,5.7,6.3,7.3c2.8,1.5,6.3,1.4,9.3,0.2c3-1.2,5.5-3.3,7.7-5.7
				c1.1-1.2,2.2-2.5,3.1-3.9c1.4-2.1,2.4-4.4,2.8-6.9c0.2-1.5,0.1-3-0.6-4.3c-0.5-0.9-1.1-1.6-1.8-2.3c-4.1-4.1-8.6-7.8-13.4-11.1
				c-10.2-6.9-15.9-21.5-21.2-32.3c-17.8-36.6-38.6-72.2-66.5-101.8c-7.9-8.3-16.3-16.1-25.3-23.2c-12.4-9.8-26-18.4-40.4-25
				c-14.1-6.5-29-9.9-43.6-14.8c-4-1.3-9-2.5-13-0.5C-502-40.7-503.2-34.3-502.5-30.2z"/>
			<path class="st26" d="M-427.4,20.3c7.3,2.7,14.4,5.9,21.3,9.6c2.1,1.1,4.3,2.3,5.7,4.2c0.2,0.3,0.4,0.6,0.5,0.9
				c0.1,0.4,0,0.7,0,1.1c-0.5,2-2,3.7-4,4.4c-2.2,0.7-4.6,0.2-6.7,1c-0.8,0.3-1.5,0.7-2.3,1c-1.5,0.6-3.2,0.5-4.8,0.5
				c-3.9-0.1-7.9-0.1-11.7-1.1c-1.8-0.4-3.6-1-5.3-0.6c-0.6,0.2-1.1,0.4-1.7,0.5c-1.1,0.1-2.1-0.5-2.9-1.1c-3.6-2.6-6.7-5.8-9-9.6
				c-0.1-0.2-0.3-0.5-0.3-0.8c0-0.5,0.7-0.8,1.2-0.7c0.5,0.1,1,0.3,1.5,0.5c1.9,0.6,4-0.9,4.7-2.8c0.7-1.9,0.4-4,0-6
				c-0.2-1.1-0.9-3.2,0-3.9c0.8-0.6,3.8,0.1,4.7,0.3C-433.5,18.1-430.4,19.2-427.4,20.3z"/>
			<path class="st27" d="M-502.5-30.2c0.6,3.4,1.7,6.6,2.8,9.8c0.3,0.9,0.6,1.9,0.9,2.9c2.1,1.2,4.1,3.1,5.8,4.1
				c3.4,2,7.1,3.6,10.9,4.7c7.6,2.2,15.8,2.7,23.5,1.1c5-1,9.9-2.9,15-2.5c8.9,0.7,15.6,7.9,21.4,14.6c49.7,57.8,95.5,118.8,147,175
				c1.4-2.1,2.4-4.4,2.8-6.9c0.2-1.5,0.1-3-0.6-4.3c-0.5-0.9-1.1-1.6-1.8-2.3c-4.1-4.1-8.6-7.8-13.4-11.1
				c-10.2-6.9-15.9-21.5-21.2-32.3c-17.8-36.6-38.6-72.2-66.5-101.8c-7.9-8.3-16.3-16.1-25.3-23.2c-12.4-9.8-26-18.4-40.4-25
				c-14.1-6.5-29-9.9-43.6-14.8c-4-1.3-9-2.5-13-0.5C-502-40.7-503.2-34.3-502.5-30.2z"/>
			
				<ellipse transform="matrix(0.7071 -0.7071 0.7071 0.7071 -118.2483 -347.6829)" class="st6" cx="-478.8" cy="-31.1" rx="5.9" ry="5.9"/>
			
				<ellipse transform="matrix(0.7071 -0.7071 0.7071 0.7071 -118.2483 -347.6829)" class="st11" cx="-478.8" cy="-31.1" rx="4.4" ry="4.4"/>
			<path class="st28" d="M-465.3,2.5c-1.2,1.2-2.6,2.3-4.2,3c-3.9,1.5-8.2,0-12.1-1.5c2.1,1.4,4.4,2.5,6.8,3.4
				c1.1,0.4,2.3,0.8,3.5,0.7c1.3-0.1,2.5-0.6,3.6-1.2c6-3.5,10.8-12.2,12.1-18.8c-2.2,0.9-3.1,4.1-4.1,6.1
				C-461.1-2.9-462.9,0.1-465.3,2.5z"/>
		</g>
		<g>
			<path class="st29" d="M-147.5,38.4c-1.3,0.6-2.4,1.5-3.4,2.5c4.1,0,8.1,1.2,11.5,3.3c-0.9,0.8-1.9,1.5-2.8,2.3
				c3.3,1.2,6.5,2.4,9.8,3.6c-1,0.8-2,1.5-3,2.3c2.7,1.6,5.4,3.3,8,4.9c-1.3,0.3-2.6,1-3.5,2c1.8,2.3,4.3,4,7.2,4.7
				c-2.3,0-2.9,3.6-1.5,5.5c1.3,1.9,3.6,3.1,4.7,5.2c-1.7,0.6-2.4,2.8-2,4.6s1.5,3.3,2.4,5c1.9,3.4,2.6,7.4,4.3,10.9
				c3.6,7.5,11.2,12.3,18.6,16.2c7.4,3.9,15.3,7.6,20.4,14.2c-0.5,0.3-1.1,0.6-1.6,0.9c0.1,3.3,3.6,5.3,5.8,7.8
				c0.3,0.4,0.6,0.8,0.7,1.2c0.1,0.6-0.1,1.2-0.1,1.8c-0.3,2.8,2.4,5,4.7,6.6c-0.9,0.6-0.9,1.9-1.1,3c-0.2,0.9-0.6,1.7-0.9,2.5
				c-0.3,0.7-0.7,1.3-1,2c-1.1,2.2-2.3,4.5-4.2,6.1c-2.6,2.1-6.3,2.4-9.6,1.5c-3.2-0.9-6-3-8.4-5.3c-9-8.6-13.5-20.7-19.5-31.6
				c-13.1-24.1-33.6-43.1-50.8-64.5c-2.8-3.5-9.8-12.2-5-16.5c2.2-2,6.5-2.1,9.3-2.5C-154.9,38.3-151.2,38.2-147.5,38.4z"/>
			<path class="st30" d="M-108.6,172.2c-0.1-2.7,3.7-3.8,4.1-6.5c0.4-3,0.9-4.7,3.9-6.4c0.9-0.5,1.8-0.9,2.8-1.1
				c2.7-0.5,5.3,1,7.7,2.2c2.9,1.4,5.9,1.9,8.9,3c2.7,1,5.3,2.9,8,3.9c4.3,1.6,8.6,3,12.9,4.5c5,1.6,9.9,3.2,14.8,5
				c1.4,0.5,2.9,1.1,3.8,2.3c0.9,1.2,1.1,3.1,0,4.1c-0.8,0.7-2.2,0.9-2.7,1.8c-0.3,0.5-0.2,1.2-0.2,1.8c0,2.2-0.9,4.5-2.4,6.1
				c-1.6,1.7-4,3-4.4,5.3c-0.3,1.4,0.3,3-0.4,4.3c-0.7,1.5-2.6,1.8-4,2.7c-3.8,2.3-4.1,7.8-7.5,10.6c-2.1,1.8-5.1,2.2-7.1,4
				c-1.9,1.8-3.1,4.8-5.7,4.9c-0.4,0-0.9-0.1-1.3,0c-1.3,0.2-2,1.6-2.9,2.5c-1.5,1.5-4,1.8-5.8,0.8c-1.3-0.7-2.1-2-2.9-3.2
				c-6.4-9.8-10-21.2-13.4-32.4c-1.8-6-1.9-12.6-5.3-18C-108.1,173.8-108.6,173-108.6,172.2z"/>
			<path class="st31" d="M-124.9,198.7c-0.8-0.7-2.4-1.2-2.7-0.2c-0.9-0.1-1.6-0.8-2.2-1.5c-0.6-0.7-1.2-1.5-2.1-1.7
				c-0.9-0.3-2,0.3-2,1.2c-2.1-1.7-4-3.7-5.6-5.9c-0.2,0.9-1.5,1.2-2.3,0.7c-0.8-0.5-1.3-1.4-1.6-2.2c-0.8-1.7-1.6-3.4-2.3-5.1
				c-0.3-0.6-0.6-1.3-1.2-1.6c-0.4-0.2-0.8-0.2-1.2-0.4c-0.9-0.4-1.2-1.6-1.3-2.5c-1.5-9.5-3.1-19-4.6-28.5c-0.2-1.4-0.3-3,0.7-3.9
				c7.2,5.2,14.4,10.4,22.8,13.3c2.4,0.8,7.1,1.6,7.8,4.5c0.7,2.8-0.7,7.5-0.9,10.4c-0.3,3.9-0.6,7.9-0.8,11.8
				C-124.6,188.7-126,197.7-124.9,198.7z"/>
			<path class="st32" d="M-259.4,25c-0.8,1.1-0.5,2.5-0.2,3.8c2.1,8.2,5.7,16,9.9,23.4c13.3,23.3,32.8,42.4,52,61.1
				c19.3,18.8,39.1,37.9,63.5,49.2c10.3,4.8,22,8.6,28.3,18.1c0.8,1.2,1.5,2.4,2.5,3.3c2.8,2.6,7.5,2,10.5-0.2
				c1.8-1.3,3.2-3,4.4-4.9c0.9-1.3,1.6-2.7,2.3-4.1c0.7-1.4,1.5-2.8,1.8-4.3c0.1-0.5,0.1-1,0.1-1.6c-0.2-3.3-3.1-5.8-5.3-8.2
				c-8.4-8.9-10.2-21.7-13.3-33.7c-0.5-2.1-1.1-4.1-1.8-6.1c-1.2-3.8-2.7-7.5-4.5-11c-1.8-3.7-3.8-7.4-5.9-11c-1.8-3-3.6-6-5.5-8.9
				c-3.3-5.1-6.9-10.1-10.7-14.9c-4.5-5.8-9.3-11.4-14.3-16.7c-4.3-4.5-8.7-8.9-13.4-13c-2.6-2.3-5.2-4.6-7.9-6.8
				c-3.5-2.9-7.2-5.7-11.3-7.6c-4.1-1.9-8.6-2.8-13.1-3.7c-14.1-2.8-28.4-5-42.7-6.8c-3.3-0.4-6.6-0.8-9.8-1.2
				c-0.6-0.1-1.2-0.1-1.7,0.2c-0.8,0.5-0.9,1.6-0.9,2.5c0,4.7-0.2,9.4,0.2,14.1c-0.8-0.7-1.5-1.4-2.2-2.1c-1.9-2.1-3.3-4.4-4.9-6.9
				C-254.4,24.9-257.6,22.4-259.4,25z"/>
			<path class="st33" d="M-246.3,21.6c0,4.7-0.2,9.4,0.2,14.1c-0.8-0.7-1.5-1.4-2.2-2.1c0.8,2.5,1.8,4.9,2.9,7.2
				c4.2,9,10.1,17.2,14.1,26.3c1.1,2.4,2,4.9,3.5,7.1c1.3,1.9,3,3.6,4.7,5.2c11,10.5,22.5,20.5,34.4,30c4.1,3.3,8.3,6.6,11.4,10.8
				c2.1,2.8,3.6,6,5.9,8.6c7.4,8.7,20.5,9.8,29.4,16.8c3.7,2.9,6.6,6.7,10.1,9.8c4.6,4.1,10.1,6.8,15.6,9.6
				c4.9,2.5,9.9,4.9,14.8,7.4c4,2,8.1,4.7,12.3,6.1c0.3,0.1,0.6,0.2,0.9,0.2c0.9-1.3,1.6-2.7,2.3-4.1c1-1.8,2-3.8,1.9-5.9
				c-0.2-3.3-3.1-5.8-5.3-8.2c-9.8-10.5-10.6-26.2-15-39.9c-2.5-7.7-6.3-15-10.4-22c-13.5-23-31.2-43.5-51.8-60.4
				c-3.5-2.9-7.2-5.7-11.3-7.6c-4.1-1.9-8.6-2.8-13.1-3.7c-17.4-3.4-34.9-6.1-52.5-8c-0.6-0.1-1.2-0.1-1.7,0.2
				C-246.2,19.6-246.3,20.7-246.3,21.6z"/>
			<path class="st31" d="M-233.9,20.1c0.6,3,2.3,5.8,4.2,8.2c6.5,7.9,16.1,12.4,25.3,16.9c32.3,16,64.1,36.9,81.3,68.6
				c5.8,10.7,9.8,22.2,15.7,32.8c4.7,8.4,10.9,16.3,19.3,21.3c1.1,0.6,2.3,1.6,3.7,2.3c0.1-0.5,0.1-1,0.1-1.6
				c-0.2-3.3-3.1-5.8-5.3-8.2c-9.8-10.5-10.6-26.2-15-39.9c-2.5-7.7-6.3-15-10.4-22c-13.5-23-31.2-43.5-51.8-60.4
				c-3.5-2.9-7.2-5.7-11.3-7.6c-4.1-1.9-8.6-2.8-13.1-3.7C-205.4,24.2-219.6,21.9-233.9,20.1z"/>
			<path class="st34" d="M-116.7,119c-4.5,5.9-10.6,10.5-14.8,16.7c2,2.4,4.3,4.7,6.7,6.8c1,0.9,2.3,1.8,3.6,1.7
				c0.7-0.1,1.4-0.4,2-0.9c2.5-1.6,4.6-3.9,6.7-6.1c3.2-3.5,6.3-7.1,9.6-10.5c-0.5-2.1-1.1-4.1-1.8-6.1c-1.2-3.8-2.7-7.5-4.5-11
				C-112.2,112.2-114.2,115.8-116.7,119z"/>
			<path class="st34" d="M-132.6,77.5c-5.2,11-15.7,18.2-24.5,26.7c-0.5,0.5-1.1,1.1-1.2,1.8c-0.2,0.9,0.2,1.7,0.6,2.5
				c1.1,1.9,2.4,3.7,4,5.2c0.7,0.7,1.6,1.4,2.6,1.5c1.3,0.2,2.5-0.5,3.6-1.2c8.3-5.2,16.7-10.7,22.7-18.4c1.2-1.5,2.9-3.6,4.1-5.8
				c-3.3-5.1-6.9-10.1-10.7-14.9C-131.7,75.6-132.2,76.6-132.6,77.5z"/>
			<path class="st34" d="M-166.3,56.8c-2.8,4.2-6.1,8-9.7,11.5c-1.3,1.2-2.7,2.5-3.5,4.1c-2.3,4.2-0.5,9.5,2.5,13.2
				c0.5,0.7,1.2,1.3,2.1,1.3c0.5,0,1-0.4,1.4-0.7c4-2.9,7.9-5.8,11.6-9c6.3-5.4,12.2-11.5,16.4-18.8c0.1-0.1,0.1-0.2,0.2-0.3
				c-4.3-4.5-8.7-8.9-13.4-13C-161.6,48.7-163.8,52.9-166.3,56.8z"/>
			<path class="st31" d="M-200.8,98.7c2.2,1.9,4.9,3,7.5,4.1c3.1,1.3,6.2,2.5,9.3,3.8c-0.4,0.5-0.8,1-1.2,1.5c1,0.9,1.9,1.9,2.7,3
				c-0.5,0.7-1.2,1.3-2,1.7c0.7,1.1,1.4,2.2,2.1,3.4c-0.6,0.7-1.4,1.1-2.3,1.3c0.8,1.1,1.2,2.7,0.6,3.9c-0.6,1.3-2.4,1.9-3.5,1
				c0,1.1-0.7,2.1-1.8,2.4c-1,0.3-2.2-0.1-2.8-0.9c-1.1,1-3,0.7-4.2-0.2c-1.2-0.9-1.9-2.3-2.6-3.7c-0.1,0.8-1.2,1.2-1.9,0.9
				s-1.3-1-1.7-1.7c-1.2-2.1-2.2-4.3-2.9-6.6c-0.6,1.2-2.3,1.3-3.4,0.6c-1.1-0.7-1.7-2-2.1-3.2c-2.3-6-3.1-12.6-2.4-18.9
				c0.1-0.8,0.3-1.7,0.9-2c0.5-0.3,1.1-0.2,1.6-0.1C-205.5,90.2-204.6,95.4-200.8,98.7z"/>
			<path class="st31" d="M-172.7,75.8c6.6,4.1,12.2,9.5,17.3,15.3c-2.7,0.8-5.7,0.7-8.4-0.2c-0.8-0.3-1.7-0.6-2.5-0.3
				c-0.5,0.2-0.9,0.6-1.4,0.8c-0.7,0.2-1.4,0-2-0.3c-2.3-1-4.5-2.1-6.7-3.2c-0.9,1.2-2.7,0.9-4.1,0.4c-7.2-2.5-13.8-6.6-20.3-10.6
				c0.9-1.3,2.4-2.2,4-2.2c0.7,0,1.4,0.1,2-0.2c3.1-1.6-2.6-3.9-1.8-5.6c0.8-1.7,5.5-0.7,6.8-0.5C-183.7,70.1-177.9,72.6-172.7,75.8
				z"/>
			<path class="st28" d="M-205.5,70.2c-7.5,2.6-15.8,0.8-23.8,0.9c4.5,1.4,9,2.7,13.7,3.2c4.7,0.5,9.6,0.1,13.8-1.9
				c4.6-2.2,8.2-6.3,10.6-10.8c2.3-4.2,4.1-7.8,4.5-12.8C-190.4,57.8-195.9,66.9-205.5,70.2z"/>
			<path class="st35" d="M-77.7,189.1c-1,0.3-2.2,0.3-3.2-0.1c-1.4-0.6-2.3-1.9-2.6-3.4c-0.3-1.4-0.1-2.9,0.3-4.4
				c0.7-2.6,2.3-7.2,4.9-8.6c2.3-1.2,5.8,0.2,7.2,2.3C-67.8,179.9-72.5,187.9-77.7,189.1z"/>
			<path class="st29" d="M-77.7,187.1c-0.8,0.2-1.6,0.2-2.4-0.1c-1-0.4-1.7-1.4-1.9-2.5c-0.2-1.1-0.1-2.2,0.2-3.3
				c0.5-2,1.7-5.4,3.6-6.5c1.7-0.9,4.4,0.1,5.4,1.7C-70.3,180.2-73.8,186.1-77.7,187.1z"/>
			
				<ellipse transform="matrix(0.7071 -0.7071 0.7071 0.7071 -84.6496 -144.0666)" class="st6" cx="-216.2" cy="30.1" rx="5.6" ry="5.6"/>
			
				<ellipse transform="matrix(0.7071 -0.7071 0.7071 0.7071 -84.6481 -144.0655)" class="st11" cx="-216.2" cy="30.1" rx="4" ry="4"/>
		</g>
	</g>
</g>
<g id="Designed_by_Freepik">
	<g>
		<g>
			<g>
				<path class="st36" d="M631.5,417.3v-0.3c-0.3,0.4-0.7,0.7-1,1c-0.3,0.3-0.7,0.4-1.1,0.6c-0.4,0.1-0.8,0.2-1.3,0.2
					c-0.6,0-1.2-0.1-1.7-0.4c-0.5-0.3-1-0.6-1.4-1.1c-0.4-0.5-0.7-1.1-0.9-1.7c-0.2-0.7-0.3-1.4-0.3-2.1c0-1.6,0.4-2.9,1.2-3.8
					c0.8-0.9,1.8-1.4,3.1-1.4c0.7,0,1.4,0.1,1.9,0.4c0.5,0.3,1,0.7,1.5,1.2V406c0-0.5,0.1-0.9,0.3-1.2c0.2-0.3,0.5-0.4,0.9-0.4
					c0.4,0,0.7,0.1,0.9,0.4c0.2,0.3,0.3,0.6,0.3,1.1v11.4c0,0.5-0.1,0.9-0.3,1.1c-0.2,0.2-0.5,0.4-0.9,0.4c-0.4,0-0.6-0.1-0.9-0.4
					C631.6,418.1,631.5,417.8,631.5,417.3z M626.4,413.5c0,0.7,0.1,1.3,0.3,1.8c0.2,0.5,0.5,0.9,0.9,1.1c0.4,0.3,0.8,0.4,1.2,0.4
					c0.5,0,0.9-0.1,1.2-0.4c0.4-0.2,0.7-0.6,0.9-1.1c0.2-0.5,0.3-1.1,0.3-1.8c0-0.7-0.1-1.3-0.3-1.8c-0.2-0.5-0.5-0.9-0.9-1.1
					c-0.4-0.3-0.8-0.4-1.3-0.4c-0.5,0-0.9,0.1-1.3,0.4c-0.4,0.3-0.7,0.7-0.9,1.2C626.5,412.3,626.4,412.8,626.4,413.5z"/>
				<path class="st36" d="M642.9,414.2h-5.1c0,0.6,0.1,1.1,0.4,1.6c0.2,0.5,0.5,0.8,0.9,1c0.4,0.2,0.8,0.3,1.3,0.3
					c0.3,0,0.6,0,0.9-0.1c0.3-0.1,0.5-0.2,0.7-0.3c0.2-0.2,0.5-0.3,0.7-0.5c0.2-0.2,0.5-0.4,0.8-0.7c0.1-0.1,0.3-0.2,0.6-0.2
					c0.3,0,0.5,0.1,0.6,0.2c0.2,0.1,0.2,0.4,0.2,0.6c0,0.2-0.1,0.5-0.3,0.8c-0.2,0.3-0.5,0.6-0.8,0.9c-0.4,0.3-0.8,0.5-1.4,0.7
					c-0.6,0.2-1.2,0.3-1.9,0.3c-1.7,0-3-0.5-3.9-1.4c-0.9-0.9-1.4-2.2-1.4-3.9c0-0.8,0.1-1.5,0.3-2.1c0.2-0.7,0.6-1.2,1-1.7
					c0.4-0.5,1-0.8,1.6-1.1c0.6-0.2,1.3-0.4,2.1-0.4c1,0,1.9,0.2,2.6,0.6c0.7,0.4,1.3,1,1.6,1.7c0.4,0.7,0.5,1.4,0.5,2.1
					c0,0.7-0.2,1.1-0.6,1.3C644.1,414.1,643.6,414.2,642.9,414.2z M637.9,412.7h4.7c-0.1-0.9-0.3-1.6-0.7-2c-0.4-0.4-1-0.7-1.6-0.7
					c-0.6,0-1.2,0.2-1.6,0.7C638.2,411.1,637.9,411.8,637.9,412.7z"/>
				<path class="st36" d="M654.7,415.4c0,0.7-0.2,1.3-0.5,1.8c-0.3,0.5-0.9,0.9-1.5,1.2c-0.7,0.3-1.5,0.4-2.5,0.4
					c-0.9,0-1.7-0.1-2.4-0.4c-0.7-0.3-1.2-0.6-1.5-1.1c-0.3-0.4-0.5-0.9-0.5-1.3c0-0.3,0.1-0.5,0.3-0.7c0.2-0.2,0.5-0.3,0.8-0.3
					c0.3,0,0.5,0.1,0.6,0.2c0.1,0.1,0.3,0.3,0.4,0.6c0.3,0.5,0.6,0.8,1,1c0.4,0.2,0.9,0.3,1.5,0.3c0.5,0,0.9-0.1,1.3-0.3
					c0.3-0.2,0.5-0.5,0.5-0.8c0-0.5-0.2-0.8-0.5-1c-0.3-0.2-0.9-0.4-1.7-0.6c-0.9-0.2-1.6-0.5-2.2-0.7c-0.6-0.2-1-0.6-1.3-1
					c-0.3-0.4-0.5-0.9-0.5-1.5c0-0.5,0.2-1,0.5-1.5c0.3-0.5,0.8-0.8,1.4-1.1c0.6-0.3,1.3-0.4,2.2-0.4c0.7,0,1.3,0.1,1.8,0.2
					c0.5,0.1,1,0.3,1.3,0.6c0.4,0.2,0.6,0.5,0.8,0.8c0.2,0.3,0.3,0.6,0.3,0.8c0,0.3-0.1,0.5-0.3,0.7c-0.2,0.2-0.5,0.3-0.9,0.3
					c-0.3,0-0.5-0.1-0.7-0.2c-0.2-0.2-0.4-0.4-0.6-0.7c-0.2-0.3-0.4-0.5-0.7-0.6c-0.3-0.2-0.6-0.2-1.1-0.2c-0.5,0-0.9,0.1-1.2,0.3
					c-0.3,0.2-0.5,0.4-0.5,0.7c0,0.3,0.1,0.5,0.3,0.7c0.2,0.2,0.5,0.3,0.9,0.4c0.4,0.1,0.9,0.3,1.6,0.4c0.8,0.2,1.5,0.4,2,0.7
					c0.5,0.3,0.9,0.6,1.2,1C654.6,414.5,654.7,414.9,654.7,415.4z"/>
				<path class="st36" d="M657.4,407c-0.4,0-0.7-0.1-0.9-0.3c-0.3-0.2-0.4-0.5-0.4-0.9c0-0.4,0.1-0.7,0.4-0.9s0.6-0.4,0.9-0.4
					c0.3,0,0.6,0.1,0.9,0.3c0.3,0.2,0.4,0.5,0.4,0.9c0,0.4-0.1,0.7-0.4,0.9C658,406.9,657.7,407,657.4,407z M658.7,409.7v7.5
					c0,0.5-0.1,0.9-0.4,1.2c-0.2,0.3-0.6,0.4-0.9,0.4c-0.4,0-0.7-0.1-0.9-0.4c-0.2-0.3-0.4-0.7-0.4-1.2v-7.4c0-0.5,0.1-0.9,0.4-1.2
					c0.2-0.3,0.5-0.4,0.9-0.4c0.4,0,0.7,0.1,0.9,0.4C658.5,408.9,658.7,409.3,658.7,409.7z"/>
				<path class="st36" d="M670,410.1v7.5c0,0.9-0.1,1.6-0.3,2.2c-0.2,0.6-0.5,1.1-0.9,1.5c-0.4,0.4-0.9,0.7-1.6,0.9
					c-0.7,0.2-1.5,0.3-2.4,0.3c-0.9,0-1.7-0.1-2.4-0.4c-0.7-0.3-1.2-0.6-1.6-1c-0.4-0.4-0.6-0.8-0.6-1.2c0-0.3,0.1-0.6,0.3-0.8
					c0.2-0.2,0.5-0.3,0.8-0.3c0.4,0,0.7,0.2,1,0.5c0.1,0.2,0.3,0.3,0.4,0.5c0.1,0.2,0.3,0.3,0.5,0.4c0.2,0.1,0.4,0.2,0.7,0.3
					c0.3,0.1,0.5,0.1,0.9,0.1c0.7,0,1.2-0.1,1.6-0.3c0.4-0.2,0.6-0.4,0.8-0.8c0.1-0.3,0.2-0.7,0.3-1.1s0-1,0.1-1.8
					c-0.4,0.6-0.9,1-1.4,1.3c-0.5,0.3-1.1,0.4-1.9,0.4c-0.9,0-1.6-0.2-2.3-0.7c-0.6-0.4-1.1-1.1-1.5-1.9c-0.3-0.8-0.5-1.7-0.5-2.8
					c0-0.8,0.1-1.5,0.3-2.1c0.2-0.6,0.5-1.2,0.9-1.6c0.4-0.4,0.8-0.8,1.4-1c0.5-0.2,1.1-0.3,1.7-0.3c0.7,0,1.4,0.1,1.9,0.4
					c0.5,0.3,1,0.7,1.5,1.3v-0.4c0-0.4,0.1-0.8,0.3-1c0.2-0.2,0.5-0.4,0.9-0.4c0.5,0,0.8,0.2,1,0.5C669.9,409.1,670,409.5,670,410.1
					z M662.5,413.4c0,1.1,0.2,1.8,0.7,2.4c0.5,0.5,1.1,0.8,1.8,0.8c0.4,0,0.8-0.1,1.2-0.3c0.4-0.2,0.7-0.6,0.9-1
					c0.2-0.5,0.4-1,0.4-1.7c0-1.1-0.2-1.9-0.7-2.5c-0.5-0.6-1.1-0.9-1.8-0.9c-0.7,0-1.3,0.3-1.8,0.8
					C662.7,411.6,662.5,412.4,662.5,413.4z"/>
				<path class="st36" d="M674.2,409.7v0.3c0.5-0.6,1-1,1.5-1.3c0.5-0.3,1.2-0.4,1.9-0.4c0.7,0,1.3,0.1,1.8,0.4
					c0.5,0.3,0.9,0.7,1.2,1.3c0.2,0.3,0.3,0.7,0.3,1c0.1,0.4,0.1,0.8,0.1,1.4v4.8c0,0.5-0.1,0.9-0.4,1.2c-0.2,0.3-0.5,0.4-0.9,0.4
					c-0.4,0-0.7-0.1-0.9-0.4c-0.2-0.3-0.4-0.7-0.4-1.2v-4.3c0-0.9-0.1-1.5-0.4-2c-0.2-0.5-0.7-0.7-1.4-0.7c-0.5,0-0.9,0.1-1.3,0.4
					c-0.4,0.3-0.7,0.7-0.8,1.1c-0.1,0.4-0.2,1.1-0.2,2.2v3.2c0,0.5-0.1,0.9-0.4,1.2c-0.2,0.3-0.6,0.4-0.9,0.4
					c-0.4,0-0.7-0.1-0.9-0.4c-0.2-0.3-0.4-0.7-0.4-1.2v-7.5c0-0.5,0.1-0.9,0.3-1.1c0.2-0.2,0.5-0.4,0.9-0.4c0.2,0,0.4,0.1,0.6,0.2
					c0.2,0.1,0.3,0.3,0.4,0.5C674.1,409.1,674.2,409.4,674.2,409.7z"/>
				<path class="st36" d="M689.9,414.2h-5.1c0,0.6,0.1,1.1,0.4,1.6c0.2,0.5,0.5,0.8,0.9,1c0.4,0.2,0.8,0.3,1.3,0.3
					c0.3,0,0.6,0,0.9-0.1c0.3-0.1,0.5-0.2,0.7-0.3c0.2-0.2,0.5-0.3,0.7-0.5c0.2-0.2,0.5-0.4,0.8-0.7c0.1-0.1,0.3-0.2,0.6-0.2
					c0.3,0,0.5,0.1,0.6,0.2c0.2,0.1,0.2,0.4,0.2,0.6c0,0.2-0.1,0.5-0.3,0.8c-0.2,0.3-0.5,0.6-0.8,0.9c-0.4,0.3-0.8,0.5-1.4,0.7
					c-0.6,0.2-1.2,0.3-1.9,0.3c-1.7,0-3-0.5-3.9-1.4c-0.9-0.9-1.4-2.2-1.4-3.9c0-0.8,0.1-1.5,0.3-2.1c0.2-0.7,0.6-1.2,1-1.7
					c0.4-0.5,1-0.8,1.6-1.1c0.6-0.2,1.3-0.4,2.1-0.4c1,0,1.9,0.2,2.6,0.6c0.7,0.4,1.3,1,1.6,1.7c0.4,0.7,0.5,1.4,0.5,2.1
					c0,0.7-0.2,1.1-0.6,1.3C691.1,414.1,690.6,414.2,689.9,414.2z M684.9,412.7h4.7c-0.1-0.9-0.3-1.6-0.7-2c-0.4-0.4-1-0.7-1.6-0.7
					c-0.6,0-1.2,0.2-1.6,0.7C685.2,411.1,684.9,411.8,684.9,412.7z"/>
				<path class="st36" d="M700.5,417.3v-0.3c-0.3,0.4-0.7,0.7-1,1c-0.3,0.3-0.7,0.4-1.1,0.6c-0.4,0.1-0.8,0.2-1.3,0.2
					c-0.6,0-1.2-0.1-1.7-0.4c-0.5-0.3-1-0.6-1.4-1.1c-0.4-0.5-0.7-1.1-0.9-1.7c-0.2-0.7-0.3-1.4-0.3-2.1c0-1.6,0.4-2.9,1.2-3.8
					c0.8-0.9,1.8-1.4,3.1-1.4c0.7,0,1.4,0.1,1.9,0.4c0.5,0.3,1,0.7,1.5,1.2V406c0-0.5,0.1-0.9,0.3-1.2c0.2-0.3,0.5-0.4,0.9-0.4
					c0.4,0,0.7,0.1,0.9,0.4c0.2,0.3,0.3,0.6,0.3,1.1v11.4c0,0.5-0.1,0.9-0.3,1.1c-0.2,0.2-0.5,0.4-0.9,0.4c-0.4,0-0.6-0.1-0.9-0.4
					C700.6,418.1,700.5,417.8,700.5,417.3z M695.4,413.5c0,0.7,0.1,1.3,0.3,1.8c0.2,0.5,0.5,0.9,0.9,1.1c0.4,0.3,0.8,0.4,1.2,0.4
					c0.5,0,0.9-0.1,1.2-0.4c0.4-0.2,0.7-0.6,0.9-1.1c0.2-0.5,0.3-1.1,0.3-1.8c0-0.7-0.1-1.3-0.3-1.8c-0.2-0.5-0.5-0.9-0.9-1.1
					c-0.4-0.3-0.8-0.4-1.3-0.4c-0.5,0-0.9,0.1-1.3,0.4c-0.4,0.3-0.7,0.7-0.9,1.2C695.5,412.3,695.4,412.8,695.4,413.5z"/>
				<path class="st36" d="M711.1,405.9v4c0.5-0.5,1-0.9,1.5-1.2c0.5-0.3,1.1-0.4,1.9-0.4c0.9,0,1.6,0.2,2.3,0.6
					c0.6,0.4,1.2,1,1.5,1.8c0.4,0.8,0.5,1.7,0.5,2.8c0,0.8-0.1,1.5-0.3,2.2c-0.2,0.7-0.5,1.2-0.9,1.7c-0.4,0.5-0.8,0.9-1.4,1.1
					c-0.5,0.3-1.1,0.4-1.8,0.4c-0.4,0-0.8,0-1.1-0.1c-0.4-0.1-0.7-0.2-0.9-0.4c-0.2-0.2-0.5-0.3-0.6-0.5c-0.2-0.2-0.4-0.4-0.7-0.7
					v0.3c0,0.5-0.1,0.9-0.4,1.1c-0.2,0.2-0.5,0.4-0.9,0.4c-0.4,0-0.7-0.1-0.9-0.4c-0.2-0.3-0.3-0.6-0.3-1.1V406
					c0-0.5,0.1-0.9,0.3-1.2c0.2-0.3,0.5-0.4,0.9-0.4c0.4,0,0.7,0.1,0.9,0.4C711,405,711.1,405.4,711.1,405.9z M711.2,413.6
					c0,1,0.2,1.8,0.7,2.4c0.5,0.6,1.1,0.8,1.9,0.8c0.7,0,1.2-0.3,1.7-0.9c0.5-0.6,0.7-1.4,0.7-2.4c0-0.7-0.1-1.3-0.3-1.8
					c-0.2-0.5-0.5-0.9-0.8-1.1c-0.4-0.3-0.8-0.4-1.3-0.4c-0.5,0-0.9,0.1-1.3,0.4c-0.4,0.3-0.7,0.7-0.9,1.2
					C711.3,412.3,711.2,412.9,711.2,413.6z"/>
				<path class="st36" d="M722.1,419.1l0.2-0.6l-3.2-8c-0.2-0.5-0.3-0.8-0.3-1c0-0.2,0.1-0.4,0.2-0.6c0.1-0.2,0.3-0.3,0.5-0.5
					c0.2-0.1,0.4-0.2,0.6-0.2c0.4,0,0.7,0.1,0.8,0.4c0.2,0.2,0.4,0.6,0.5,1l2.2,6.4l2.1-5.9c0.2-0.5,0.3-0.9,0.4-1.1
					c0.1-0.3,0.3-0.5,0.4-0.5c0.1-0.1,0.4-0.1,0.6-0.1c0.2,0,0.4,0.1,0.6,0.2c0.2,0.1,0.3,0.2,0.4,0.4c0.1,0.2,0.1,0.4,0.1,0.6
					c0,0.1-0.1,0.3-0.1,0.5c-0.1,0.2-0.1,0.4-0.2,0.7l-3.4,8.9c-0.3,0.8-0.6,1.4-0.9,1.8c-0.3,0.4-0.6,0.8-1.1,1
					c-0.5,0.2-1.1,0.4-1.9,0.4c-0.8,0-1.3-0.1-1.7-0.2c-0.4-0.2-0.6-0.5-0.6-0.9c0-0.3,0.1-0.5,0.3-0.7c0.2-0.2,0.4-0.2,0.8-0.2
					c0.1,0,0.3,0,0.4,0.1c0.2,0,0.3,0.1,0.4,0.1c0.3,0,0.5,0,0.7-0.1c0.2-0.1,0.3-0.2,0.5-0.5C721.8,419.9,722,419.5,722.1,419.1z"
					/>
			</g>
			<g>
				<path class="st36" d="M759.7,408.5h0.6v-0.8c0-0.8,0.1-1.5,0.3-1.9c0.2-0.5,0.6-0.8,1-1c0.5-0.2,1.2-0.3,2-0.3
					c1.5,0,2.3,0.4,2.3,1.1c0,0.2-0.1,0.4-0.2,0.6c-0.2,0.2-0.3,0.3-0.6,0.3c-0.1,0-0.3,0-0.5-0.1c-0.2,0-0.5-0.1-0.6-0.1
					c-0.5,0-0.8,0.1-0.9,0.4c-0.1,0.3-0.2,0.7-0.2,1.2v0.6h0.6c1,0,1.5,0.3,1.5,0.9c0,0.4-0.1,0.7-0.4,0.8c-0.3,0.1-0.6,0.2-1.1,0.2
					h-0.6v6.9c0,0.5-0.1,0.9-0.4,1.2c-0.2,0.3-0.6,0.4-0.9,0.4c-0.4,0-0.7-0.1-0.9-0.4c-0.2-0.3-0.4-0.7-0.4-1.2v-6.9h-0.7
					c-0.4,0-0.7-0.1-0.9-0.3c-0.2-0.2-0.3-0.4-0.3-0.7C758.4,408.8,758.8,408.5,759.7,408.5"/>
				<path class="st36" d="M768.2,415v2.2c0,0.5-0.1,0.9-0.4,1.2c-0.2,0.3-0.6,0.4-0.9,0.4c-0.4,0-0.7-0.1-0.9-0.4
					c-0.2-0.3-0.4-0.7-0.4-1.2V410c0-1.2,0.4-1.7,1.3-1.7c0.4,0,0.7,0.1,0.9,0.4c0.2,0.3,0.3,0.7,0.3,1.2c0.3-0.5,0.6-0.9,0.9-1.2
					c0.3-0.3,0.8-0.4,1.3-0.4c0.5,0,1.1,0.1,1.6,0.4c0.5,0.3,0.8,0.6,0.8,1.1c0,0.3-0.1,0.6-0.3,0.8c-0.2,0.2-0.5,0.3-0.7,0.3
					c-0.1,0-0.3-0.1-0.7-0.2c-0.4-0.1-0.7-0.2-1-0.2c-0.4,0-0.7,0.1-0.9,0.3c-0.2,0.2-0.4,0.5-0.6,0.9c-0.1,0.4-0.2,0.9-0.3,1.4
					C768.2,413.6,768.2,414.3,768.2,415"/>
				<path class="st36" d="M780.1,414.2H775c0,0.6,0.1,1.1,0.4,1.6c0.2,0.4,0.5,0.8,0.9,1c0.4,0.2,0.8,0.3,1.3,0.3
					c0.3,0,0.6,0,0.8-0.1c0.3-0.1,0.5-0.2,0.7-0.3c0.2-0.2,0.5-0.3,0.7-0.5c0.2-0.2,0.5-0.4,0.8-0.7c0.1-0.1,0.3-0.2,0.6-0.2
					c0.3,0,0.5,0.1,0.6,0.2c0.2,0.1,0.2,0.4,0.2,0.6c0,0.2-0.1,0.5-0.3,0.8c-0.2,0.3-0.5,0.6-0.8,0.9c-0.4,0.3-0.8,0.5-1.4,0.7
					c-0.6,0.2-1.2,0.3-1.9,0.3c-1.7,0-3-0.5-3.9-1.4c-0.9-1-1.4-2.2-1.4-3.9c0-0.8,0.1-1.5,0.3-2.1c0.2-0.7,0.6-1.2,1-1.7
					c0.4-0.5,1-0.8,1.6-1.1c0.6-0.2,1.3-0.4,2.1-0.4c1,0,1.9,0.2,2.6,0.6c0.7,0.4,1.3,1,1.6,1.7c0.4,0.7,0.5,1.4,0.5,2.1
					c0,0.6-0.2,1.1-0.6,1.3C781.3,414.1,780.8,414.2,780.1,414.2 M775,412.7h4.7c-0.1-0.9-0.3-1.5-0.7-2c-0.4-0.4-1-0.7-1.6-0.7
					c-0.6,0-1.2,0.2-1.6,0.7C775.4,411.1,775.1,411.8,775,412.7"/>
				<path class="st36" d="M790.9,414.2h-5.1c0,0.6,0.1,1.1,0.4,1.6c0.2,0.4,0.5,0.8,0.9,1c0.4,0.2,0.8,0.3,1.3,0.3
					c0.3,0,0.6,0,0.8-0.1c0.3-0.1,0.5-0.2,0.8-0.3c0.2-0.2,0.5-0.3,0.7-0.5c0.2-0.2,0.5-0.4,0.8-0.7c0.1-0.1,0.3-0.2,0.6-0.2
					c0.3,0,0.5,0.1,0.7,0.2c0.2,0.1,0.2,0.4,0.2,0.6c0,0.2-0.1,0.5-0.3,0.8c-0.2,0.3-0.5,0.6-0.8,0.9c-0.4,0.3-0.8,0.5-1.4,0.7
					c-0.6,0.2-1.2,0.3-1.9,0.3c-1.7,0-3-0.5-3.9-1.4c-0.9-1-1.4-2.2-1.4-3.9c0-0.8,0.1-1.5,0.3-2.1c0.2-0.7,0.6-1.2,1-1.7
					c0.4-0.5,1-0.8,1.6-1.1c0.6-0.2,1.4-0.4,2.1-0.4c1,0,1.9,0.2,2.6,0.6c0.7,0.4,1.3,1,1.6,1.7c0.4,0.7,0.5,1.4,0.5,2.1
					c0,0.6-0.2,1.1-0.6,1.3C792.1,414.1,791.6,414.2,790.9,414.2 M785.8,412.7h4.7c-0.1-0.9-0.3-1.5-0.7-2c-0.4-0.4-1-0.7-1.6-0.7
					c-0.6,0-1.2,0.2-1.6,0.7C786.2,411.1,785.9,411.8,785.8,412.7"/>
				<path class="st36" d="M796.6,409.7v0.3c0.5-0.6,1-1,1.5-1.3c0.5-0.3,1.1-0.4,1.8-0.4c0.8,0,1.5,0.2,2.2,0.6
					c0.7,0.4,1.2,1,1.6,1.8c0.4,0.8,0.6,1.7,0.6,2.8c0,0.8-0.1,1.5-0.3,2.2c-0.2,0.7-0.5,1.2-0.9,1.7c-0.4,0.5-0.9,0.8-1.4,1
					c-0.5,0.2-1.1,0.4-1.7,0.4c-0.7,0-1.4-0.1-1.9-0.4c-0.5-0.3-1-0.7-1.4-1.3v3.9c0,1.1-0.4,1.7-1.2,1.7c-0.5,0-0.8-0.1-1-0.4
					c-0.2-0.3-0.2-0.7-0.2-1.3v-11.2c0-0.5,0.1-0.9,0.3-1.1c0.2-0.2,0.5-0.4,0.9-0.4c0.4,0,0.7,0.1,0.9,0.4
					C796.5,408.9,796.6,409.2,796.6,409.7 M801.7,413.5c0-0.7-0.1-1.3-0.3-1.8c-0.2-0.5-0.5-0.9-0.9-1.1c-0.4-0.3-0.8-0.4-1.2-0.4
					c-0.7,0-1.3,0.3-1.8,0.8c-0.5,0.6-0.7,1.4-0.7,2.5c0,1,0.2,1.8,0.7,2.4c0.5,0.6,1.1,0.9,1.8,0.9c0.4,0,0.8-0.1,1.2-0.4
					c0.4-0.3,0.7-0.6,0.9-1.1C801.6,414.8,801.7,414.2,801.7,413.5"/>
				<path class="st36" d="M806.9,407c-0.4,0-0.7-0.1-0.9-0.3c-0.3-0.2-0.4-0.5-0.4-0.9c0-0.4,0.1-0.7,0.4-0.9
					c0.3-0.2,0.6-0.4,0.9-0.4c0.3,0,0.6,0.1,0.9,0.3c0.3,0.2,0.4,0.5,0.4,0.9c0,0.4-0.1,0.7-0.4,0.9
					C807.5,406.9,807.2,407,806.9,407 M808.2,409.7v7.5c0,0.5-0.1,0.9-0.4,1.2c-0.2,0.3-0.6,0.4-0.9,0.4s-0.7-0.1-0.9-0.4
					c-0.2-0.3-0.4-0.7-0.4-1.2v-7.4c0-0.5,0.1-0.9,0.4-1.2c0.2-0.3,0.5-0.4,0.9-0.4s0.7,0.1,0.9,0.4
					C808,408.9,808.2,409.3,808.2,409.7"/>
				<path class="st36" d="M816.5,417.6l-2.3-3.8l-1.4,1.3v2.1c0,0.5-0.1,0.9-0.4,1.1c-0.3,0.3-0.6,0.4-0.9,0.4
					c-0.4,0-0.7-0.1-0.9-0.4c-0.2-0.3-0.3-0.7-0.3-1.2v-11.1c0-0.6,0.1-1,0.3-1.3c0.2-0.3,0.5-0.5,1-0.5c0.4,0,0.7,0.1,0.9,0.4
					c0.2,0.3,0.4,0.7,0.4,1.2v6.3l2.9-3.1c0.4-0.4,0.6-0.6,0.8-0.8c0.2-0.1,0.4-0.2,0.7-0.2c0.3,0,0.6,0.1,0.8,0.3
					c0.2,0.2,0.3,0.5,0.3,0.8c0,0.4-0.4,0.9-1.1,1.5l-1.4,1.3l2.7,4.2c0.2,0.3,0.3,0.5,0.4,0.7c0.1,0.2,0.1,0.3,0.1,0.5
					c0,0.4-0.1,0.7-0.3,1c-0.2,0.2-0.5,0.4-0.9,0.4c-0.3,0-0.6-0.1-0.7-0.3C817.1,418.4,816.8,418.1,816.5,417.6"/>
				<path class="st36" d="M822.2,418.8c-0.4,0-0.7-0.1-1-0.4c-0.3-0.2-0.4-0.6-0.4-1.1c0-0.4,0.1-0.7,0.4-1c0.3-0.3,0.6-0.4,1-0.4
					c0.4,0,0.7,0.1,1,0.4c0.3,0.3,0.4,0.6,0.4,1c0,0.5-0.1,0.8-0.4,1.1C822.9,418.7,822.5,418.8,822.2,418.8"/>
				<path class="st36" d="M835.1,415.6c0,0.3-0.1,0.7-0.3,1c-0.2,0.4-0.5,0.7-0.9,1c-0.4,0.3-0.9,0.6-1.5,0.8
					c-0.6,0.2-1.3,0.3-2,0.3c-1.6,0-2.9-0.5-3.8-1.4c-0.9-0.9-1.3-2.2-1.3-3.8c0-1.1,0.2-2,0.6-2.8c0.4-0.8,1-1.4,1.8-1.9
					c0.8-0.4,1.7-0.7,2.8-0.7c0.7,0,1.3,0.1,1.9,0.3c0.6,0.2,1,0.5,1.4,0.8c0.4,0.3,0.7,0.6,0.9,1c0.2,0.4,0.3,0.7,0.3,1
					c0,0.3-0.1,0.6-0.3,0.8c-0.2,0.2-0.5,0.3-0.8,0.3c-0.2,0-0.4-0.1-0.5-0.2c-0.1-0.1-0.3-0.3-0.5-0.5c-0.3-0.5-0.6-0.8-1-1.1
					c-0.3-0.2-0.8-0.4-1.3-0.4c-0.8,0-1.4,0.3-1.9,0.9c-0.5,0.6-0.7,1.4-0.7,2.5c0,0.5,0.1,0.9,0.2,1.3c0.1,0.4,0.3,0.8,0.5,1
					c0.2,0.3,0.5,0.5,0.8,0.7c0.3,0.2,0.7,0.2,1.1,0.2c0.5,0,1-0.1,1.3-0.4c0.4-0.2,0.7-0.6,1-1.1c0.2-0.3,0.3-0.5,0.5-0.7
					c0.2-0.2,0.4-0.2,0.7-0.2c0.3,0,0.6,0.1,0.8,0.4C835,415.1,835.1,415.3,835.1,415.6"/>
				<path class="st36" d="M846.2,413.5c0,0.8-0.1,1.5-0.4,2.1c-0.2,0.7-0.6,1.2-1,1.7c-0.5,0.5-1,0.8-1.6,1.1
					c-0.6,0.2-1.3,0.4-2.1,0.4c-0.8,0-1.5-0.1-2.1-0.4c-0.6-0.2-1.2-0.6-1.6-1.1c-0.5-0.5-0.8-1-1.1-1.7c-0.2-0.6-0.4-1.4-0.4-2.1
					c0-0.8,0.1-1.5,0.4-2.2c0.2-0.7,0.6-1.2,1-1.7c0.5-0.5,1-0.8,1.6-1.1c0.6-0.2,1.3-0.4,2.1-0.4c0.8,0,1.5,0.1,2.1,0.4
					c0.6,0.3,1.2,0.6,1.6,1.1c0.5,0.5,0.8,1,1,1.7C846.1,412,846.2,412.7,846.2,413.5 M843.6,413.5c0-1.1-0.2-1.9-0.7-2.5
					c-0.5-0.6-1.1-0.9-1.9-0.9c-0.5,0-1,0.1-1.3,0.4c-0.4,0.3-0.7,0.6-0.9,1.2c-0.2,0.5-0.3,1.1-0.3,1.8c0,0.7,0.1,1.3,0.3,1.8
					c0.2,0.5,0.5,0.9,0.9,1.2c0.4,0.3,0.8,0.4,1.4,0.4c0.8,0,1.4-0.3,1.9-0.9C843.4,415.4,843.6,414.6,843.6,413.5"/>
				<path class="st36" d="M856.1,413.7v3.4c0,0.5-0.1,1-0.4,1.2c-0.2,0.3-0.6,0.4-1,0.4c-0.4,0-0.7-0.1-1-0.4
					c-0.2-0.3-0.4-0.7-0.4-1.2V413c0-0.7,0-1.2-0.1-1.5c0-0.4-0.2-0.7-0.4-0.9c-0.2-0.2-0.5-0.4-0.9-0.4c-0.9,0-1.4,0.3-1.7,0.9
					c-0.3,0.6-0.4,1.4-0.4,2.5v3.5c0,0.5-0.1,0.9-0.4,1.2c-0.2,0.3-0.6,0.4-1,0.4c-0.4,0-0.7-0.1-1-0.4c-0.3-0.3-0.4-0.7-0.4-1.2
					v-7.4c0-0.5,0.1-0.9,0.3-1.1c0.2-0.3,0.5-0.4,0.9-0.4c0.4,0,0.7,0.1,0.9,0.4c0.2,0.2,0.4,0.6,0.4,1v0.2c0.5-0.5,0.9-0.9,1.4-1.2
					c0.5-0.3,1.1-0.4,1.7-0.4c0.7,0,1.2,0.1,1.7,0.4c0.5,0.3,0.9,0.7,1.2,1.2c0.4-0.5,0.9-0.9,1.4-1.2c0.5-0.3,1.1-0.4,1.7-0.4
					c0.7,0,1.3,0.1,1.8,0.4c0.5,0.3,0.9,0.7,1.1,1.2c0.2,0.5,0.3,1.2,0.3,2.2v5.1c0,0.5-0.1,1-0.4,1.2c-0.2,0.3-0.6,0.4-1,0.4
					c-0.4,0-0.7-0.1-1-0.4c-0.2-0.3-0.4-0.7-0.4-1.2v-4.4c0-0.6,0-1-0.1-1.3c0-0.3-0.2-0.6-0.4-0.8c-0.2-0.2-0.5-0.3-1-0.3
					c-0.3,0-0.7,0.1-1,0.3c-0.3,0.2-0.5,0.5-0.7,0.8C856.2,411.8,856.1,412.6,856.1,413.7"/>
			</g>
			<g>
				<path class="st36" d="M735.4,412.9C735.4,412.9,735.4,412.9,735.4,412.9C735.4,412.9,735.4,412.9,735.4,412.9z"/>
				<path class="st36" d="M735.6,413.7C735.6,413.7,735.6,413.7,735.6,413.7c0-0.2-0.1-0.5-0.1-0.7
					C735.5,413.3,735.5,413.5,735.6,413.7z"/>
				<path class="st36" d="M736.4,416.1C736.4,416.1,736.4,416.1,736.4,416.1C736.4,416.1,736.4,416.1,736.4,416.1z"/>
				<path class="st36" d="M736.3,416c0,0,0-0.1-0.1-0.1C736.3,415.9,736.3,415.9,736.3,416z"/>
				<path class="st36" d="M735.8,414.6c0.1,0.4,0.3,0.8,0.5,1.2C736.1,415.4,735.9,415,735.8,414.6
					C735.8,414.6,735.8,414.6,735.8,414.6z"/>
				<path class="st36" d="M745.5,403c0.5,0,0.9,0,1.3,0.1l0.1-0.8c0,0-1.2-0.4-2.7-0.2l-0.1-0.4c0.5-0.1,0.8-0.5,0.8-1
					c0-0.6-0.5-1.1-1.1-1.1s-1.1,0.5-1.1,1.1c0,0.5,0.4,0.9,0.8,1l0.1,0.5c-1.6,0.2-2.9,0.9-2.9,0.9l0.2,0.7c1-0.3,1.8-0.5,2.6-0.6
					C744.4,403,745,403,745.5,403z"/>
				<path class="st36" d="M736.4,406.8L736.4,406.8c0-0.1,0.1-0.1,0.1-0.2l-0.3-0.2l-0.5-0.4c0,0-0.8,0.7-1.4,2c0,0-0.1-0.1-0.1-0.1
					c-0.2-0.2-0.4-0.3-0.8-0.3c0,0,0,0,0,0c-0.2,0-0.3-0.1-0.4-0.1c0.1-0.1,0.1-0.3,0.1-0.4c0-0.4-0.3-0.7-0.7-0.7
					c-0.4,0-0.7,0.3-0.7,0.7c0,0.4,0.3,0.7,0.7,0.7c0.1,0,0.1,0,0.2,0c0.2,0.2,0.4,0.3,0.8,0.3c0.2,0,0.3,0,0.4,0.2
					c0.1,0.1,0.1,0.3,0.2,0.4c0,0,0,0,0,0c-0.4,1.2-0.3,2.7-0.3,2.7l1.1,0c0-0.5,0.1-1.5,0.4-2.2
					C735.7,407.8,736.4,406.9,736.4,406.8z"/>
				<path class="st36" d="M754.7,403.8c-0.4,0-0.7,0.3-0.7,0.7c0,0.1,0,0.1,0,0.2c-0.2,0.2-0.3,0.4-0.3,0.8c0,0.2,0,0.3-0.2,0.4
					c-0.1,0.1-0.2,0.1-0.3,0.1c-0.8-1.1-1.8-1.8-1.8-1.8l-0.8,0.8c0.6,0.5,1.2,1.2,1.7,2c0.4,0.6,0.8,1.3,1.1,2l1-0.5
					c0,0-0.5-1.2-1.1-2.2c0.1,0,0.2-0.1,0.3-0.2c0.2-0.2,0.3-0.4,0.3-0.8c0-0.2,0.1-0.3,0.1-0.4c0.1,0.1,0.3,0.1,0.4,0.1
					c0.4,0,0.7-0.3,0.7-0.7C755.3,404.1,755,403.8,754.7,403.8z"/>
				<path class="st36" d="M752,413c-1.4,0.7-3.7,1.6-6.8,2c-1.2,0.2-2.4,0.2-3.4,0.2c-1.4,0-2.6-0.1-3.6-0.2
					c-1.1-0.1-1.9-0.3-2.4-0.4c0.1,0.4,0.3,0.8,0.5,1.2c0,0,0,0,0,0c0,0,0,0.1,0.1,0.1c0,0,0,0.1,0.1,0.1c0,0,0,0,0,0
					c0.3,0.6,0.7,1.1,1.1,1.5c1.4,1.6,2.9,1.8,2.9,1.8l0,0l0,0c0,0,1.3,0.4,3.3,0.4c1.9,0,3.9-0.4,5.7-1.2c1.3-0.7,2.6-1.7,3.3-2.7
					c0.5-0.7,0.8-1.5,1-2.3c0.1-0.4,0.2-1.1,0.1-1.8C753.5,412.2,752.9,412.6,752,413z"/>
				<path class="st36" d="M736.9,407.1c0,0.1-0.7,0.9-1.1,2.3c-0.4,1-0.3,2.4-0.3,2.5v0c0,0.3,0,0.7,0.1,1c0,0,0,0,0,0
					c0,0,0,0.1,0,0.1c0,0.2,0.1,0.5,0.1,0.7c0.7,0.2,4.9,1.2,9.5,0.5c2.9-0.4,5.1-1.3,6.5-1.9c1.1-0.5,1.8-1,2.1-1.2
					c-0.3-1-1-2.6-1.7-3.6c-2-2.9-4.2-3.6-5.3-3.8c-0.4-0.1-0.8-0.1-1.2-0.1c-0.4,0-1,0-1.7,0.1c-0.7,0.1-1.6,0.3-2.5,0.6
					c-1.3,0.5-2.6,1.2-3.5,2l0,0C737.5,406.4,737.2,406.7,736.9,407.1z M749.1,406.5c1,0,1.7,0.8,1.7,1.7c0,1-0.8,1.7-1.7,1.7
					c-1,0-1.7-0.8-1.7-1.7C747.4,407.3,748.2,406.5,749.1,406.5z M740.9,406.4c1.6,0,2.8,1.3,2.8,2.8c0,1.6-1.3,2.8-2.8,2.8
					c-1.6,0-2.8-1.3-2.8-2.8C738.1,407.7,739.3,406.4,740.9,406.4z"/>
			</g>
		</g>
	</g>
</g>
</svg>
